<svg width="456" height="240" viewBox="0 0 456 240" fill="none" xmlns="http://www.w3.org/2000/svg">
<rect width="456" height="240" fill="white"/>
<path d="M242.451 77.3909C252.984 77.3909 265.494 71.573 274.998 67.5073C295.623 58.6845 316.652 51.4668 337.447 43.1051C352.401 37.0922 368.031 31.1133 383.42 26.4053C388.705 24.7883 393.186 21.2614 398.54 19.7935C402.512 18.7046 407.918 17.297 411.491 15.3629C415.374 13.2609 422.287 10.1459 426.748 9.90991C428.11 9.83784 430.306 8.14749 430.409 9.90991C430.511 11.6522 430.85 14.433 430.138 16.0445C425.742 25.9866 424.134 36.2215 421.594 46.7177C417.575 63.3269 410.924 79.0723 402.88 94.0907C400.323 98.8639 397.291 107.094 403.49 108.132C408.734 109.011 414.372 112.403 418.882 115.426C424.695 119.321 430.27 123.603 436.512 126.741C441.344 129.17 440.377 132.188 435.02 132.603C429.698 133.014 426.274 135.866 421.594 137.783C417.709 139.374 414.652 142.922 410.881 144.872C407.958 146.383 403.575 147.699 401.117 149.78C395.981 154.127 395.342 153.784 400.507 157.823C408.737 164.258 416.2 178.209 421.255 187.201C423.888 191.883 427.244 196.902 431.019 200.697C435.248 204.948 437.424 212.35 442.004 216.034C445.312 218.694 445.399 223.295 440.173 220.669C436.402 218.773 430.343 217.87 424.65 216.034C410.881 211.592 401.873 208.672 393.251 208.672C356.215 208.672 381.323 202.275 344.896 197.698C331.953 196.072 318.102 192.722 305.162 192.722C304.109 192.722 301.119 191.611 300.958 192.177C300.115 195.143 298.896 195.304 296.618 197.084C290.369 201.97 283.463 204.617 276.48 208.127C272.625 210.064 267.784 210.923 264.546 213.852C260.325 217.671 260.613 213.964 260.613 209.899C260.613 205.571 262.807 184.244 256.952 186.86C251.849 189.14 247.375 192.238 242.238 194.562C226.892 201.504 149.181 207.878 133.826 214.739C115.124 223.094 89.8659 231.984 69.0712 231.984C64.2446 231.984 59.3137 232.269 54.4929 231.984C49.8292 231.708 52.9293 224.352 53.2724 222.168C53.9031 218.153 59.5767 212.871 62.0871 209.899C68.0989 202.781 74.3031 195.697 80.8016 189.041C88.5186 181.137 96.4202 174.254 104.534 166.957C105.727 165.883 110.271 164.503 108.67 164.503C106.681 164.503 104.692 164.503 102.703 164.503C96.0733 164.503 109.631 177.777 102.703 177.777C94.7696 177.777 66.698 165.73 58.7647 165.73C52.2155 165.73 46.7338 163.893 40.4571 163.344C33.0956 162.7 26.7723 158.787 19.7084 157.209C16.2115 156.428 15.0668 152.519 11.5039 151.279C4.98243 149.01 6.19115 149.29 6.8931 143.645C7.38987 139.65 13.0696 132.153 15.7079 129.194C22.9737 121.048 29.937 113.118 37.677 105.338C46.1653 96.8046 48.356 86.4386 59.6814 82.2986C61.7033 81.5595 63.4973 79.8447 65.7161 79.8447C67.1098 79.8447 62.4506 80.3253 61.58 79.2313C58.8861 75.8463 50.6067 71.9755 47.0017 69.484C34.4188 60.7878 34.5005 57.451 22.7597 39.0835C20.2241 37.4904 17.5492 32.1718 16.3859 29.5407C14.6413 25.5947 27.0856 26.6919 30.354 26.1326C47.6286 23.1768 66.9489 24.6074 82.5645 31.9946C95.3217 38.0295 167.985 48.3751 180.137 54.4833" stroke="black" stroke-width="4" stroke-linecap="round"/>
<path d="M172.322 53.3554C172.322 45.0559 176.654 29.9396 178.73 22.4662C179.763 18.7489 183.138 14.0057 183.138 10.0327C183.138 3.7922 185.95 9.26569 187.992 10.7196C195.836 16.3052 204.283 18.2275 212.392 22.3975C219.922 26.2696 228.071 30.3347 235.234 35.6554C243.165 41.5469 252.623 43.9529 261.059 48.0203C265.897 50.3526 270.725 51.9045 275.308 55.4392C277.573 57.1867 280.784 60.1104 283.322 60.1104" stroke="black" stroke-width="4" stroke-linecap="round"/>
<path d="M38.2808 64.2558L63.5005 79.3628L55.3081 83.5303L44.9885 97.9192L25.8974 120.371L9.90215 138.646L7.32227 147.001L11.4501 150.656L20.2217 157.444L31.0572 161.099L55.3081 165.798L74.9152 169.975L94.0005 178L74.9152 197.127L55.3081 220.101L52.7282 232.11H76.9791L107.422 225.845L137.864 214.357L154.376 210.18L208.553 202.348L243.123 194.516L259.119 185.639L261.699 215.924L283.886 205.481L302.977 192.95L362.314 201.304L374.181 209.136L395.336 208.092L420.103 214.357L434.035 219.057L443.322 221.145L428.875 198.693L406.172 163.709L396.368 154.311L408.752 146.479L425.779 134.469L439.71 129.77L413.396 112.017L401.012 107.84L398.948 101.052L415.976 65.5462L423.715 35.2619L430.423 15.9425L428.875 9.15464L294.721 60.847L274.598 53.0148L236.416 34.7397L185.85 8.11035C183.958 11.5913 179.349 21.3728 176.047 32.6511C172.744 43.9295 172.951 49.5338 173.467 50.9262L92.9743 34.7397L69.7554 27.4297L38.2808 25.3411L17.1258 27.4297L20.2217 34.7397L38.2808 64.2558Z" fill="black" stroke="black"/>
<path d="M86 110.042C93.0479 107.612 97.9059 102.082 104.536 99.1477C107.968 97.6286 110.16 94.6417 113.348 92.9606C115.976 91.5751 119.172 87.1689 117.569 92.7589C116.707 95.7623 114.589 98.5547 113.99 101.838C112.868 107.985 110.146 114.857 108.014 120.802C106.13 126.056 105.158 131.781 103.658 137.009C102.782 140.064 101.801 149.534 101.801 146.357" stroke="white" stroke-width="8.74" stroke-linecap="round"/>
<path d="M138.544 91.4469C137.7 91.5526 136.376 94.2694 136.159 95.031C135.385 97.7468 132.836 100.37 131.722 103.062C130.525 105.955 128.41 110.103 128.41 113.25C128.41 121.427 125.047 130.831 128.708 138.903C131.445 144.937 135.973 147 142.584 147C146.225 147 146.891 145.726 149.869 144.146C151.714 143.167 154.744 140.548 155.698 138.637C158.473 133.075 158.81 127.944 158.81 121.646C158.81 115.764 159.501 109.344 158.247 103.693C156.809 97.2071 154.537 94.1172 149.737 89.7876C148.455 88.6316 143.993 86.003 142.253 87.3983C141.522 87.9838 137.021 91.8786 138.544 92.6416" stroke="white" stroke-width="8.74" stroke-linecap="round"/>
<path d="M183.712 93.4888C183.712 99.7632 177.48 104.671 177.139 110.795C176.941 114.36 177.139 117.998 177.139 121.57C177.139 127.034 174.667 135.374 177.007 140.633C177.984 142.829 178.85 144.864 180.857 146.468C182.252 147.583 188.148 146.6 189.985 146.6C192.972 146.6 195.96 146.6 198.947 146.6C202.456 146.6 204.124 144.686 206.282 142.29C207.892 140.504 209.403 134.766 209.403 132.278C209.403 128.193 210 124.443 210 120.343C210 116.862 210 113.381 210 109.9C210 107.417 209.673 102.181 208.075 100.186C206.21 97.8578 204.55 95.2859 202.698 93.0246C202.036 92.2168 201.096 91.6215 200.441 90.8034C199.532 89.6686 197.638 89.9901 196.856 89.0131C195.661 87.521 190.054 88.1179 188.193 88.1179C184.243 88.1179 184.309 91.7029 184.309 94.6823" stroke="white" stroke-width="8.74" stroke-linecap="round"/>
<path d="M245 87C245 95.3167 240.5 103.622 237.578 111.298C235.34 117.177 233.441 123.554 231.938 129.63C230.73 134.511 228.663 139.65 228.375 144.595C228.285 146.137 227.286 147.706 227.188 149.395C227.135 150.294 226 153.14 226 152.995" stroke="white" stroke-width="8.74" stroke-linecap="round"/>
<path d="M259 112.357C259 108.782 263.052 105.89 265.587 103.543C268.409 100.93 270.221 98.2325 272.413 95.5749C273.388 94.3927 274 89.7884 274 91.3023C274 93.4706 274 95.639 274 97.8074C274 107.507 274 117.207 274 126.907C274 133.636 272.571 140.272 272.571 147" stroke="white" stroke-width="8.74" stroke-linecap="round"/>
<path d="M296.963 97.5681C296.963 101.532 297.332 105.642 296.502 109.51C295.262 115.288 294 121.513 294 127.423C294 131.205 294 134.987 294 138.768C294 141.634 295.203 141.887 297.095 143.412C301.104 146.645 306.083 145.934 311.185 145.934C316.865 145.934 320.846 139.452 322.477 134.522C323.968 130.017 326 126.004 326 121.121C326 117.736 325.407 114.266 325.407 111.003C325.407 105.412 321.195 99.2951 317.407 95.4783C314.429 92.4771 307.862 91 303.778 91C297.982 91 296.37 94.7742 296.37 99.9566" stroke="white" stroke-width="8.74" stroke-linecap="round"/>
<path d="M345.027 92.8271C345.027 98.6756 345.426 104.528 344.116 110.281C342.901 115.616 341.103 120.947 341.103 126.413C341.103 132.311 340.324 138.956 343.045 144.483C344.32 147.072 343.93 147.988 347.168 147.988C352.247 147.988 356.732 148.298 361.161 145.769C363.698 144.319 366.951 143.482 368.494 141.014C369.823 138.887 370 136.116 370 133.722C370 126.424 369.643 119.101 369.643 111.848C369.643 109.201 368.93 106.679 368.93 104.081C368.93 100.872 367.109 98.6266 365.184 96.1557C362.293 92.4447 360.516 89.0229 355.016 89.0229C352.915 89.0229 350.877 88.8262 348.952 89.5864C346.482 90.562 346.811 91.4845 346.811 93.7781" stroke="white" stroke-width="8.74" stroke-linecap="round"/>
</svg>
