<svg width="222" height="300" viewBox="0 0 222 300" fill="none" xmlns="http://www.w3.org/2000/svg">
<g clip-path="url(#clip0_7420_9694)">
<rect width="222" height="300" fill="white"/>
<path d="M25.4824 50.4895C25.9592 44.2752 24.8162 38.2042 25.2895 32.0339C25.6657 27.1304 24.7406 18.2551 29.0426 14.5661C32.2316 11.8315 33.72 10.1545 37.9036 8.95987C42.2623 7.71529 45.6691 5.38479 50.3647 5.74501C54.6914 6.07692 59.2571 5.89092 63.7333 6.2343C69.3839 6.66777 74.6351 8.90228 79.0715 12.5053C80.872 13.9676 82.2799 15.6661 83.7884 17.4252C85.4559 19.3699 86.198 21.6807 87.6034 23.6165C89.8412 26.6992 89.2488 29.4961 90.1068 32.9247" stroke="black" stroke-width="4" stroke-linecap="round"/>
<path d="M90.148 32.3913C106.234 18.5972 129.856 19.8863 149.561 21.3979C162.739 22.4089 174.902 25.838 186.739 31.519C188.963 32.5864 191.268 34.5618 193.246 36.0103C195.29 37.5068 197.676 38.9839 199.433 40.8046C203.494 45.0132 205.637 50.3582 209.073 54.9502C212.275 59.2316 213.583 66.0505 213.179 71.3228C212.764 76.7284 209.919 80.6876 207.031 85.0616C204.258 89.2605 201.095 93.301 198.417 97.5389C197.115 99.6005 194.393 101.875 192.477 103.518C191.661 104.217 188.897 108.236 189.033 106.471" stroke="black" stroke-width="4" stroke-linecap="round"/>
<path d="M189.033 106.472C192.701 106.753 195.351 107.669 198.643 109.354C200.744 110.429 201.392 112.428 202.804 114.142C206.034 118.062 207.364 123.428 210.168 127.666C212.372 130.999 213.497 135.3 214.838 139.017C216.353 143.217 218.44 149.542 218.099 153.984C217.912 156.42 218.238 159.164 218.039 161.755C217.708 166.074 216.322 169.781 214.966 173.853C212.549 181.11 206.726 185.91 201.056 190.512C196.395 194.296 187.73 194.469 181.948 194.945C179.38 195.156 177.036 195.104 174.473 194.908C172.612 194.765 170.875 193.559 168.957 193.412" stroke="black" stroke-width="4" stroke-linecap="round"/>
<path d="M25.8934 52.1297C20.2647 51.6979 15.025 57.6479 12.5178 61.8285C9.94038 66.1262 6.27658 72.0826 5.74109 77.1576C4.74323 86.6146 5.92603 97.0995 9.15531 106.049C13.2943 117.52 20.424 127.43 27.1506 137.489C29.4727 140.962 33.4803 143.167 36.9849 145.215C41.5715 147.894 48.8566 150.952 54.2094 151.362" stroke="black" stroke-width="4" stroke-linecap="round"/>
<path d="M33.4573 142.263C28.4344 141.877 26.752 142.35 24.1723 146.794C21.9611 150.602 18.1517 156.356 17.5502 160.883C16.4445 169.208 13.0241 178.7 16.5168 186.782C20.2801 195.49 28.7961 201.497 37.867 203.614C41.6687 204.501 45.9651 204.354 49.8529 204.652C53.7057 204.948 57.5481 205.555 61.3647 204.88C62.6918 204.645 65.6747 204.619 65.8045 202.927C65.9139 201.5 66.274 200.153 67.6696 199.584" stroke="black" stroke-width="4" stroke-linecap="round"/>
<path d="M33.1416 202.298C30.6283 204.453 29.6864 208.185 28.4162 211.082C25.8789 216.868 25.6279 223.351 25.1508 229.57C24.4167 239.14 31.8805 246.382 36.1369 254.127C39.864 260.909 47.8745 266.106 53.0039 271.925C62.4885 282.684 78.2677 286.733 92.0054 287.787C99.7654 288.382 107.503 289.316 115.275 288.916C122.772 288.531 129.986 286.791 137.093 284.513C141.876 282.979 145.461 279.799 149.168 276.621C152.414 273.837 155.918 271.409 158.167 267.659C162.07 261.15 164.291 254.231 164.867 246.723C165.304 241.036 165.74 235.35 166.176 229.663C166.278 228.337 167.24 223.889 166.134 223.225" stroke="black" stroke-width="4" stroke-linecap="round"/>
<path d="M168.145 231.959C173.295 232.354 178.283 233.81 183.405 234.202C188.985 234.631 190.96 233.481 195.331 230.589C197.677 229.037 198.922 226.201 200.909 224.284C203.168 222.104 204.097 219.477 204.75 216.535C205.324 213.954 206.174 211.572 206.38 208.885C206.64 205.497 204.495 202.988 204.389 199.884C204.31 197.564 202.02 195.403 201.672 192.972C201.454 191.45 199.742 187.896 198.4 187.091" stroke="black" stroke-width="4" stroke-linecap="round"/>
<path d="M191 107C203.5 109.5 202.675 117.879 206.5 124C231.5 160 209.5 184.5 199.5 190C198.622 190.483 201.672 196 205 203.5C211.14 217.335 196 241 167 232C162.5 292.5 126.778 286.605 103 288.5C83.396 290.063 54.8621 282.327 40.5001 257C33.0061 243.785 15.5005 239 32.0001 204.5C30.9626 199 27.0619 199.322 25.0002 199C18.3151 193.587 13.3672 181.899 15.5005 169C17.9192 154.376 27.8896 138.625 26.5002 136.5C-19.5841 66 25.0003 55 25.0002 52C25.0001 42.9327 21.8653 20.9511 28.5002 14.0001C42.5002 3.50041 80.1801 -3.24526 91.5002 31.2346C101.649 24.7256 113.432 21.0002 126 21.0002C166 18.5 252 41.0002 191 107Z" fill="black"/>
<path d="M48 159.036C48 161.099 48.1943 162.849 48.5543 164.834C49.0867 167.77 50.4198 170.555 50.9513 173.486C51.25 175.133 52.2904 176.679 52.5992 178.382C52.8906 179.989 53.5174 181.71 53.9475 183.219C54.3225 184.535 54.891 185.99 55.2658 187.305C55.8371 189.31 57.1126 190.893 58.1122 192.697C58.8019 193.942 59.0316 195.222 59.7301 196.482C60.3394 197.582 60.3471 198.997 60.8837 200.132C61.5406 201.523 61.5225 200.886 61.8874 199.862C62.1452 199.138 61.7892 198.228 62.1571 197.564C62.9076 196.209 62.6561 194.07 63.3705 192.562C64.6368 189.889 65.6213 187.087 66.936 184.451C67.7845 182.749 68.4695 181.016 69.3629 179.314C69.8047 178.472 70.264 177.619 70.6513 176.745C70.9299 176.117 71.0045 175.142 71.4003 174.657C71.7423 174.238 71.9996 172.943 71.9996 172.419C71.9996 172.195 72.1968 170.617 72.3292 170.452C73.1053 169.479 72.3462 167.244 72.8685 166.065C73.5256 164.583 73.6574 162.891 74.3666 161.469C75.028 160.143 75.4125 158.681 76.0444 157.414" stroke="white" stroke-width="8.74" stroke-linecap="round"/>
<path d="M74.1748 158.267C74.1748 165.215 76.5217 171.218 78.5945 177.819C79.5854 180.974 80.8867 183.788 81.3131 187.094C81.6635 189.81 83.2406 191.921 84.4133 194.32C85.2368 196.005 86.2508 197.633 86.7821 199.435C86.9506 200.007 87.8027 202.449 88.197 202.64" stroke="white" stroke-width="8.74" stroke-linecap="round"/>
<path d="M88.2077 202.64C88.2077 197.328 87.964 191.82 89.8297 186.803C91.3359 182.752 93.6551 178.784 93.8846 174.353C93.9929 172.263 94.8496 170.163 94.9659 168.036C95.0539 166.427 95.9857 164.78 96.0473 163.154C96.1048 161.633 97.0476 160.179 97.1286 158.698C97.2039 157.321 98.4802 156.269 98.4802 154.854" stroke="white" stroke-width="8.74" stroke-linecap="round"/>
<path d="M119.111 158.267C119.111 163.541 118.778 168.925 118.778 174.115C118.778 177.5 117.522 181.562 118.852 184.911C119.469 186.464 119.445 188.203 119.445 189.826C119.445 191.645 119.778 193.428 119.778 195.293C119.778 198.123 120.111 200.673 120.111 203.493" stroke="white" stroke-width="8.74" stroke-linecap="round"/>
<path d="M112.633 205.2C114.129 205.2 115.624 205.2 117.12 205.2C118.32 205.2 119.421 206.054 120.655 206.054C123.027 206.054 125.231 205.627 127.59 205.627" stroke="white" stroke-width="8.74" stroke-linecap="round"/>
<path d="M113.567 155.707C116.941 155.707 120.315 155.707 123.689 155.707C124.88 155.707 126.005 156.133 127.285 156.133C127.904 156.133 130.792 156.204 130.348 156.56" stroke="white" stroke-width="8.74" stroke-linecap="round"/>
<path d="M144.481 204.2C144.481 200.909 144.481 197.619 144.481 194.328C144.481 190.081 146.131 185.926 146.131 181.646C146.131 179.384 146.374 176.816 146.818 174.584C147.166 172.836 146.588 170.568 147.292 168.908C147.874 167.536 147.353 165.833 147.995 164.466C148.392 163.618 148.606 161.688 148.606 160.764C148.606 158.448 149.156 156.205 149.156 153.854" stroke="white" stroke-width="8.74" stroke-linecap="round"/>
<path d="M149.155 157.267C150.541 158.517 151.367 160.067 152.318 161.586C153.693 163.785 155.099 166.005 156.353 168.269C157.791 170.863 158.602 173.652 160.133 176.106C160.707 177.027 160.939 178.11 161.519 179.04C162.313 180.315 163.552 181.376 164.47 182.572C165.085 183.373 165.947 184.024 166.639 184.786C167.522 185.759 167.927 186.974 168.672 188.018C169.516 189.204 170.11 190.528 170.9 191.74C171.634 192.865 172.981 194.257 173.295 195.53C173.486 196.307 176.381 200.733 176.261 200.787" stroke="white" stroke-width="8.74" stroke-linecap="round"/>
<path d="M176.266 200.787C176.266 194.382 176.266 187.978 176.266 181.573C176.266 179.15 176.388 176.758 176.453 174.375C176.494 172.834 177.013 171.257 177.013 169.75C177.013 164.16 177.2 158.516 177.2 153" stroke="white" stroke-width="8.74" stroke-linecap="round"/>
<path d="M44 77.3726C44 85.0883 47.5701 92.7597 48.7611 100.333C49.0503 102.172 49.9192 104.171 50.3641 106.021C50.6989 107.412 50.6324 108.928 51.2254 110.234C52.2736 112.541 52.3644 115.681 53.1394 118.145C53.9246 120.641 54.4982 123.113 55.2209 125.587C55.3652 126.081 59.4094 119.359 59.7428 118.847C61.2472 116.534 63.312 114.433 64.6714 112.106C65.3095 111.014 65.6483 109.987 66.394 111.263C66.9724 112.254 68.3725 113.012 69.1933 113.815C71.218 115.795 72.9011 118.05 74.9114 120.017C75.6001 120.691 79.7177 123.737 79.7443 123.294C79.8999 120.705 80.0187 118.4 80.5817 115.921C81.086 113.701 81.0122 110.697 82.1129 108.759C82.7352 107.663 82.5668 106.338 83.0938 105.178C83.5992 104.066 84.0508 102.607 84.0508 101.386C84.0508 98.509 86.0482 95.8593 86.2041 92.9605C86.3158 90.8851 87.1437 87.3113 88.0224 85.3772C88.488 84.3524 88.4839 82.6947 89.123 81.9132C89.4741 81.4838 90.08 79.2148 90.08 78.6364" stroke="white" stroke-width="8.74" stroke-linecap="round"/>
<path d="M112.146 81.3267C112.146 88.6282 112.146 95.9298 112.146 103.231C112.146 106.64 112.146 109.942 112.146 113.315C112.146 116.127 112.146 119.018 112.146 121.659" stroke="white" stroke-width="8.74" stroke-linecap="round"/>
<path d="M105.32 124.032H117.267" stroke="white" stroke-width="8.74" stroke-linecap="round"/>
<path d="M107.026 78.9541H120.68" stroke="white" stroke-width="8.74" stroke-linecap="round"/>
<path d="M140.48 76.5815C140.48 84.8997 140.48 93.2179 140.48 101.536C140.48 105.853 139.2 110.126 139.2 114.362C139.2 117.153 139.853 120.598 138.773 123.241" stroke="white" stroke-width="8.74" stroke-linecap="round"/>
<path d="M141.333 80.1405C141.43 80.9924 142.319 81.7503 142.838 82.3898C143.89 83.6864 145.005 85.0651 146.165 86.268C148.808 89.0082 150.715 92.4927 153.017 95.498C154.283 97.1517 155.584 99.3303 157.017 100.733C158.094 101.788 158.239 103.412 159.235 104.495C161.229 106.664 162.503 109.913 164.582 112.174C166.085 113.809 166.649 116.129 168.146 117.759C168.432 118.069 169.493 120.146 169.493 118.883C169.493 117.345 169.493 115.807 169.493 114.268C169.493 110.222 169.493 106.176 169.493 102.13C169.493 97.3952 169.493 79.5332 169.493 75" stroke="white" stroke-width="8.74" stroke-linecap="round"/>
</g>
<defs>
<clipPath id="clip0_7420_9694">
<rect width="222" height="300" fill="white"/>
</clipPath>
</defs>
</svg>
