<svg width="78" height="46" viewBox="0 0 78 46" fill="none" xmlns="http://www.w3.org/2000/svg">
<path fill-rule="evenodd" clip-rule="evenodd" d="M67.2577 11.9957C64.6804 12.0219 62.4296 10.1213 62.0821 7.50136C61.7063 4.66838 63.6982 2.06716 66.5312 1.69137C66.6821 1.67135 66.801 1.64733 67.0728 1.59241L67.0934 1.58823C67.1007 1.58676 67.1111 1.58456 67.1244 1.58175C67.3058 1.54345 68.0252 1.39153 68.7851 1.39938C69.9007 1.41091 71.5199 1.75203 72.8512 3.13121C73.9003 4.21796 74.2568 5.45687 74.3905 5.96714C75.1148 8.73163 73.4609 11.5598 70.6964 12.2841C69.504 12.5965 68.2998 12.4665 67.2577 11.9957ZM69.3074 11.7017C69.3083 11.7013 69.2945 11.7033 69.2634 11.7089C69.2909 11.7049 69.3065 11.702 69.3074 11.7017Z" fill="black"/>
<path fill-rule="evenodd" clip-rule="evenodd" d="M6.36411 14.6005C3.78686 14.6266 1.53605 12.726 1.18852 10.1061C0.812727 7.27312 2.80467 4.6719 5.63765 4.29611C5.78854 4.27609 5.90743 4.25206 6.1792 4.19714L6.19984 4.19297C6.20716 4.19149 6.21757 4.18929 6.23088 4.18648C6.41225 4.14818 7.13169 3.99627 7.89159 4.00412C9.00716 4.01565 10.6263 4.35677 11.9577 5.73595C13.0068 6.8227 13.3633 8.06161 13.4969 8.57188C14.2212 11.3364 12.5673 14.1646 9.80282 14.8889C8.61046 15.2012 7.40625 15.0712 6.36411 14.6005ZM8.41381 14.3064C8.4147 14.306 8.40092 14.308 8.36983 14.3137C8.39738 14.3096 8.41293 14.3068 8.41381 14.3064Z" fill="black"/>
<path fill-rule="evenodd" clip-rule="evenodd" d="M38.3778 20.2891C35.8005 20.3152 33.5497 18.4146 33.2022 15.7947C32.8264 12.9617 34.8183 10.3605 37.6513 9.9847C37.8022 9.96469 37.9211 9.94066 38.1929 9.88574L38.2135 9.88157C38.2208 9.88009 38.2312 9.87789 38.2446 9.87508C38.4259 9.83678 39.1454 9.68486 39.9053 9.69272C41.0208 9.70425 42.64 10.0454 43.9714 11.4245C45.0204 12.5113 45.3769 13.7502 45.5106 14.2605C46.2349 17.025 44.581 19.8532 41.8165 20.5775C40.6241 20.8898 39.4199 20.7598 38.3778 20.2891ZM40.4275 19.995C40.4284 19.9946 40.4146 19.9966 40.3835 20.0023C40.4111 19.9982 40.4266 19.9954 40.4275 19.995Z" fill="black"/>
<path fill-rule="evenodd" clip-rule="evenodd" d="M67.7535 33.7686C67.9822 33.754 68.3447 33.7945 68.8756 34.0114C69.6454 34.3258 70.4351 34.8866 71.0223 35.4738C72.6049 37.0564 75.1708 37.0564 76.7534 35.4738C78.336 33.8912 78.336 31.3253 76.7534 29.7427C75.541 28.5303 73.8726 27.2973 71.9401 26.5081C70.0102 25.7198 67.4796 25.2487 64.87 26.1521C63.1523 26.7466 61.9043 28.1304 61.3743 28.7202C61.1038 29.0214 60.8308 29.3441 60.617 29.5967C60.5632 29.6604 60.513 29.7196 60.4677 29.7729C60.1957 30.0925 60.0681 30.2312 60.0075 30.2895C58.3814 31.8554 57.478 33.1152 56.3963 34.8853C55.1838 36.8694 52.9282 37.6354 50.9735 36.9587C50.977 36.96 50.9788 36.9606 50.9789 36.9606C50.979 36.9603 50.8992 36.928 50.7301 36.8187C50.5412 36.6968 50.309 36.5235 50.0208 36.2851C49.7312 36.0456 49.4378 35.7849 49.0976 35.4812L49.0495 35.4383C48.7434 35.165 48.377 34.8379 48.0191 34.5436C45.9828 32.8694 43.5816 30.8977 40.3898 29.6701C37.2971 28.4806 34.1637 29.2782 31.9812 30.1886C29.6936 31.143 27.6531 32.5503 26.2563 33.6931C25.0892 34.648 24.6442 34.924 24.2997 35.0661C24.0369 35.1746 23.5768 35.3099 22.256 35.3099C22.0501 35.3099 21.7604 35.2651 21.2366 35.074C20.8198 34.922 20.5775 34.8151 20.2666 34.6779C20.0518 34.5831 19.8042 34.4738 19.4438 34.3253C19.3797 34.2653 19.2979 34.1853 19.1976 34.0826C19.0251 33.9059 18.8438 33.7091 18.6501 33.4958C18.6157 33.4579 18.5786 33.4169 18.5398 33.3741C18.3894 33.2079 18.2131 33.0132 18.0685 32.8605C17.9419 32.7268 17.8003 32.5623 17.5744 32.2958C17.5631 32.2824 17.5515 32.2688 17.5397 32.2549C17.3413 32.0207 17.0756 31.7071 16.7891 31.3986C16.1958 30.7596 15.2483 29.8411 13.9019 29.2427C12.271 28.5179 10.6401 28.6045 9.5114 28.8057C8.33581 29.0153 7.26807 29.4265 6.45507 29.8154C5.90445 30.0787 4.92876 30.654 4.08104 31.2493C3.64908 31.5527 3.12022 31.9513 2.6506 32.4002C2.41796 32.6226 2.11409 32.9381 1.83351 33.3321C1.59961 33.6605 1.10736 34.4166 0.974103 35.4827C0.696497 37.7035 2.27181 39.7289 4.49266 40.0065C6.12951 40.2111 7.66019 39.4092 8.46317 38.0841C8.53634 38.0279 8.62797 37.9601 8.73923 37.882C9.00269 37.697 9.29275 37.5118 9.54865 37.3583C9.67472 37.2827 9.78273 37.2206 9.86463 37.1752C9.92787 37.1401 9.95953 37.1238 9.96375 37.1216C10.1336 37.0408 10.3124 36.9666 10.4876 36.9062C10.5895 36.8711 10.6818 36.8436 10.7634 36.8226C10.7896 36.8495 10.8182 36.8796 10.8493 36.9131C11.0051 37.0809 11.1628 37.2665 11.3922 37.5371L11.4033 37.5502C11.6074 37.7909 11.8852 38.1187 12.1846 38.4347C12.2604 38.5147 12.3491 38.6126 12.4824 38.7597C12.5317 38.8141 12.5871 38.8753 12.6502 38.9448C12.8578 39.1734 13.119 39.4585 13.3972 39.7436C13.6688 40.0218 14.0073 40.3527 14.3757 40.6595C14.6842 40.9163 15.2823 41.3879 16.0605 41.6992C16.1628 41.7401 16.3586 41.8236 16.6021 41.9275C17.1531 42.1626 17.9485 42.502 18.4591 42.6882C19.4663 43.0557 20.7495 43.4149 22.256 43.4149C24.0863 43.4149 25.7423 43.2388 27.3913 42.5583C28.9587 41.9116 30.2214 40.9211 31.3887 39.9661C32.392 39.1452 33.758 38.2294 35.1017 37.6688C36.5505 37.0644 37.2733 37.1553 37.4803 37.2349C39.2887 37.9305 40.7612 39.069 42.8715 40.8041C43.0952 40.9881 43.3484 41.2136 43.7006 41.528L43.7008 41.5281C44.0281 41.8203 44.4308 42.1797 44.8553 42.5308C45.6394 43.1793 46.8548 44.1099 48.3223 44.6178C54.031 46.594 60.2 44.2042 63.3121 39.1116C64.153 37.7356 64.6438 37.0769 65.6295 36.1277C66.0174 35.7542 66.3846 35.326 66.6406 35.0251C66.7152 34.9375 66.7846 34.8554 66.8506 34.7775C67.0523 34.5393 67.2213 34.3398 67.4035 34.1369C67.5494 33.9745 67.6646 33.8548 67.7535 33.7686ZM8.25112 38.259C8.25181 38.2583 8.25252 38.2576 8.25326 38.2569L8.25112 38.259ZM67.9138 33.6244C67.9256 33.6151 67.9314 33.6111 67.9314 33.6115C67.9314 33.6118 67.9255 33.6164 67.9138 33.6244Z" fill="black"/>
</svg>
