<svg width="102" height="66" viewBox="0 0 102 66" fill="none" xmlns="http://www.w3.org/2000/svg">
<path fill-rule="evenodd" clip-rule="evenodd" d="M31.8674 3.73772C32.4442 2.45594 33.9508 1.88444 35.2326 2.46124C38.0704 3.73825 40.8884 5.20118 43.5356 7.13293C43.9361 7.42518 44.2951 7.69547 44.6354 7.95171C45.2451 8.41086 45.7949 8.82487 46.4164 9.23918C47.5859 10.0189 47.9019 11.599 47.1222 12.7685C46.3425 13.938 44.7624 14.2541 43.5929 13.4744C42.8568 12.9836 42.0976 12.413 41.414 11.8992C41.1022 11.6649 40.8062 11.4424 40.5352 11.2446C38.2836 9.60157 35.8158 8.30537 33.1438 7.10298C31.8621 6.52618 31.2906 5.0195 31.8674 3.73772Z" fill="black"/>
<path fill-rule="evenodd" clip-rule="evenodd" d="M73.3653 9.30186C72.9807 10.6538 71.573 11.438 70.2211 11.0535C70.0042 10.9918 69.7069 10.9513 69.1913 10.9113C69.1214 10.9059 69.0444 10.9004 68.9617 10.8944C68.5309 10.8634 67.9451 10.8213 67.3935 10.7269C67.3265 10.7154 67.1112 10.7054 66.669 10.7668C66.3728 10.8079 66.1224 10.8559 65.8305 10.9119C65.663 10.9441 65.4818 10.9788 65.2705 11.0164C64.8911 11.0838 64.5501 11.1366 64.2267 11.1867C63.6593 11.2746 63.1457 11.3542 62.5721 11.4899C61.7011 11.6959 61.2898 11.9173 61.135 12.0572C60.0923 12.9999 58.483 12.9188 57.5403 11.8762C56.5977 10.8335 56.6788 9.22413 57.7214 8.2815C58.858 7.25392 60.3122 6.79395 61.4003 6.53655C62.1607 6.35667 63.0457 6.21781 63.714 6.11295C63.9761 6.07184 64.2048 6.03596 64.3796 6.00488C64.4657 5.98956 64.5787 5.96805 64.7091 5.94321C65.063 5.8758 65.5454 5.78392 65.969 5.7251C66.5725 5.6413 67.4063 5.56507 68.2519 5.70973C68.5372 5.75855 68.8237 5.77976 69.2437 5.81084C69.3483 5.81858 69.4613 5.82694 69.5845 5.8365C70.1213 5.87809 70.8644 5.94448 71.6137 6.15762C72.9656 6.54219 73.7499 7.94991 73.3653 9.30186Z" fill="black"/>
<path fill-rule="evenodd" clip-rule="evenodd" d="M35.4467 41.5924C33.8412 41.8603 32.7568 43.3789 33.0247 44.9844C33.8082 49.6805 35.2755 53.9397 38.1922 58.0389C40.3709 61.1008 44.1617 62.524 47.5678 62.979C51.0277 63.4412 54.864 63.0186 57.7705 61.5769C60.5486 60.1989 63.5251 58.0512 65.7095 55.3108C67.9012 52.5611 69.4735 48.9642 68.7955 44.9006C68.5277 43.2951 67.0091 42.2108 65.4036 42.4786C63.7981 42.7465 62.7138 44.2651 62.9816 45.8706C63.2976 47.7643 62.6326 49.7146 61.1003 51.6369C59.5606 53.5686 57.3263 55.2177 55.1514 56.2965C53.5359 57.0978 50.9404 57.4829 48.3482 57.1366C45.7021 56.7832 43.8202 55.7817 42.9948 54.6217C40.7107 51.4115 39.5112 48.0461 38.8386 44.0144C38.5707 42.4089 37.0521 41.3246 35.4467 41.5924Z" fill="black"/>
<path fill-rule="evenodd" clip-rule="evenodd" d="M54.6814 37.652C54.6657 37.7856 54.645 37.9148 54.6198 38.0397C54.6453 37.9126 54.6659 37.7833 54.6814 37.652ZM51.786 41.3773C51.2147 41.5743 50.5948 41.6443 49.9595 41.5598C47.6415 41.2515 45.9973 39.002 46.287 36.5354C46.5015 34.7099 47.6011 33.6429 48.307 33.1682C48.9593 32.7295 49.5772 32.5653 49.8701 32.4983C50.492 32.3561 51.0765 32.3504 51.3635 32.3518C51.7123 32.3536 52.0426 32.3743 52.2509 32.3884C52.4416 32.4013 52.502 32.405 52.502 32.4058C52.502 32.4059 52.5013 32.406 52.4999 32.406C54.8004 32.4497 56.6527 34.4478 56.6527 36.9062C56.6527 39.3919 54.7589 41.4071 52.4229 41.4071C52.2148 41.4071 51.922 41.3871 51.786 41.3773ZM51.2679 41.3546C51.2675 41.3544 51.2769 41.3538 51.2975 41.3536C51.2785 41.3548 51.2683 41.3549 51.2679 41.3546Z" fill="black"/>
<path d="M3.46178 31.7172C3.46178 27.597 2.34766 22.7364 2.34766 18.6162C2.34766 17.3068 4.7195 17.6476 5.69002 17.2176C6.45456 16.8789 7.52606 16.9748 8.37217 16.6829C9.44143 16.3139 10.5131 15.9282 11.6114 15.6545C17.3369 14.2277 24.028 15.6545 29.8293 15.6545C32.2955 15.6545 34.6281 16.5514 37.0505 16.7446C38.0947 16.8278 39.2862 16.9539 40.2278 17.4233C41.4513 18.0331 43.2295 19.2168 43.5496 20.6523C43.8854 22.1588 45.0557 23.7269 45.0557 25.2798C45.0557 27.736 45.2839 30.2725 44.6843 32.6633C43.9814 35.4661 38.5229 35.6454 36.1427 35.6454C31.83 35.6454 28.1096 35.9453 23.8874 36.6738C17.9488 37.6984 12.1759 35.7774 6.35024 35.6454C3.60501 35.5832 3.46178 34.4258 3.46178 31.7172Z" fill="black"/>
<path d="M42.7079 25.2797C42.7079 25.0364 42.6084 24.654 42.2738 23.8794C42.0445 23.3487 41.6163 22.4604 41.3581 21.5527L41.2587 21.1629C41.2603 21.1701 41.1807 20.9273 40.6915 20.504C40.3585 20.2158 39.9554 19.949 39.5649 19.729L39.1812 19.5256C38.8229 19.3471 38.3122 19.2373 37.6188 19.1572L36.8636 19.0854C35.4679 18.974 34.0989 18.6594 32.9791 18.4265C31.7914 18.1795 30.7994 18.003 29.83 18.003C26.8527 18.003 23.4733 17.6304 20.5583 17.4634C17.6895 17.2991 15.0381 17.3066 12.6532 17.8226L12.1793 17.9327C11.6932 18.0539 11.2122 18.1999 10.7133 18.3638L9.1387 18.9019C8.42128 19.1495 7.65044 19.2217 7.27366 19.2657C7.03861 19.2932 6.88665 19.3135 6.76307 19.3376L6.6423 19.3651C6.32114 19.5074 6.00812 19.5894 5.76787 19.6418C5.52149 19.6955 5.27905 19.7319 5.07689 19.7595C4.94332 19.7778 4.82918 19.7944 4.72834 19.8069C4.80439 21.3731 5.01125 23.0671 5.23587 24.8777C5.51015 27.0886 5.81067 29.4846 5.81067 31.7172C5.81067 32.4016 5.82055 32.857 5.85959 33.197C5.86209 33.2187 5.86775 33.2389 5.87029 33.2581C5.99369 33.275 6.16693 33.2925 6.40382 33.2979L7.55953 33.3453C10.2566 33.5015 12.9579 33.9587 15.3713 34.264C18.2309 34.6259 20.8754 34.8113 23.4888 34.3604L25.1032 34.0989C28.8234 33.5355 32.26 33.2979 36.1436 33.2979C37.3103 33.2979 39.0481 33.2495 40.5264 32.9157C41.267 32.7484 41.7994 32.5384 42.1301 32.3287C42.2846 32.2307 42.3586 32.1559 42.3884 32.1192L42.4068 32.0917L42.4939 31.7126C42.8882 29.8157 42.7079 27.8623 42.7079 25.2797ZM47.4042 25.2797C47.4042 27.3024 47.6251 30.0958 47.0816 32.7139L46.9624 33.2352C46.5981 34.6868 45.6347 35.6671 44.6463 36.2942C43.6815 36.9063 42.5689 37.2679 41.5598 37.4958C39.5386 37.9522 37.3571 37.9941 36.1436 37.9941C32.4802 37.9941 29.276 38.2159 25.7972 38.7432L24.2868 38.9878C20.962 39.5614 17.7504 39.299 14.7827 38.9236C12.0972 38.5838 9.72083 38.1742 7.32564 38.0354L6.29681 37.9926C4.71419 37.9566 2.88701 37.5982 1.86046 35.8769C1.42664 35.1491 1.26871 34.3709 1.19546 33.7336C1.12187 33.0929 1.11444 32.387 1.11444 31.7172C1.11443 29.8296 0.857575 27.735 0.5748 25.4555C0.300529 23.2447 0 20.8485 0 18.616C7.43623e-05 17.4069 0.625404 16.4915 1.42783 15.9545C2.0804 15.518 2.8038 15.3575 3.22866 15.2788C3.65493 15.2 4.20459 15.1399 4.44094 15.1076C4.81641 15.0564 4.83753 15.0273 4.73904 15.0709L5.02644 14.9563C5.69638 14.7141 6.36492 14.6425 6.72791 14.6001C7.28949 14.5344 7.47823 14.5084 7.60692 14.464L9.24877 13.9015C9.82744 13.7119 10.4314 13.5281 11.0435 13.3756L11.6504 13.2349C14.6877 12.5768 17.8583 12.6047 20.8273 12.7748C24.1393 12.9645 27.0061 13.3068 29.83 13.3068C31.3265 13.3068 32.734 13.5784 33.9346 13.8281C35.2029 14.0919 36.2119 14.3226 37.2382 14.4044L38.0912 14.4824C39.0376 14.5875 40.2211 14.7962 41.2755 15.3216L41.8534 15.6289C42.4607 15.97 43.1412 16.4137 43.7643 16.9528C44.5501 17.6327 45.5202 18.6991 45.8418 20.1417L45.9442 20.501C46.0725 20.8739 46.2795 21.3108 46.5848 22.0175C46.9192 22.7916 47.4041 23.9703 47.4042 25.2797Z" fill="black"/>
<path d="M58.8926 32.8727C58.8926 28.7525 57.8086 23.8919 57.8086 19.7717C57.8086 18.4623 60.1163 18.8031 61.0606 18.3731C61.8045 18.0344 62.847 18.1304 63.6703 17.8384C64.7106 17.4694 65.7533 17.0838 66.8219 16.8101C72.3927 15.3832 78.903 16.8101 84.5475 16.8101C86.9471 16.8101 89.2166 17.7069 91.5735 17.9001C92.5895 17.9834 93.7488 18.1095 94.665 18.5788C95.8554 19.1886 97.5856 20.3723 97.8969 21.8078C98.2237 23.3143 99.3624 24.8824 99.3624 26.4353C99.3624 28.8915 99.5844 31.4281 99.001 33.8188C98.3171 36.6216 93.0061 36.801 90.6903 36.801C86.4941 36.801 82.8743 37.1008 78.7661 37.8293C72.9881 38.8539 67.3712 36.9329 61.703 36.801C59.032 36.7388 58.8926 35.5813 58.8926 32.8727Z" fill="black"/>
<path d="M97.0137 26.4351C97.0137 26.1778 96.912 25.7862 96.5872 25.0134C96.3629 24.4798 95.9474 23.5956 95.6975 22.6928L95.6012 22.3061C95.5977 22.2955 95.5767 22.2353 95.5003 22.1257C95.4067 21.9915 95.2595 21.8249 95.0493 21.638C94.7284 21.3527 94.3401 21.0885 93.9639 20.8706L93.5939 20.6688C93.2606 20.4981 92.7802 20.392 92.1126 20.3126L91.3819 20.2408C90.0135 20.1286 88.6704 19.8109 87.5845 19.5788C86.4292 19.3319 85.4757 19.1584 84.547 19.1584C81.646 19.1584 78.3438 18.7851 75.5183 18.6188C72.73 18.4546 70.1644 18.4626 67.861 18.975L67.4039 19.085C66.9339 19.2054 66.4688 19.3498 65.9852 19.5131L64.455 20.0512C63.7431 20.3037 62.9784 20.3761 62.6159 20.4196C62.3605 20.4503 62.2114 20.4743 62.1282 20.4899L62.0335 20.5098C61.7125 20.656 61.4004 20.7408 61.1621 20.7942C60.9177 20.8489 60.6783 20.8871 60.4803 20.9149C60.3696 20.9305 60.2729 20.9435 60.1868 20.9547C60.2605 22.5271 60.4616 24.2269 60.6805 26.0407C60.9475 28.2526 61.2401 30.6447 61.2401 32.8726C61.2401 33.5569 61.2505 34.016 61.289 34.36C61.2913 34.3812 61.2957 34.4008 61.2982 34.4197C61.4143 34.434 61.5645 34.4488 61.7568 34.4533L62.885 34.5007C65.5172 34.6574 68.1542 35.1166 70.4949 35.421C73.2744 35.7824 75.832 35.9648 78.3556 35.5173L79.9287 35.2543C83.5548 34.6899 86.9046 34.4533 90.6894 34.4533C91.8228 34.4533 93.5013 34.4046 94.9255 34.0742C95.6384 33.9087 96.1464 33.7036 96.4572 33.5009C96.6017 33.4067 96.6696 33.3341 96.6973 33.2991C96.7175 33.2734 96.7183 33.2647 96.7187 33.2624L96.8043 32.8818C97.19 30.9756 97.0137 29.0108 97.0137 26.4351ZM101.71 26.4351C101.71 28.4649 101.923 31.2467 101.397 33.8556L101.282 34.3753C100.931 35.8124 99.9978 36.7973 99.0209 37.4343C98.0714 38.0533 96.9775 38.4184 95.9879 38.6481C94.0069 39.1079 91.8715 39.1495 90.6894 39.1495C87.1314 39.1495 84.0207 39.3708 80.6426 39.8971L79.175 40.1417C75.9209 40.7186 72.7799 40.4533 69.8896 40.0775C67.2695 39.7367 64.967 39.3291 62.645 39.1908L61.6482 39.148C60.0793 39.1115 58.2689 38.7405 57.2639 37.0078C56.8443 36.2845 56.6924 35.5133 56.6218 34.8813C56.5506 34.2446 56.5438 33.5426 56.5438 32.8726C56.5438 30.9804 56.2945 28.8818 56.0195 26.6033C55.7525 24.3914 55.46 21.9993 55.46 19.7714C55.46 18.5912 56.0536 17.6763 56.8526 17.1268C57.502 16.6803 58.2221 16.5155 58.6412 16.4358C59.0599 16.3561 59.6042 16.2944 59.8275 16.263C60.192 16.2119 60.1979 16.1853 60.0874 16.2355L60.3717 16.1193C61.0387 15.8714 61.7031 15.7993 62.0549 15.757C62.6056 15.6908 62.774 15.6649 62.885 15.6255L64.4855 15.063C65.0502 14.8729 65.6407 14.6888 66.239 14.5356L66.8321 14.3934C69.8045 13.7315 72.9032 13.7599 75.795 13.9302C79.0283 14.1206 81.8036 14.4622 84.547 14.4622C86.0176 14.4622 87.3992 14.7368 88.5675 14.9865C89.8049 15.251 90.7759 15.4787 91.7641 15.5598L92.5987 15.6378C93.5264 15.7436 94.6946 15.956 95.7357 16.4893L96.3013 16.7966C96.896 17.1398 97.5616 17.5877 98.1709 18.1296C98.9428 18.8161 99.8819 19.881 100.192 21.3093L100.293 21.6732C100.419 22.05 100.62 22.4899 100.917 23.1943C101.243 23.9702 101.71 25.1396 101.71 26.4351Z" fill="black"/>
<path d="M59.2533 23.4438L59.5728 23.4607C61.1516 23.6209 62.3841 24.9536 62.3841 26.5747C62.3841 28.1958 61.1516 29.5284 59.5728 29.6887L59.2533 29.7055H45.6767C43.9476 29.7055 42.5459 28.3038 42.5459 26.5747C42.5459 24.8456 43.9476 23.4438 45.6767 23.4438H59.2533Z" fill="black"/>
</svg>
