<svg width="1208" height="311" viewBox="0 0 1208 311" fill="none" xmlns="http://www.w3.org/2000/svg">
<path d="M1203.89 293V285.192H1199.09L1194.2 293H1189.75L1195.09 284.744C1192.21 283.912 1190.58 281.736 1190.58 278.12C1190.58 273.544 1193.46 271.24 1198.26 271.24H1207.8V293H1203.89ZM1194.55 278.216C1194.55 280.584 1195.67 281.736 1198.55 281.736H1203.89V274.696H1198.55C1195.7 274.696 1194.55 275.752 1194.55 278.216Z" fill="black"/>
<path d="M1167 293V271.24H1170.87V287.624L1181.65 271.24H1185.91V293H1182.04V276.52L1171.13 293H1167Z" fill="black"/>
<path d="M1143.47 293V271.24H1147.37V280.232H1157.96V271.24H1161.87V293H1157.96V283.848H1147.37V293H1143.47Z" fill="black"/>
<path d="M1118.77 293L1126.93 271.24H1131.98L1140.21 293H1136.05L1134.03 287.496H1124.81L1122.86 293H1118.77ZM1126.09 283.976H1132.75L1129.39 274.728L1126.09 283.976Z" fill="black"/>
<path d="M1099.84 293V271.24H1109.41C1113.95 271.24 1116.32 273.288 1116.32 277.064C1116.32 279.24 1115.42 281.16 1113.18 281.928C1115.68 282.536 1116.9 284.392 1116.9 286.92C1116.9 290.92 1114.24 293 1109.44 293H1099.84ZM1103.68 289.672H1108.96C1111.78 289.672 1113.02 288.68 1113.02 286.696C1113.02 284.584 1111.87 283.624 1108.96 283.624H1103.68V289.672ZM1103.68 280.392H1108.86C1111.52 280.392 1112.48 279.272 1112.48 277.448C1112.48 275.528 1111.62 274.568 1108.86 274.568H1103.68V280.392Z" fill="black"/>
<path d="M1084.98 293.32C1078.64 293.32 1074.29 289.48 1074.29 282.12C1074.29 274.76 1078.64 270.92 1084.98 270.92C1091.34 270.92 1095.7 274.76 1095.7 282.12C1095.7 289.48 1091.34 293.32 1084.98 293.32ZM1078.26 282.12C1078.26 286.856 1080.69 289.832 1084.98 289.832C1089.3 289.832 1091.7 286.856 1091.7 282.12C1091.7 277.384 1089.3 274.408 1084.98 274.408C1080.69 274.408 1078.26 277.384 1078.26 282.12Z" fill="black"/>
<path d="M1062.35 293.32C1056.81 293.32 1053.58 290.984 1052.94 286.44L1056.78 285.832C1057.23 288.36 1059.02 289.832 1062.35 289.832C1065.55 289.832 1067.12 288.616 1067.12 286.536C1067.12 284.648 1065.84 283.656 1062.96 283.656H1059.69V280.328H1062.99C1065.68 280.328 1066.73 279.304 1066.73 277.512C1066.73 275.592 1065.26 274.408 1062.41 274.408C1059.28 274.408 1057.61 275.944 1056.97 278.376L1053.13 277.704C1054 273.448 1057.13 270.92 1062.41 270.92C1067.47 270.92 1070.64 273.064 1070.64 277.16C1070.64 279.592 1069.45 281.224 1067.15 281.928C1069.64 282.568 1071.05 284.104 1071.05 286.824C1071.05 290.856 1068.08 293.32 1062.35 293.32Z" fill="black"/>
<path d="M1029.86 293L1038.02 271.24H1043.08L1051.3 293H1047.14L1045.12 287.496H1035.91L1033.96 293H1029.86ZM1037.19 283.976H1043.84L1040.48 274.728L1037.19 283.976Z" fill="black"/>
<path d="M1012.93 293V271.24H1022.25C1027.21 271.24 1029.83 273.352 1029.83 278.184C1029.83 282.856 1027.17 285.256 1022.21 285.256H1016.84V293H1012.93ZM1016.84 281.832H1021.89C1024.74 281.832 1025.93 280.616 1025.93 278.248C1025.93 275.784 1024.71 274.664 1021.89 274.664H1016.84V281.832Z" fill="black"/>
<path d="M991.935 293V271.24H1007.49V274.76H995.839V279.912H1001.31C1006.33 279.912 1008.86 281.704 1008.86 286.44C1008.86 290.984 1006.3 293 1001.34 293H991.935ZM995.839 289.576H1001.09C1003.84 289.576 1004.96 288.648 1004.96 286.472C1004.96 284.232 1003.84 283.304 1001.09 283.304H995.839V289.576Z" fill="black"/>
<path d="M977.069 293.32C970.733 293.32 966.381 289.48 966.381 282.12C966.381 274.76 970.733 270.92 977.069 270.92C983.437 270.92 987.789 274.76 987.789 282.12C987.789 289.48 983.437 293.32 977.069 293.32ZM970.349 282.12C970.349 286.856 972.781 289.832 977.069 289.832C981.389 289.832 983.789 286.856 983.789 282.12C983.789 277.384 981.389 274.408 977.069 274.408C972.781 274.408 970.349 277.384 970.349 282.12Z" fill="black"/>
<path d="M946.969 293.32C940.633 293.32 936.569 289.32 936.569 282.152C936.569 274.76 940.825 270.92 947.001 270.92C952.537 270.92 955.705 273.544 956.537 278.12L952.729 278.76C952.057 276.232 950.425 274.408 947.001 274.408C942.905 274.408 940.537 277.32 940.537 282.152C940.537 286.92 942.905 289.832 946.937 289.832C950.457 289.832 952.153 288.04 952.761 285.448L956.601 286.088C955.673 290.76 952.505 293.32 946.969 293.32Z" fill="black"/>
<path d="M917.06 293V271.24H920.964V280.2H924.484L930.436 271.24H935.012L927.716 281.768L935.3 293H930.468L924.42 283.72H920.964V293H917.06Z" fill="black"/>
<path d="M896.997 293V271.24H912.517V274.696H900.901V280.36H912.069V283.72H900.901V289.544H912.421V293H896.997Z" fill="black"/>
<path d="M870.694 297.576V289.352H872.87C874.246 288.136 875.238 285.576 875.334 282.6C875.462 279.24 875.494 275.656 875.494 271.24H890.822V289.352H893.83V297.576H890.054V293H874.47V297.576H870.694ZM877.19 289.352H886.918V274.888H879.27C879.238 277.288 879.174 280.36 879.078 282.856C878.95 285.416 878.406 287.592 877.19 289.352Z" fill="black"/>
<path d="M849.435 293V271.24H853.339V280.232H863.931V271.24H867.835V293H863.931V283.848H853.339V293H849.435Z" fill="black"/>
<path d="M840.423 293V285.192H835.623L830.727 293H826.279L831.623 284.744C828.743 283.912 827.111 281.736 827.111 278.12C827.111 273.544 829.991 271.24 834.791 271.24H844.327V293H840.423ZM831.079 278.216C831.079 280.584 832.199 281.736 835.079 281.736H840.423V274.696H835.079C832.231 274.696 831.079 275.752 831.079 278.216Z" fill="black"/>
<path d="M944.695 261V257.288H945.783C947.671 257.288 948.887 256.584 948.983 253.544C949.079 250.152 949.143 244.136 949.143 239.24H964.823V261H960.919V242.888H952.951C952.919 246.376 952.887 251.08 952.791 254.056C952.631 259.112 950.711 261 946.359 261H944.695Z" fill="black"/>
<path d="M922.204 261L930.364 239.24H935.42L943.644 261H939.484L937.468 255.496H928.252L926.3 261H922.204ZM929.532 251.976H936.188L932.828 242.728L929.532 251.976Z" fill="black"/>
<path d="M900.528 261V239.24H904.432V248.232H915.024V239.24H918.928V261H915.024V251.848H904.432V261H900.528Z" fill="black"/>
<path d="M879.841 261V239.24H889.153C894.113 239.24 896.737 241.352 896.737 246.184C896.737 250.856 894.081 253.256 889.121 253.256H883.745V261H879.841ZM883.745 249.832H888.801C891.649 249.832 892.833 248.616 892.833 246.248C892.833 243.784 891.617 242.664 888.801 242.664H883.745V249.832Z" fill="black"/>
<path d="M860.206 261V257.416H862.126C863.822 257.416 864.782 257 865.518 255.912L857.102 239.24H861.486L867.534 251.848L873.07 239.24H877.102L869.486 256.072C867.918 259.56 866.382 261 862.574 261H860.206Z" fill="black"/>
<path d="M825.64 261L832.424 249.864L825.864 239.24H830.408L835.688 248.2H838.92V239.24H842.76V248.2H846.024L851.304 239.24H855.848L849.288 249.864L856.072 261H851.304L845.928 251.72H842.76V261H838.92V251.72H835.784L830.408 261H825.64Z" fill="black"/>
<path d="M716.255 293.677L747.96 95.7528H660.067V43.9767H884.797V95.7528H803.408L771.704 293.677H716.255Z" fill="black"/>
<path d="M411.639 293.677V43.9767H466.72V212.892L580.921 43.9767H638.205V293.677H583.124V124.028L468.188 293.677H411.639Z" fill="black"/>
<path d="M103.345 35.8259C104.368 35.3145 118.857 -1.21017 123.8 0.030957C124.482 7.48289 134.287 16.5602 138.943 24.5632C140.876 27.8864 142.852 33.5972 145.752 36.0827C146.642 36.8463 153.528 31.8726 154.852 31.2106C156.014 30.6298 179.448 20.6799 179.731 21.9489C181.382 29.3798 177.923 38.5845 176.86 45.7956C176.302 49.5816 175.117 54.0937 175.117 57.8972C175.117 59.9403 184.359 58.6222 185.895 58.446C191.911 57.7556 197.869 56.1203 203.579 54.1218C204.725 53.7205 208.309 52.0293 209.645 52.4108C211.242 53.2117 202.35 72.826 201.527 74.1774C198.97 79.291 194.879 83.8937 192.607 90.489C194.879 92.5868 200.511 96.6674 204.321 99.5886C210.774 104.536 216.799 110.067 223.101 115.208C224.233 116.131 227.027 117.434 224.102 117.434C219.638 117.434 215.198 117.398 210.743 117.757C203.153 118.367 195.527 118.917 187.96 119.758C187.298 119.831 182.736 120.34 183.152 120.758L183.3 120.906C191.161 128.767 198.853 136.458 204.966 145.863C205.264 146.321 207.672 149.199 207.547 149.638C207.228 150.757 202.507 148.677 201.771 148.509C195.799 147.152 188.899 148.573 182.862 148.767C178.399 148.911 174.063 149.575 169.631 149.929C168.758 149.999 158.086 150.377 161.641 151.393C165.173 152.402 168.395 153.404 171.868 154.972C178.017 157.749 180.102 156.746 186.573 158.041C190.122 158.751 194.689 160.231 198.202 161.109C199.3 161.384 209.115 161.945 209.948 162.869C211.662 164.774 196.772 172.001 195.902 172.871C191.631 177.142 186.714 176.616 184.068 181.908C182.508 185.027 195.974 194.492 198.202 196.494C202.981 200.79 207.357 205.679 212.4 209.66C213.942 210.877 221.922 219.663 220.661 219.663C219.636 219.663 218.99 219.159 218.08 218.824C215.701 217.948 212.425 218.172 209.948 218.05C204.196 217.765 198.409 217.921 192.651 217.921C191.657 217.92 186.34 217.092 185.488 218.05C185.001 218.597 186.302 226.303 186.573 226.77C188.383 229.896 188.435 233.617 188.896 237.225C189.905 245.115 191.514 246.263 192.2 254.191C192.776 260.85 194.443 267.562 194.071 274.263C193.987 275.767 192.182 274.052 191.748 273.811C188.745 272.143 185.534 271.515 182.196 270.778C176.144 269.442 169.877 268.96 163.802 267.615C159.35 266.629 154.632 265.714 150.056 265.55C147.017 265.442 149.909 300.404 148.055 306.661C146.937 310.435 147.79 310.929 144.248 307.501C140.526 303.899 137.781 302.861 133.134 299.957C128.488 297.053 124.422 294.148 120.356 290.663C115.709 284.855 114.088 281.994 112.224 283.112C105.765 286.988 101.768 291.825 94.2173 298.215C90.5412 300.462 87.3268 303.569 83.8394 306.088C82.236 307.246 80.9434 308.955 79.1919 309.831C75.0789 311.887 76.2876 304.891 76.2877 302.732C76.2877 289.731 77.6271 284.431 79.6441 271.617C80.1344 268.502 80.2252 265.465 80.2252 262.323C80.2241 261.789 77.2435 263.166 76.7544 263.382C72.7539 265.142 71.3476 267.248 67.5113 269.358C60.3282 273.309 50.9769 279.623 42.4703 280.071C42.0551 280.093 40.6847 280.305 40.4693 279.813C38.9916 276.436 40.1242 270.381 40.2759 266.841C40.5405 260.667 41.2473 254.474 41.7603 248.318C41.7971 247.878 42.5067 241.142 41.8892 240.832C41.6722 240.723 37.8563 241.155 37.6617 241.155C33.6939 241.155 29.7219 241.102 25.7544 241.155C18.9336 241.245 14.8804 239.859 6.69878 239.347C5.31068 239.366 1.12408 239.154 0.0513223 237.813C-0.670644 236.911 6.45919 229.42 6.69878 229.12C15.2664 218.392 22.0394 212.756 29.5621 204.238C30.4069 203.063 31.7554 201.506 31.7554 200.995C31.7508 199.97 14.3686 190.767 10.7896 187.188C9.7667 186.165 5.16504 182.064 5.67632 181.052C6.18767 180.04 16.1712 179.518 17.4371 179.518C22.0393 179.518 24.0849 179.715 30.2212 179.007C43.5165 177.472 39.426 177.984 44.5396 177.472C46.8153 177.471 32.1351 162.885 34.3121 162.643L65.5054 160.087C65.5054 158.411 35.7242 147.122 32.7779 146.28C32.1411 146.098 54.7661 132.985 61.5289 129.923C62.9482 128.383 28.9417 127.304 19.8043 123.243C18.0966 122.483 26.4754 116.496 26.775 116.272C32.3237 112.129 37.6469 107.949 42.5543 103.042C44.4559 101.14 43.5829 100.73 42.5543 99.2341C38.9122 93.9364 36.7527 89.2693 34.9068 83.2282C32.9535 76.8354 31.8209 70.2147 28.8082 64.1892C28.274 63.1208 27.67 60.6984 26.7105 59.9304C26.1906 59.5145 33.4024 60.6551 34.3121 60.8825C41.3412 62.6398 44.953 62.6894 51.1871 63.9509C56.2029 64.7348 61.9256 65.9965 64.9937 67.0192C66.5279 67.5306 70.2706 68.6812 70.564 67.53C71.9622 62.0446 70.9643 50.082 72.1451 44.5192C74.2585 34.5641 74.1983 23.2996 75.732 22.531C76.2686 22.2626 83.6615 25.0539 90.5621 28.6667C96.8115 31.9386 102.615 36.0675 103.345 35.8259ZM119.198 189.234C119.198 187.887 110.328 163.622 109.703 166.756C108.965 170.457 108.86 172.788 107.948 176.45C106.825 180.954 104.921 185.652 104.921 190.265C104.442 189.304 101.947 188.417 100.872 187.926C96.191 185.792 89.9374 186.429 85.6587 183.698C82.0711 181.408 85.4363 187.308 85.8472 187.926C88.765 192.317 96.9224 200.345 100.424 204.298C93.3056 204.298 86.184 203.872 79.0894 203.872C78.703 203.872 77.1299 203.783 77.2759 203.967C78.4912 205.49 79.5059 206.756 81.2085 207.912C84.6355 210.237 97.6571 214.291 100.872 214.291C98.0775 217.577 88.0052 232.7 88.4146 233.402C89.0339 233.718 106.936 221.313 107.464 221.306C109.36 221.306 107.465 234.366 107.464 235.315C107.464 237.375 107.301 243.461 107.865 241.481C108.915 237.795 111.136 234.308 113.184 231.092L113.187 231.087C115.223 227.89 118.25 225.095 118.486 221.306C118.507 221.25 123.406 226.19 123.996 226.929C124.459 227.51 128.205 233.291 128.235 232.788C128.431 229.443 127.164 216.71 125.845 212.757C130.448 213.779 134.539 214.291 137.607 214.802C141.187 215.314 146.984 215.771 149.64 214.291C150.795 213.647 148.651 213.042 148.157 212.708C145.135 210.66 141.727 209.176 138.667 207.061C135.206 204.67 132.009 201.893 128.329 199.809C127.004 199.059 126.295 199.439 127.598 198.132C128.658 197.068 129.816 196.235 130.966 195.273C135.752 191.272 145.035 181.533 145.277 180.541C142.719 179.519 124.311 186.166 119.198 189.234ZM114.388 96.3259C112.263 96.3259 110.488 96.665 108.499 97.5603C108.105 97.7371 107.744 97.87 107.364 98.0075C107.341 98.0156 107.318 98.0237 107.295 98.0319C106.95 98.1569 106.55 98.3008 106.167 98.4792C105.251 98.9053 104.434 99.5195 103.694 100.652C101.689 103.718 102.404 106.812 103.565 109.424C104.009 110.424 104.753 111.308 105.464 112.015C106.192 112.738 106.983 113.367 107.626 113.843C110.212 115.759 113.139 117.78 117.043 117.78C118.043 117.78 119.024 117.818 120.05 117.858C120.763 117.886 121.497 117.914 122.275 117.931C122.734 117.942 123.199 117.946 123.668 117.944C123.823 117.992 123.989 118.018 124.161 118.018C124.355 118.018 124.541 117.983 124.715 117.922C125.757 117.885 126.804 117.8 127.829 117.621C130.784 117.104 133.444 116.863 136.442 116.814C138.211 116.786 140.647 116.386 142.799 115.463C144.896 114.563 147.154 112.97 147.745 110.312C147.964 109.327 147.744 108.245 147.459 107.354C147.155 106.407 146.691 105.414 146.165 104.494C145.637 103.571 145.022 102.677 144.393 101.933C143.851 101.293 143.2 100.645 142.5 100.239C139.84 97.9659 135.782 96.8093 132.553 96.8093C131.363 96.8093 130.193 96.8296 129.038 96.8503C126.031 96.9042 123.129 96.9562 120.248 96.6315C118.272 96.409 116.35 96.3259 114.388 96.3259ZM116.776 107.525C118.203 107.599 119.625 107.71 121.044 107.873C121.433 107.917 121.824 107.963 122.216 108.009C122.225 108.198 122.234 108.386 122.243 108.574V108.585C122.336 110.606 122.427 112.598 122.464 114.578C122.426 114.577 122.387 114.578 122.349 114.577C121.699 114.562 121.006 114.535 120.302 114.508C119.204 114.467 118.078 114.425 117.043 114.425C116.918 114.425 116.795 114.42 116.673 114.415C116.677 112.132 116.724 109.839 116.776 107.525ZM125.593 108.4C127.984 108.67 130.415 108.911 132.849 109.022V113.615C130.999 113.751 129.182 113.977 127.251 114.315C126.786 114.396 126.309 114.453 125.819 114.496C125.781 112.471 125.688 110.452 125.596 108.458L125.595 108.43C125.595 108.42 125.594 108.41 125.593 108.4ZM107.209 107.392C109.299 107.383 111.368 107.376 113.422 107.415C113.377 109.445 113.335 111.483 113.323 113.519C112.122 112.941 110.932 112.117 109.623 111.147C109.048 110.722 108.398 110.2 107.829 109.634C107.243 109.053 106.832 108.511 106.631 108.06C106.53 107.833 106.439 107.611 106.355 107.394C106.64 107.393 106.924 107.394 107.209 107.392ZM144.104 107.93C144.163 108.084 144.217 108.233 144.263 108.378C144.496 109.104 144.491 109.486 144.469 109.585C144.232 110.652 143.227 111.628 141.476 112.379C139.781 113.105 137.785 113.436 136.387 113.459C136.326 113.46 136.265 113.461 136.205 113.463V109.077C137.377 109.032 138.504 108.866 139.527 108.715L139.56 108.71C140.804 108.525 141.896 108.366 142.98 108.366C143.413 108.366 143.806 108.2 144.104 107.93ZM136.439 100.781C137.96 101.248 139.393 101.964 140.42 102.878L140.586 103.025L140.786 103.124C140.947 103.204 141.319 103.495 141.832 104.1C142.063 104.374 142.298 104.685 142.53 105.018C141.341 105.055 140.188 105.225 139.138 105.381L139.069 105.39C138.051 105.541 137.121 105.674 136.205 105.717V102.519C136.205 102.331 136.191 102.132 136.182 101.993C136.181 101.975 136.18 101.959 136.179 101.943C136.169 101.778 136.165 101.671 136.167 101.584L136.245 101.452C136.358 101.241 136.422 101.012 136.439 100.781ZM132.553 100.165C132.732 100.165 132.913 100.169 133.096 100.178C132.86 100.687 132.818 101.186 132.811 101.508C132.805 101.753 132.82 101.988 132.831 102.153C132.831 102.167 132.832 102.18 132.833 102.193C132.843 102.358 132.849 102.445 132.849 102.519V105.664C130.399 105.546 127.935 105.291 125.449 105.006C125.395 103.549 125.356 102.101 125.356 100.656C125.356 100.513 125.335 100.375 125.301 100.242C126.648 100.249 127.989 100.227 129.301 100.204C130.409 100.184 131.498 100.165 132.553 100.165ZM116.909 99.736C117.898 99.7806 118.88 99.8548 119.872 99.9665C120.602 100.049 121.338 100.106 122.078 100.149C122.027 100.309 122 100.479 122 100.656C122 101.978 122.031 103.299 122.076 104.614C121.86 104.589 121.644 104.564 121.427 104.539C119.903 104.364 118.374 104.248 116.846 104.171C116.876 102.698 116.901 101.219 116.909 99.736ZM113.553 99.7077C113.546 101.157 113.521 102.607 113.492 104.059C111.359 104.019 109.236 104.027 107.137 104.037C106.711 104.039 106.286 104.039 105.862 104.041C105.963 103.507 106.172 102.994 106.502 102.488C106.873 101.921 107.188 101.706 107.583 101.522C107.827 101.408 108.099 101.309 108.499 101.165L108.505 101.163C108.889 101.024 109.356 100.854 109.876 100.62C111.136 100.053 112.245 99.784 113.553 99.7077ZM123.887 86.362C123.588 86.3285 123.28 86.3304 123.016 86.3474C122.751 86.3644 122.447 86.4021 122.158 86.4714C122.016 86.5054 121.826 86.5591 121.627 86.6462C121.482 86.7091 121.067 86.899 120.732 87.3278C120.663 87.4158 120.602 87.5051 120.549 87.5944C119.925 87.9362 119.502 88.5999 119.502 89.362C119.502 89.4427 119.498 89.5222 119.492 89.6501C119.489 89.7025 119.486 89.7634 119.483 89.8356C119.474 90.0463 119.464 90.3356 119.482 90.6423C119.515 91.2112 119.656 92.2143 120.461 93.0153C121.087 93.6396 121.924 93.9646 122.596 94.1101C123.26 94.2537 124.194 94.3154 125.061 93.9519C125.751 93.6624 126.302 93.1655 126.68 92.6257C127.058 92.0873 127.36 91.3669 127.36 90.5524C127.36 89.3929 126.812 88.5828 126.377 88.0817C126.198 87.8766 126.002 87.684 125.87 87.5534C125.853 87.5371 125.837 87.5218 125.823 87.5075C125.668 87.3539 125.588 87.2699 125.533 87.2009C125.127 86.695 124.606 86.5261 124.461 86.4802C124.238 86.4099 124.032 86.3783 123.887 86.362ZM108.7 76.7282C108.253 76.6781 107.759 76.6788 107.311 76.7077C106.861 76.7367 106.372 76.7989 105.933 76.904C105.716 76.9559 105.461 77.0302 105.209 77.1403C105.012 77.2263 104.557 77.4416 104.201 77.8981C103.981 78.1799 103.828 78.4792 103.72 78.7673C102.83 78.9751 102.166 79.7735 102.166 80.7272C102.166 80.9385 102.155 81.1595 102.142 81.4411C102.138 81.5396 102.132 81.6457 102.127 81.7614C102.11 82.1703 102.095 82.6655 102.124 83.1735C102.179 84.145 102.413 85.5327 103.492 86.6071C104.378 87.49 105.646 88.0136 106.768 88.2565C107.882 88.4977 109.287 88.5562 110.493 88.0505C111.473 87.6394 112.29 86.9144 112.862 86.0983C113.433 85.2837 113.856 84.2385 113.856 83.1071C113.856 81.4731 113.098 80.309 112.383 79.488C112.081 79.1406 111.748 78.8122 111.478 78.5456C111.444 78.5124 111.412 78.4801 111.38 78.4489C111.07 78.1415 110.836 77.9021 110.645 77.6647C110.219 77.134 109.66 76.9448 109.463 76.8825C109.19 76.796 108.919 76.7528 108.7 76.7282ZM139.593 76.7282C139.146 76.6781 138.653 76.6788 138.205 76.7077C137.755 76.7367 137.266 76.7989 136.827 76.904C136.61 76.9559 136.354 77.0302 136.102 77.1403C135.905 77.2263 135.451 77.4416 135.094 77.8981C134.874 78.1799 134.722 78.4792 134.614 78.7673C133.723 78.9751 133.059 79.7735 133.059 80.7272C133.059 80.9385 133.049 81.1595 133.036 81.4411C133.031 81.5396 133.026 81.6457 133.021 81.7614C133.003 82.1703 132.988 82.6655 133.017 83.1735C133.073 84.145 133.307 85.5327 134.385 86.6071C135.272 87.49 136.539 88.0136 137.662 88.2565C138.776 88.4977 140.18 88.5562 141.386 88.0505C142.366 87.6394 143.183 86.9144 143.755 86.0983C144.326 85.2837 144.75 84.2385 144.75 83.1071C144.75 81.4731 143.991 80.309 143.277 79.488C142.975 79.1406 142.642 78.8122 142.372 78.5456C142.338 78.5124 142.305 78.4801 142.274 78.4489C141.963 78.1415 141.729 77.9021 141.539 77.6647C141.112 77.134 140.554 76.9448 140.357 76.8825C140.083 76.796 139.812 76.7528 139.593 76.7282Z" fill="black"/>
<path d="M367.195 93.5499H236.469V140.919H295.222C352.874 140.919 384.086 160.014 384.086 216.564C384.086 271.277 352.874 293.677 296.324 293.677H181.021V273.245C181.33 273.309 181.64 273.374 181.948 273.442C182.151 273.487 182.352 273.531 182.55 273.575C185.689 274.269 188.287 274.843 190.713 276.18C190.719 276.184 190.726 276.19 190.734 276.195C190.802 276.246 190.828 276.266 190.859 276.289C190.893 276.315 190.934 276.345 191.042 276.426C191.283 276.605 191.686 276.898 192.13 277.132C192.355 277.251 192.666 277.395 193.032 277.493C193.38 277.586 193.96 277.686 194.626 277.519C195.386 277.327 196.023 276.847 196.422 276.18C196.774 275.594 196.867 274.995 196.89 274.575C197.089 270.972 196.74 267.42 196.293 264.022C196.151 262.935 195.999 261.876 195.851 260.835C195.525 258.544 195.21 256.337 195.017 254.093C194.657 249.913 194.046 247.479 193.411 245.125C193.372 244.98 193.333 244.836 193.293 244.691C192.723 242.586 192.159 240.506 191.71 236.983C191.639 236.422 191.573 235.791 191.502 235.131C191.375 233.93 191.236 232.629 191.042 231.462C190.734 229.617 190.233 227.659 189.212 225.795C189.209 225.782 189.205 225.767 189.202 225.751C189.153 225.544 189.09 225.241 189.017 224.859C188.873 224.102 188.707 223.113 188.563 222.118C188.464 221.435 188.378 220.769 188.318 220.188C188.576 220.192 188.858 220.203 189.158 220.22C189.879 220.26 190.617 220.33 191.267 220.393C191.326 220.398 191.388 220.404 191.45 220.41C191.967 220.461 192.564 220.52 192.927 220.52C194.465 220.52 195.99 220.509 197.504 220.498C201.736 220.468 205.891 220.439 210.055 220.646C210.702 220.678 211.391 220.688 212.047 220.697L212.121 220.698C212.816 220.708 213.489 220.718 214.151 220.75C215.508 220.816 216.6 220.967 217.411 221.267C217.54 221.314 217.676 221.375 217.866 221.463C217.894 221.476 217.927 221.491 217.961 221.507C218.124 221.583 218.344 221.686 218.558 221.775C219.138 222.018 219.901 222.266 220.868 222.266C221.251 222.266 221.895 222.184 222.506 221.715C223.159 221.214 223.433 220.537 223.517 220.013C223.648 219.199 223.371 218.529 223.297 218.35L223.294 218.341C223.077 217.814 222.717 217.266 222.411 216.83C221.743 215.88 220.753 214.664 219.726 213.471C218.687 212.263 217.559 211.018 216.589 209.992C215.671 209.021 214.76 208.103 214.208 207.664C211.801 205.755 209.529 203.609 207.224 201.358C206.719 200.864 206.209 200.363 205.697 199.858C203.901 198.092 202.061 196.282 200.168 194.572C199.659 194.112 198.682 193.345 197.561 192.465C197.275 192.24 196.979 192.007 196.679 191.771C195.138 190.555 193.342 189.117 191.673 187.655C189.982 186.174 188.522 184.757 187.596 183.585C187.238 183.131 187.016 182.786 186.891 182.546C187.822 180.937 189.062 180.124 190.815 179.229C191.088 179.089 191.379 178.946 191.685 178.796C193.47 177.919 195.756 176.795 197.857 174.727C197.862 174.723 197.868 174.719 197.874 174.715C197.982 174.644 198.147 174.543 198.377 174.408C198.836 174.139 199.457 173.791 200.206 173.372L200.553 173.178C201.977 172.383 203.745 171.395 205.447 170.377C207.264 169.29 209.129 168.096 210.453 167.004C211.085 166.482 211.785 165.832 212.252 165.101C212.488 164.732 212.785 164.157 212.854 163.435C212.933 162.605 212.689 161.742 212.077 161.059C211.682 160.618 211.226 160.386 211.002 160.281C210.731 160.154 210.453 160.059 210.212 159.986C209.728 159.841 209.163 159.723 208.599 159.622C207.458 159.419 206.051 159.245 204.695 159.099C203.654 158.986 202.602 158.885 201.688 158.797C201.407 158.77 201.137 158.744 200.886 158.72C200.345 158.667 199.889 158.621 199.541 158.58C199.297 158.552 199.162 158.532 199.104 158.524C199.064 158.518 199.061 158.517 199.083 158.523C197.771 158.193 196.314 157.778 194.774 157.34C194.312 157.208 193.842 157.075 193.367 156.941C191.348 156.371 189.238 155.798 187.363 155.421C184.93 154.932 182.98 154.741 181.379 154.585C181.258 154.573 181.138 154.561 181.021 154.549V151.313C181.753 151.263 182.492 151.224 183.244 151.199C185.082 151.14 187.127 150.958 189.114 150.781C190.383 150.669 191.63 150.558 192.783 150.483C195.932 150.277 198.847 150.282 201.458 150.878C201.449 150.876 201.499 150.894 201.645 150.947C201.778 150.996 201.992 151.074 202.315 151.192C202.866 151.395 203.591 151.657 204.316 151.88C205.002 152.091 205.863 152.322 206.649 152.386C207.023 152.416 207.615 152.432 208.231 152.24C208.926 152.024 209.89 151.442 210.239 150.216C210.426 149.558 210.31 149.004 210.262 148.805C210.201 148.546 210.113 148.332 210.051 148.193C209.925 147.911 209.769 147.644 209.638 147.436C209.368 147.004 209.018 146.518 208.698 146.089C208.387 145.673 208.066 145.258 207.811 144.929L207.769 144.875C207.52 144.554 207.4 144.397 207.363 144.348C207.355 144.337 207.351 144.331 207.35 144.33C201.933 135.956 195.321 128.923 188.582 122.1C194.722 121.415 200.899 120.925 207.109 120.433C208.463 120.325 209.82 120.217 211.178 120.108C215.144 119.787 219.104 119.79 223.202 119.792C223.567 119.792 223.933 119.792 224.3 119.792C224.736 119.792 225.188 119.77 225.608 119.691C225.917 119.634 226.724 119.463 227.37 118.79C227.757 118.387 228.053 117.834 228.125 117.179C228.192 116.566 228.042 116.061 227.899 115.734C227.642 115.148 227.237 114.753 227.056 114.584C226.652 114.206 226.12 113.848 225.788 113.623L225.691 113.559C225.306 113.299 225.07 113.139 224.915 113.012C222.521 111.05 220.101 108.971 217.654 106.869C213.872 103.621 210.027 100.318 206.12 97.3077C204.985 96.434 203.73 95.4871 202.467 94.5333C200.047 92.706 197.596 90.8543 195.898 89.4503C196.869 87.0793 198.09 84.9441 199.391 82.8419C199.76 82.2457 200.143 81.6408 200.531 81.0294C201.748 79.1093 203.01 77.1179 204.028 75.0851C204.373 74.4701 205.11 72.8991 205.939 71.0606C206.871 68.9924 208.019 66.3546 209.093 63.7296C210.161 61.1184 211.18 58.4627 211.833 56.38C212.154 55.357 212.422 54.3637 212.544 53.5431C212.603 53.1512 212.654 52.6341 212.592 52.1104C212.548 51.7374 212.338 50.4241 211.022 49.7608L210.809 49.6534L210.58 49.587C209.618 49.311 208.626 49.4661 208.02 49.5909C207.315 49.7361 206.582 49.9679 205.934 50.1974C205.276 50.4304 204.636 50.6858 204.114 50.8976C204.011 50.9392 203.915 50.9786 203.826 51.0147C203.425 51.1777 203.158 51.2857 202.985 51.3468C197.392 53.3139 191.643 54.891 185.896 55.5538C185.758 55.5697 185.575 55.593 185.356 55.6202C184.393 55.74 182.722 55.9467 181.021 56.0528V43.9767H367.195V93.5499ZM236.469 245.941H291.183C317.989 245.94 328.638 237.861 328.638 217.298C328.638 196.734 317.989 188.656 291.183 188.656H236.469V245.941Z" fill="black"/>
</svg>
