<svg width="378" height="396" viewBox="0 0 378 396" fill="none" xmlns="http://www.w3.org/2000/svg">
<path d="M137.119 303.841C137.119 300.724 69.7979 285.309 64.3182 283.743C63.1337 283.405 73.4085 272.191 79.1151 268.387C92.4305 257.925 87.6226 261.404 95.4657 256.973C104.742 252.844 113.805 251.109 117.373 246.522C118.855 244.616 119.59 243.568 116.292 243.882C108.98 244.578 102.888 244.654 95.4657 243.221C77.3598 239.727 56.7632 241.652 39.7681 234.099C36.5908 232.686 52.175 221.55 52.7322 221.134C63.0527 213.428 72.954 205.654 82.0814 196.527C82.9898 195.618 83.534 195.19 83.8088 195.008C83.4147 195.132 82.5612 195.168 81.7213 193.946C74.9469 184.092 71.2903 170.911 67.8569 159.675C64.2238 147.785 62.117 135.471 56.5134 124.264C55.5198 122.277 54.3971 117.769 52.6121 116.341C51.6452 115.568 58.0624 118.619 59.7544 119.042C72.8281 122.311 86.2228 123.901 99.1868 127.565C107.333 129.867 115.718 132.855 123.434 136.328C124.578 136.842 127.99 138.889 128.536 136.748C131.137 126.545 131.981 115.464 134.178 105.118C138.109 86.6003 141.74 68.719 141.74 49.8403V43.5383C141.74 45.7429 142.775 48.4883 144.501 49.9003C152.007 56.0417 163.497 57.8535 172.35 61.2439C179.194 63.8649 184.827 67.2688 190.776 71.3871C192.067 72.2811 193.597 74.0175 193.597 71.4471C193.597 64.2151 199.628 56.4917 203.32 50.8606C212.879 36.2782 225.149 22.9872 232.969 7.34689C233.803 5.68004 235.73 0.621755 235.73 2.48535C235.73 20.7254 252.698 35.6752 261.358 50.5605C264.954 56.7417 268.629 67.3646 274.022 71.9873C275.679 73.4075 288.485 64.1556 290.947 62.9244C293.107 61.8446 336.697 43.3374 337.222 45.699C340.293 59.5202 333.857 76.6407 331.88 90.053C330.843 97.0947 328.639 105.486 328.639 112.56C328.639 116.361 345.829 113.908 348.686 113.58C359.875 112.296 370.956 109.255 381.576 105.538C383.709 104.792 390.374 101.647 392.86 102.357C398.872 104.075 371.701 145.283 370.172 147.791C368.169 151.079 354.738 169.964 361.17 173.179C369.21 177.2 375.87 184.671 382.956 190.105C394.96 199.307 406.166 209.592 417.887 219.154C419.992 220.871 425.189 223.295 419.748 223.295C411.444 223.295 403.187 223.229 394.9 223.895C380.783 225.031 366.601 226.053 352.527 227.616C351.295 227.753 342.808 228.701 343.584 229.477L343.86 229.753C358.481 244.374 372.787 258.679 384.157 276.172C384.71 277.023 389.191 282.379 388.958 283.194C388.364 285.275 379.584 281.405 378.215 281.093C367.108 278.569 354.273 281.211 343.044 281.574C334.744 281.841 326.679 283.075 318.436 283.734C316.811 283.864 296.961 284.568 303.574 286.457C310.143 288.334 316.136 290.198 322.596 293.115C334.033 298.28 337.91 296.415 349.946 298.822C356.547 300.142 365.042 302.895 371.575 304.528C373.618 305.039 391.875 306.083 393.422 307.802C396.611 311.345 368.917 324.785 367.298 326.404C359.354 334.347 350.209 333.369 345.287 343.213C342.387 349.014 367.432 366.618 371.575 370.342C380.465 378.331 388.604 387.425 397.984 394.829C400.852 397.094 415.694 413.435 413.349 413.435C411.442 413.435 410.24 412.499 408.547 411.875C404.123 410.245 398.03 410.662 393.422 410.434C382.724 409.906 371.962 410.194 361.252 410.194C359.405 410.194 349.512 408.652 347.928 410.434C347.022 411.453 349.443 425.785 349.946 426.653C353.312 432.468 353.41 439.388 354.267 446.099C356.143 460.774 359.136 462.909 360.412 477.655C361.484 490.04 364.585 502.523 363.893 514.987C363.737 517.786 360.379 514.595 359.572 514.147C353.987 511.045 348.014 509.876 341.806 508.505C330.549 506.02 318.894 505.126 307.595 502.623C299.313 500.789 290.539 499.086 282.027 498.782C276.374 498.58 281.753 563.611 278.306 575.246C276.226 582.267 277.813 583.184 271.224 576.807C264.301 570.108 259.197 568.178 250.555 562.776C241.912 557.375 234.35 551.973 226.787 545.491C218.144 534.687 215.129 529.367 211.662 531.446C199.648 538.655 192.216 547.651 178.172 559.535C171.334 563.716 165.355 569.495 158.868 574.18C155.886 576.334 153.483 579.513 150.225 581.142C142.575 584.967 144.824 571.952 144.824 567.938C144.824 543.756 147.314 533.899 151.066 510.066C151.978 504.272 152.146 498.624 152.146 492.78C152.146 491.786 151.135 494.661 150.225 495.061C142.784 498.335 135.635 501.94 128.499 505.864C115.138 513.213 97.7459 524.958 81.9238 525.791C81.1516 525.831 78.6033 526.226 78.2027 525.311C75.4542 519.028 77.5603 507.768 77.8425 501.183C78.3347 489.7 79.6492 478.182 80.6034 466.732C80.6712 465.918 81.9928 453.382 80.8435 452.808C80.4399 452.606 73.343 453.408 72.981 453.408C65.601 453.408 58.2133 453.31 50.834 453.408C38.1475 453.576 25.9568 457.558 13.2621 457.729C10.6802 457.764 4.21339 458.902 2.21865 456.409C0.875839 454.73 9.45545 445.323 9.90108 444.765C25.8365 424.811 43.006 405.481 57.9162 384.746C59.4876 382.561 61.3445 380.559 62.8978 378.384C63.4163 377.658 57.8847 377.437 57.3161 377.304C48.0952 375.148 39.8117 367.102 32.2281 361.819C25.4521 357.098 17.5055 352.819 13.0221 345.614L12.972 345.533C12.2566 344.385 8.04499 337.627 8.7007 336.971C9.65229 336.019 14.5566 336.731 15.4828 336.731H46.5126H96.4484C100.685 336.731 62.8474 308.252 66.8966 307.802L137.119 303.841Z" fill="black" stroke="black" stroke-width="4.1535" stroke-linecap="round"/>
<path fill-rule="evenodd" clip-rule="evenodd" d="M197.29 163.482C195.761 163.839 194.621 165.211 194.621 166.85C194.621 167.212 194.604 167.591 194.581 168.075C194.573 168.244 194.565 168.426 194.556 168.626C194.526 169.328 194.499 170.178 194.549 171.05C194.645 172.719 195.046 175.102 196.899 176.948C198.421 178.465 200.598 179.363 202.526 179.781C204.44 180.195 206.852 180.296 208.924 179.427C210.607 178.721 212.011 177.477 212.994 176.075C213.974 174.676 214.701 172.88 214.701 170.937C214.701 168.13 213.398 166.13 212.172 164.72C211.653 164.123 211.081 163.56 210.617 163.102C210.559 163.045 210.502 162.989 210.448 162.935C209.914 162.407 209.513 161.996 209.186 161.588C208.453 160.677 207.494 160.352 207.156 160.245C206.686 160.096 206.22 160.022 205.844 159.979C205.076 159.893 204.23 159.895 203.46 159.945C202.687 159.995 201.847 160.102 201.093 160.282C200.72 160.371 200.28 160.499 199.847 160.688C199.509 160.836 198.729 161.206 198.117 161.99C197.739 162.474 197.475 162.987 197.29 163.482Z" fill="white" stroke="black" stroke-width="4.1535" stroke-linecap="round"/>
<path fill-rule="evenodd" clip-rule="evenodd" d="M250.356 163.482C248.826 163.839 247.687 165.211 247.687 166.85C247.687 167.212 247.669 167.591 247.647 168.075C247.639 168.244 247.63 168.426 247.622 168.626C247.591 169.328 247.565 170.178 247.615 171.05C247.71 172.719 248.111 175.102 249.964 176.948C251.487 178.465 253.664 179.363 255.592 179.781C257.505 180.195 259.918 180.296 261.989 179.427C263.673 178.721 265.076 177.477 266.059 176.075C267.04 174.676 267.766 172.88 267.766 170.937C267.766 168.13 266.464 166.13 265.237 164.72C264.718 164.123 264.147 163.56 263.682 163.102C263.624 163.045 263.568 162.989 263.513 162.935C262.98 162.407 262.579 161.996 262.251 161.588C261.519 160.677 260.56 160.352 260.222 160.245C259.751 160.096 259.286 160.022 258.909 159.979C258.141 159.893 257.295 159.895 256.525 159.945C255.752 159.995 254.913 160.102 254.158 160.282C253.785 160.371 253.346 160.499 252.913 160.688C252.575 160.836 251.794 161.206 251.182 161.99C250.804 162.474 250.541 162.987 250.356 163.482Z" fill="white" stroke="black" stroke-width="4.1535" stroke-linecap="round"/>
<path fill-rule="evenodd" clip-rule="evenodd" d="M226.199 178.646C225.126 179.233 224.399 180.372 224.399 181.682C224.399 181.82 224.392 181.956 224.382 182.176C224.378 182.266 224.373 182.371 224.368 182.495C224.352 182.857 224.335 183.354 224.365 183.881C224.421 184.858 224.665 186.58 226.046 187.956C227.123 189.028 228.56 189.587 229.714 189.837C230.854 190.084 232.459 190.189 233.948 189.565C235.133 189.068 236.08 188.214 236.73 187.287C237.378 186.362 237.896 185.124 237.896 183.725C237.896 181.733 236.956 180.343 236.207 179.482C235.901 179.13 235.565 178.799 235.338 178.575C235.309 178.546 235.282 178.52 235.257 178.495C234.99 178.231 234.853 178.087 234.758 177.968C234.06 177.099 233.166 176.81 232.917 176.731C232.535 176.61 232.181 176.556 231.931 176.528C231.418 176.471 230.888 176.475 230.436 176.504C229.98 176.533 229.459 176.597 228.961 176.716C228.717 176.775 228.391 176.867 228.048 177.016C227.801 177.125 227.088 177.451 226.512 178.187C226.394 178.339 226.291 178.492 226.199 178.646Z" fill="white" stroke="black" stroke-width="1.3845" stroke-linecap="round"/>
<path d="M200.446 331.119C198.358 339.496 198.081 350.175 198.081 358.756C197.189 356.967 192.547 355.318 190.547 354.406C181.842 350.436 170.212 351.621 162.254 346.541C155.581 342.281 161.84 353.256 162.604 354.406C168.031 362.572 174.179 371.089 180.693 378.44C182.632 380.629 184.752 382.506 187.219 384.065C188.094 384.618 191.732 384.855 189.715 384.855C176.475 384.855 163.23 384.065 150.034 384.065C149.315 384.065 146.389 383.898 146.661 384.24C148.922 387.075 150.809 389.429 153.976 391.578C160.35 395.904 167.097 399.614 173.641 403.661C176.549 405.459 180.572 408.575 184.284 407.748C185.127 407.56 187.155 405.635 186.08 407.791C184.318 411.328 181.201 414.952 178.766 418.029C175.758 421.829 172.504 425.994 171.101 430.727C170.254 433.587 167.901 436.102 167.378 438.988C166.387 444.457 172.94 439.289 175.262 438.241C181.332 435.501 186.95 433.657 192.168 429.585C193.189 428.788 197.509 423.697 198.475 423.697C202.001 423.697 202.811 440.786 202.811 442.547C202.811 446.378 202.507 457.698 203.556 454.015C205.508 447.158 209.639 440.672 213.449 434.69L213.454 434.682C217.24 428.736 222.87 423.539 223.309 416.491C223.317 416.354 232.459 425.571 233.557 426.949C234.418 428.027 241.386 438.783 241.441 437.845C241.806 431.625 239.947 424.451 239.251 418.249C238.6 412.441 240.096 400.951 235.747 396.104C234.457 394.665 235.321 394.726 236.448 395.137C244.161 397.951 252.397 400.173 260.362 402.079C265.219 403.242 276.314 406.195 281.254 403.442C283.403 402.244 279.412 401.12 278.495 400.498C272.875 396.688 266.536 393.93 260.844 389.996C254.408 385.548 248.461 380.383 241.616 376.507C239.153 375.112 237.834 375.82 240.259 373.387C242.23 371.41 244.383 369.859 246.522 368.071C255.423 360.629 264.093 353.051 273.545 346.277C276.464 344.186 279.721 342.147 282.261 339.599C282.932 338.926 283.575 337.973 284.364 337.446C287.42 335.401 277.216 339.184 273.589 339.774C261.97 341.667 250.596 344.527 239.164 347.288C235.138 348.26 230.213 349.282 227.251 352.429C225.584 354.199 225.505 354.019 224.468 351.642L224.447 351.594C222.624 347.412 220.571 343.347 218.754 339.159C215.346 331.31 205.964 322.672 205.964 313.851C205.964 311.345 204.763 311.007 203.6 316.839C202.228 323.724 202.143 324.308 200.446 331.119Z" fill="white" stroke="black" stroke-width="4.1535" stroke-linecap="round"/>
</svg>
