<svg width="400" height="640" viewBox="0 0 400 640" fill="none" xmlns="http://www.w3.org/2000/svg">
<path d="M72.603 520.221C72.603 501.451 72.603 482.68 72.603 463.91C72.603 443.404 69.5872 423.076 68.8776 402.773C67.6746 368.353 67.6357 333.712 67.6357 299.142C67.6357 274.127 68.8776 248.569 68.8776 224.133C68.8776 218.54 68.8776 212.947 68.8776 207.354C68.8776 200.353 72.603 194.001 72.603 187.122C72.603 184.26 74.3198 180.323 75.3626 177.526C76.8826 173.449 76.5851 169.055 78.1912 164.97C80.171 159.935 81.2958 154.417 81.2958 149.124" stroke="black" stroke-width="11.3834" stroke-linecap="round"/>
<path d="M81.2959 149.124C81.2959 145.381 86.8509 138.623 89.0811 135.315C92.1254 130.8 95.7351 126.206 98.9597 121.835C102.925 116.459 105.544 110.414 110.212 105.407C112.696 102.743 115.581 99.9979 117.539 97.0563C119.982 93.3893 121.756 88.0782 125.39 85.3221C130.29 81.6063 135.748 71.8818 138.082 66.8202C144.464 52.9781 161.077 42.9029 166.082 28.2883C167.4 24.4411 172.319 18.9233 174.914 15.0259C177.106 11.7354 179.648 7.40256 183.746 5.69312" stroke="black" stroke-width="11.3834" stroke-linecap="round"/>
<path d="M183.746 5.69312C186.439 5.9434 192.475 12.0074 194.371 13.5929C198.883 17.3673 204.005 19.8769 208.537 23.4676C215.015 28.6016 220.155 35.0589 225.982 40.4741C240.292 53.7747 252.809 68.1898 265.856 82.2223C280.835 98.3318 293.829 114.563 309.469 130.554C315.867 137.094 319.813 144.309 327.111 150.413C331.416 154.014 343.113 164.181 343.113 169.614" stroke="black" stroke-width="11.3834" stroke-linecap="round"/>
<path d="M343.112 169.614C343.112 206.92 343.112 244.227 343.112 281.533C343.112 296.971 340.51 312.792 340.51 328.45C340.51 342.888 339.209 357.519 339.209 371.803C339.209 403.117 333.548 433.697 331.403 464.595C330.64 475.597 330.102 486.804 330.102 497.644C330.102 502.042 331.439 507.943 329.09 511.949C327.072 515.393 329.959 522.856 324.898 524.775" stroke="black" stroke-width="11.3834" stroke-linecap="round"/>
<path d="M329.453 522.173C327.111 525.63 322.433 528.45 318.293 529.979C313.567 531.723 308.142 532.425 303.609 534.098C294.732 537.375 278.846 534.857 268.954 534.857C263.51 534.857 258.444 536.809 253.096 536.809C246.635 536.809 240.174 536.809 233.713 536.809C222.701 536.809 208.622 534.89 198.145 537.568C193.132 538.849 183.105 538.76 177.979 538.76C169.892 538.76 162.149 540.711 154.158 540.711C148.176 540.711 142.193 540.711 136.211 540.711C130.875 540.711 126.861 538.76 122.114 538.76C116.817 538.76 111.547 536.077 106.255 535.833C101.365 535.607 96.498 533.881 91.5714 533.881C89.0381 533.881 79.3141 533.756 76.8874 532.689C74.2718 531.539 74.1888 522.714 72.1885 520.221" stroke="black" stroke-width="11.3834" stroke-linecap="round"/>
<path d="M69.9111 438.261C92.4764 438.261 115.334 439.02 137.672 439.02C149.166 439.02 160.036 440.538 171.263 440.538C181.302 440.538 191.34 440.538 201.379 440.538C225.695 440.538 249.684 439.779 273.773 439.779C279.704 439.779 285.543 439.224 291.148 439.02C295.423 438.865 302.292 439.991 306.206 438.852C312.136 437.125 331.201 439.66 334.005 435.985" stroke="black" stroke-width="11.3834" stroke-linecap="round"/>
<path d="M72.1885 379.067C94.5652 379.067 116.569 380.441 138.781 380.775C161.001 381.109 182.961 381.344 205.374 381.344C215.73 381.344 225.667 380.775 235.8 380.775C241.349 380.775 246.899 380.775 252.448 380.775C257.569 380.775 267.201 381.698 271.967 380.648C280.603 378.746 296.482 380.206 305.837 380.206C310.43 380.206 315.022 380.206 319.615 380.206C324.862 380.206 334.193 381.08 338.559 379.637" stroke="black" stroke-width="11.3834" stroke-linecap="round"/>
<path d="M345.39 167.348C340.992 166.938 336.988 162.675 333.6 160.645C328.201 157.41 321.618 153.424 315.391 151.525C304.692 148.261 294.323 143.93 283.558 140.646C279.305 139.349 274.689 137.759 270.59 136.196C265.096 134.101 266.398 136.783 266.398 140.646C266.398 150.429 265.188 161.725 268.494 171.084C271.661 180.05 273.472 192.135 273.472 201.467C273.472 203.479 272.323 201.415 271.703 200.478C269.733 197.504 266.005 196.25 262.468 194.489C256.097 191.32 249.266 186.43 244.586 181.633C236.905 173.758 222.529 169.35 216.618 160.425C214.446 157.146 210.106 154.807 207.448 152.019C204.355 148.776 204.915 155.335 203.649 157.459C199.83 163.865 194.64 169.91 190.353 176.304C183.279 186.852 177.298 200.179 168.017 209.379C167.316 210.074 162.536 218.804 161.467 217.235C158.655 213.107 156.942 208.215 154.393 203.939C148.624 194.261 144.564 183.934 138.804 174.271C136.729 170.789 135.602 167.281 134.089 163.612C133.575 162.367 132.46 154.816 131.338 154.547C128.088 153.768 130.447 137.817 122.561 146.086C121.446 147.254 114.178 148.173 112.408 148.503C108.802 149.175 102.262 149.719 99.2428 151.745C94.6275 154.842 83.9047 156.049 81.2959 160.425" stroke="black" stroke-width="11.3834" stroke-linecap="round"/>
<path d="M138.212 68.7454C157.919 68.7454 175.624 73.6039 195.461 73.6039C205.986 73.6039 218.255 74.9726 228.286 72.5782C231.204 71.8816 235.808 67.26 237.591 65.3444C239.761 63.0137 245.216 61.4611 245.216 58.0566" stroke="black" stroke-width="11.3834" stroke-linecap="round"/>
<path d="M71.0508 196.222L81.2958 158.248L125.691 143.058L138.213 172.488L160.979 216.158L206.513 151.602L255.461 191.475L273.675 196.222L263.43 135.464L310.101 147.805L343.113 166.792L336.283 378.496H289.611L263.43 381.344L141.628 380.395L71.0508 376.597L67.6357 270.271L71.0508 196.222Z" fill="black" stroke="black" stroke-width="2.27667"/>
<path d="M138.575 77.4083L180.694 7.96979L188.662 5.69312L244.441 66.025L231.919 81.9617L209.152 85.3767L168.172 81.9617L138.575 77.4083Z" fill="black" stroke="black" stroke-width="2.27667"/>
<path d="M104.102 383.621C104.102 394.93 103.762 406.257 105.055 417.436C105.582 421.995 107.712 427.326 107.712 431.743C107.712 434.503 108.615 442.74 108.615 439.98" stroke="black" stroke-width="11.3834" stroke-linecap="round"/>
<path d="M142.765 383.621C142.765 396.246 142.765 408.871 142.765 421.496C142.765 425.765 143.524 429.862 143.524 434.008C143.524 435.336 144.283 440.577 145.041 437.075" stroke="black" stroke-width="11.3834" stroke-linecap="round"/>
<path d="M176.916 381.344C176.916 400.196 176.916 419.896 176.916 438.261" stroke="black" stroke-width="11.3834" stroke-linecap="round"/>
<path d="M222.679 379.067C222.679 390.454 221.793 402.377 223.495 413.548C224.67 421.258 227.002 444.482 227.002 436.681" stroke="black" stroke-width="11.3834" stroke-linecap="round"/>
<path d="M261.152 381.344C261.152 392.991 261.722 404.054 263.366 415.403C264.204 421.189 265.706 427.524 265.706 433.257C265.706 434.849 267.982 444.172 267.982 438.981" stroke="black" stroke-width="11.3834" stroke-linecap="round"/>
<path d="M299.505 381.344C295.648 382.192 298.639 416.12 299.451 421.828C300.233 427.328 304.409 432.944 304.409 438.261" stroke="black" stroke-width="11.3834" stroke-linecap="round"/>
<path fill-rule="evenodd" clip-rule="evenodd" d="M181.326 283.101C178.937 283.541 177.356 285.834 177.796 288.224C179.082 295.213 181.378 301.533 185.833 307.578C189.16 312.093 194.853 314.123 199.947 314.717C205.122 315.321 210.837 314.595 215.139 312.371C219.251 310.246 223.64 306.966 226.831 302.822C230.034 298.664 232.291 293.257 231.178 287.209C230.739 284.82 228.445 283.24 226.056 283.679C223.667 284.119 222.086 286.412 222.526 288.802C223.044 291.62 222.1 294.547 219.861 297.454C217.611 300.375 214.318 302.892 211.099 304.556C208.708 305.792 204.844 306.431 200.967 305.979C197.009 305.517 194.176 304.069 192.915 302.359C189.426 297.624 187.553 292.632 186.449 286.632C186.009 284.242 183.716 282.662 181.326 283.101Z" fill="#F2F2F2"/>
<path fill-rule="evenodd" clip-rule="evenodd" d="M230.99 269.91C228.804 269.77 227.016 268.016 226.886 265.774C226.746 263.348 228.599 261.269 231.024 261.129C231.153 261.122 231.256 261.109 231.489 261.079L231.507 261.077C231.513 261.076 231.522 261.075 231.534 261.074C231.69 261.053 232.309 260.969 232.953 261.024C233.898 261.104 235.249 261.495 236.291 262.748C237.111 263.736 237.336 264.808 237.417 265.249C237.856 267.638 236.276 269.932 233.887 270.371C232.856 270.561 231.844 270.375 230.99 269.91ZM232.746 269.79C232.747 269.79 232.735 269.79 232.708 269.793C232.732 269.792 232.745 269.79 232.746 269.79Z" fill="#F2F2F2"/>
<path fill-rule="evenodd" clip-rule="evenodd" d="M179.209 268.277C177.022 268.137 175.234 266.383 175.105 264.141C174.965 261.716 176.818 259.636 179.243 259.496C179.372 259.489 179.474 259.476 179.708 259.447L179.726 259.444C179.732 259.443 179.741 259.442 179.753 259.441C179.909 259.42 180.528 259.336 181.172 259.391C182.117 259.471 183.468 259.862 184.509 261.115C185.33 262.103 185.554 263.175 185.635 263.616C186.075 266.006 184.495 268.299 182.106 268.738C181.075 268.928 180.062 268.742 179.209 268.277ZM180.965 268.157C180.966 268.157 180.954 268.158 180.927 268.16C180.951 268.159 180.964 268.157 180.965 268.157Z" fill="#F2F2F2"/>
<path d="M162.968 540.588C162.968 567.664 162.968 594.741 162.968 621.817C162.968 623.511 163.795 632.104 162.775 633.582C161.784 635.017 157.147 631.583 155.956 631.411C144.595 629.766 142.854 631.411 131.411 631.411" stroke="black" stroke-width="11.3834" stroke-linecap="round"/>
<path d="M225.975 540.588C225.975 555.154 225.975 569.72 225.975 584.287C225.975 594.966 228.51 605.015 228.51 614.986C228.51 617.386 230.56 623.975 228.088 623.975C225.841 623.975 222.565 625.324 220.436 626.464C217.516 628.028 207.808 630.199 206.541 633.931" stroke="black" stroke-width="11.3834" stroke-linecap="round"/>
<path d="M65.6136 292.606C62.7088 289.701 57.7408 287.165 54.1313 284.983C49.5527 282.214 45.9276 277.824 41.2982 275.237C35.6217 272.065 28.6413 267.529 23.93 263.08C18.5786 258.026 12.1896 251.565 5.69336 248.317" stroke="black" stroke-width="11.3834" stroke-linecap="round"/>
<path d="M338.294 296.079C343.428 296.079 350.779 291.135 354.794 288.215C361.05 283.665 366.914 278.73 373.899 275.237C380.882 271.746 387.056 266.488 393.872 263.08" stroke="black" stroke-width="11.3834" stroke-linecap="round"/>
</svg>
