<svg width="63" height="70" viewBox="0 0 63 70" fill="none" xmlns="http://www.w3.org/2000/svg">
<path fill-rule="evenodd" clip-rule="evenodd" d="M0.304556 5.20158C1.08603 3.46497 3.12734 2.69069 4.86394 3.47216C8.70871 5.2023 12.5266 7.18434 16.1132 9.80155C16.6558 10.1975 17.1421 10.5637 17.6031 10.9109C18.4292 11.5329 19.1741 12.0939 20.0161 12.6552C21.6006 13.7115 22.0288 15.8523 20.9724 17.4368C19.9161 19.0213 17.7753 19.4495 16.1908 18.3932C15.1934 17.7283 14.1649 16.9552 13.2387 16.2591C12.8163 15.9416 12.4152 15.6402 12.0481 15.3723C8.99749 13.1461 5.65408 11.39 2.03398 9.76097C0.297372 8.97949 -0.476917 6.93819 0.304556 5.20158Z" fill="black"/>
<path fill-rule="evenodd" clip-rule="evenodd" d="M59.3765 1.90682C60.2282 3.61011 59.5378 5.6813 57.8345 6.53294C57.5613 6.66953 57.227 6.90093 56.675 7.33239C56.6001 7.39091 56.5181 7.45575 56.43 7.52538C55.9709 7.88834 55.3467 8.38176 54.7089 8.79174C54.6315 8.84154 54.407 9.02833 54.021 9.49406C53.7625 9.80597 53.5561 10.083 53.3154 10.4059C53.1773 10.5911 53.0279 10.7915 52.851 11.0223C52.5333 11.4367 52.2408 11.8012 51.9632 12.147C51.4763 12.7536 51.0355 13.3028 50.5861 13.963C49.9037 14.9653 49.6948 15.5627 49.668 15.8441C49.4875 17.7399 47.8043 19.1304 45.9085 18.9498C44.0128 18.7693 42.6223 17.0861 42.8029 15.1903C42.9997 13.1237 44.033 11.3343 44.8856 10.082C45.4813 9.20693 46.2392 8.25889 46.8115 7.54298C47.0359 7.26231 47.2318 7.01732 47.3781 6.82639C47.4503 6.73231 47.5435 6.60751 47.6512 6.46344C47.9434 6.07247 48.3417 5.53956 48.7114 5.09345C49.2382 4.45784 50.002 3.61932 50.9797 2.9908C51.3096 2.77872 51.6155 2.53793 52.0638 2.18505C52.1755 2.0971 52.2961 2.00219 52.4281 1.89902C53.0027 1.44983 53.8063 0.83681 54.7504 0.364782C56.4537 -0.486864 58.5249 0.203531 59.3765 1.90682Z" fill="black"/>
<path fill-rule="evenodd" clip-rule="evenodd" d="M56.1357 61.3952C58.2997 60.9707 59.7097 58.8722 59.2851 56.7083C58.0432 50.3786 55.8919 44.6669 51.7839 39.2277C48.7154 35.1649 43.5268 33.3835 38.8965 32.8985C34.1929 32.4058 29.0137 33.1259 25.133 35.1903C21.4237 37.1635 17.4753 40.1868 14.6227 43.9822C11.7603 47.7905 9.76954 52.7223 10.8442 58.1995C11.2688 60.3635 13.3672 61.7735 15.5312 61.3489C17.6951 60.9244 19.1052 58.8259 18.6806 56.662C18.1798 54.1095 19.0053 51.4427 21.0064 48.7802C23.0172 46.1049 25.9794 43.7854 28.8834 42.2406C31.0404 41.0932 34.5406 40.4717 38.0646 40.8408C41.6618 41.2176 44.249 42.5014 45.4114 44.0405C48.6285 48.3002 50.3826 52.8117 51.4488 58.2458C51.8734 60.4098 53.9718 61.8198 56.1357 61.3952Z" fill="black"/>
<path fill-rule="evenodd" clip-rule="evenodd" d="M55.5016 25.6354C53.5127 25.6049 51.8136 24.0943 51.597 22.0663C51.3627 19.8732 52.9506 17.9056 55.1437 17.6713C55.2605 17.6589 55.3527 17.6427 55.5634 17.6056L55.5794 17.6028C55.5851 17.6018 55.5932 17.6003 55.6035 17.5984C55.7442 17.5725 56.3022 17.4694 56.8883 17.4904C57.7487 17.5212 58.9912 17.8162 59.9912 18.9064C60.7792 19.7655 61.0299 20.7283 61.123 21.1246C61.6274 23.2716 60.2958 25.421 58.1488 25.9254C57.2228 26.143 56.2963 26.019 55.5016 25.6354ZM57.0887 25.4488C57.0894 25.4485 57.0787 25.4498 57.0546 25.4535C57.0759 25.4509 57.088 25.4491 57.0887 25.4488Z" fill="black"/>
<path fill-rule="evenodd" clip-rule="evenodd" d="M8.48788 26.4473C6.49904 26.4168 4.79992 24.9062 4.58331 22.8781C4.34908 20.6851 5.93698 18.7175 8.12998 18.4832C8.24679 18.4708 8.33899 18.4546 8.54974 18.4175L8.56574 18.4147C8.57141 18.4137 8.57949 18.4122 8.58982 18.4103C8.7305 18.3843 9.28852 18.2813 9.87463 18.3023C10.735 18.3331 11.9775 18.6281 12.9775 19.7183C13.7655 20.5773 14.0162 21.5402 14.1093 21.9365C14.6138 24.0835 13.2822 26.2329 11.1352 26.7373C10.2091 26.9549 9.28263 26.8309 8.48788 26.4473ZM10.075 26.2607C10.0757 26.2604 10.065 26.2617 10.0409 26.2654C10.0623 26.2628 10.0743 26.261 10.075 26.2607Z" fill="black"/>
<path fill-rule="evenodd" clip-rule="evenodd" d="M36.6999 26.1417C36.6743 26.3464 36.6405 26.5444 36.5995 26.7357C36.6411 26.541 36.6747 26.3429 36.6999 26.1417ZM31.9793 31.8495C31.0479 32.1514 30.0372 32.2587 29.0015 32.1293C25.2223 31.6569 22.5415 28.2102 23.0139 24.4309C23.3636 21.6338 25.1564 19.999 26.3073 19.2716C27.3708 18.5995 28.3782 18.3479 28.8557 18.2453C29.8696 18.0274 30.8225 18.0187 31.2906 18.0209C31.8592 18.0236 32.3977 18.0553 32.7373 18.0769C33.0483 18.0966 33.1467 18.1024 33.1467 18.1036C33.1467 18.1037 33.1455 18.1038 33.1432 18.1039C36.894 18.1708 39.9139 21.2322 39.9139 24.999C39.9139 28.8076 36.8263 31.8952 33.0177 31.8952C32.6785 31.8952 32.2011 31.8647 31.9793 31.8495ZM31.1346 31.8148C31.1339 31.8145 31.1493 31.8136 31.1828 31.8132C31.152 31.815 31.1352 31.8152 31.1346 31.8148Z" fill="black"/>
</svg>
