<svg width="456" height="240" viewBox="0 0 456 240" fill="none" xmlns="http://www.w3.org/2000/svg">
<path d="M53.2895 87.9417C38.0342 123.722 33.2712 185.148 39.9441 201.459C45.0101 206.525 49.8679 208.514 56.9965 210.192C66.8894 212.519 77.5922 211.839 87.7649 211.839C97.5422 211.839 107.975 207.913 117.051 204.59C121.208 203.067 126.057 202.395 129.819 199.977C131.808 198.698 133.613 197.167 135.586 195.899C140.254 192.898 144.393 189.156 148.19 185.148C149.482 183.784 151.344 183.377 151.897 181.441C152.655 178.788 154.362 175.77 155.604 173.286C158.306 167.882 162.458 162.794 164.789 157.057C166.324 153.279 166.412 153.268 170.432 153.268H180.976C190.128 153.268 199.1 154.751 208.244 154.751C224.471 154.751 240.608 155.135 256.888 154.792C263.832 154.646 270.785 154.751 277.73 154.751C278.679 154.751 283.235 154.057 283.867 155.163C285.187 157.472 287.763 159.388 289.634 161.259C294.652 166.277 298.068 170.548 301.29 176.993C308.613 191.639 315.337 204.692 329.67 213.487C336.624 217.754 344.017 221.872 351.665 224.773C359.389 227.703 369.705 226.075 377.12 222.96L377.361 222.859C383.23 220.395 388.252 218.286 392.113 213.322C395.219 209.329 400.562 205.513 401.71 200.347C403.13 193.956 406.794 187.489 406.941 180.865C407.156 171.187 405.338 161.881 404.676 152.279C403.103 129.48 398.377 106.458 392.689 84.317C389.864 73.3166 385.69 62.1112 378.767 53.0132C374.444 47.3315 376.351 41.1658 372.095 35.3841C370.749 33.5564 364.351 20.4111 348.37 19.0732C332.388 17.7352 328.105 19.2172 309.816 19.0732C290.176 18.9185 267.4 16.3763 248.115 13.9657C223.605 10.902 199.846 16.1075 175.498 16.1075C150.014 16.1075 122.593 13.9613 97.9387 21.6269C79.9525 27.2192 73.8005 43.7533 66.5936 59.068C64.285 63.9737 62.5485 68.9725 60.3328 73.8961C58.1815 78.677 55.3323 83.1504 53.2895 87.9417Z" fill="black" stroke="black" stroke-width="3" stroke-linecap="round"/>
<path d="M161.541 77.8907C165.721 76.619 169.273 77.9549 173.452 76.6832C174.642 77.9276 179.305 78.1542 181.127 79.1816L181.234 79.2421C183.104 80.2965 185.765 81.7964 187.154 83.3894C188.685 85.1437 190.161 86.9749 191.526 88.8397C193.447 91.4647 194.008 95.4368 194.951 98.5384C197.123 105.677 194.079 111.522 190.418 117.741C186.236 124.844 178.248 128.392 170.69 130.692C164.485 132.58 156.227 128.524 151.596 124.552C145.941 119.703 147.217 109.39 146.251 103.085C145.772 99.9636 147.523 96.0703 148.382 93.0386C149.533 88.9745 151.727 85.359 154.119 81.693C155.804 79.111 158.769 78.7342 161.541 77.8907Z" fill="white" stroke="black" stroke-width="3" stroke-linecap="round"/>
<path d="M259.406 77.8912C263.586 76.6194 267.138 77.9554 271.318 76.6837C272.508 77.9281 277.17 78.1546 278.992 79.1821L279.099 79.2426C280.969 80.297 283.63 81.7969 285.02 83.3899C286.55 85.1442 288.026 86.9754 289.391 88.8402C291.312 91.4652 291.873 95.4373 292.817 98.5389C294.989 105.677 291.945 111.523 288.283 117.742C284.101 124.845 276.113 128.393 268.555 130.693C262.35 132.581 254.092 128.525 249.461 124.553C243.807 119.704 245.082 109.391 244.116 103.086C243.637 99.9641 245.388 96.0708 246.247 93.039C247.398 88.975 249.592 85.3595 251.984 81.6935C253.669 79.1115 256.634 78.7347 259.406 77.8912Z" fill="white" stroke="black" stroke-width="3" stroke-linecap="round"/>
<path fill-rule="evenodd" clip-rule="evenodd" d="M159.343 104.043C158.278 104.322 157.64 105.412 157.919 106.477C158.736 109.593 159.986 112.373 162.204 114.956C163.86 116.886 166.502 117.612 168.825 117.709C171.185 117.808 173.744 117.288 175.614 116.138C177.401 115.038 179.275 113.408 180.578 111.428C181.886 109.44 182.725 106.92 182.018 104.223C181.739 103.158 180.649 102.52 179.584 102.799C178.518 103.079 177.881 104.168 178.16 105.234C178.489 106.491 178.161 107.846 177.247 109.235C176.328 110.631 174.924 111.88 173.524 112.74C172.485 113.38 170.76 113.799 168.992 113.724C167.187 113.649 165.857 113.09 165.23 112.359C163.493 110.336 162.478 108.142 161.777 105.466C161.498 104.401 160.408 103.764 159.343 104.043Z" fill="black"/>
<path fill-rule="evenodd" clip-rule="evenodd" d="M181.348 96.4091C180.355 96.4192 179.488 95.6868 179.354 94.6772C179.209 93.5856 179.976 92.5832 181.068 92.4384C181.126 92.4307 181.172 92.4214 181.277 92.4002L181.285 92.3986C181.287 92.3981 181.292 92.3972 181.297 92.3961C181.367 92.3814 181.644 92.3228 181.937 92.3259C182.366 92.3303 182.99 92.4618 183.503 92.9932C183.908 93.412 184.045 93.8894 184.097 94.086C184.376 95.1513 183.738 96.2411 182.673 96.5202C182.214 96.6406 181.75 96.5905 181.348 96.4091ZM182.138 96.2958C182.138 96.2956 182.133 96.2964 182.121 96.2986C182.131 96.297 182.137 96.2959 182.138 96.2958Z" fill="black"/>
<path fill-rule="evenodd" clip-rule="evenodd" d="M157.883 97.4125C156.89 97.4226 156.023 96.6902 155.889 95.6806C155.744 94.589 156.512 93.5866 157.603 93.4418C157.661 93.4341 157.707 93.4248 157.812 93.4037L157.82 93.4021C157.823 93.4015 157.827 93.4006 157.832 93.3996C157.902 93.3848 158.179 93.3263 158.472 93.3293C158.902 93.3337 159.526 93.4652 160.039 93.9966C160.443 94.4154 160.58 94.8928 160.632 95.0894C160.911 96.1547 160.273 97.2445 159.208 97.5236C158.749 97.644 158.285 97.5939 157.883 97.4125ZM158.673 97.2992C158.673 97.299 158.668 97.2998 158.656 97.302C158.667 97.3004 158.673 97.2993 158.673 97.2992Z" fill="black"/>
<path fill-rule="evenodd" clip-rule="evenodd" d="M168 105.838C167.007 105.848 166.14 105.115 166.006 104.106C165.861 103.014 166.629 102.012 167.72 101.867C167.779 101.859 167.824 101.85 167.929 101.829L167.937 101.827C167.94 101.827 167.944 101.826 167.949 101.825C168.019 101.81 168.296 101.752 168.589 101.755C169.019 101.759 169.643 101.89 170.156 102.422C170.56 102.841 170.697 103.318 170.749 103.515C171.028 104.58 170.391 105.67 169.325 105.949C168.866 106.069 168.402 106.019 168 105.838ZM168.79 105.724C168.791 105.724 168.785 105.725 168.773 105.727C168.784 105.726 168.79 105.725 168.79 105.724Z" fill="black"/>
<path fill-rule="evenodd" clip-rule="evenodd" d="M257.323 105.333C256.293 105.721 255.771 106.871 256.158 107.902C257.292 110.917 258.822 113.553 261.294 115.894C263.14 117.642 265.842 118.092 268.163 117.95C270.521 117.805 273.013 117.023 274.754 115.687C276.419 114.409 278.114 112.595 279.207 110.49C280.303 108.378 280.877 105.785 279.897 103.176C279.509 102.145 278.359 101.623 277.328 102.01C276.297 102.398 275.776 103.548 276.163 104.579C276.62 105.795 276.433 107.176 275.667 108.653C274.897 110.136 273.629 111.523 272.326 112.523C271.358 113.266 269.685 113.86 267.919 113.969C266.116 114.08 264.735 113.661 264.036 112.998C262.1 111.165 260.865 109.087 259.892 106.498C259.504 105.468 258.354 104.946 257.323 105.333Z" fill="black"/>
<path fill-rule="evenodd" clip-rule="evenodd" d="M278.422 95.4724C277.435 95.5848 276.497 94.9457 276.26 93.9553C276.003 92.8844 276.663 91.8082 277.734 91.5517C277.791 91.538 277.836 91.5241 277.938 91.4922L277.945 91.4898C277.948 91.4889 277.952 91.4877 277.957 91.4861C278.025 91.4642 278.295 91.3774 278.586 91.3502C279.014 91.3103 279.649 91.3768 280.214 91.8525C280.659 92.2274 280.845 92.6881 280.916 92.8784C281.304 93.9092 280.782 95.0589 279.751 95.4463C279.307 95.6134 278.84 95.6114 278.422 95.4724ZM279.196 95.2783C279.196 95.2781 279.191 95.2794 279.179 95.2828C279.19 95.2801 279.195 95.2784 279.196 95.2783Z" fill="black"/>
<path fill-rule="evenodd" clip-rule="evenodd" d="M255.187 98.8889C254.201 99.0013 253.262 98.3622 253.025 97.3718C252.769 96.3009 253.429 95.2247 254.5 94.9682C254.557 94.9545 254.601 94.9406 254.703 94.9087L254.711 94.9063C254.714 94.9054 254.718 94.9042 254.723 94.9026C254.791 94.8807 255.06 94.7939 255.352 94.7667C255.78 94.7268 256.414 94.7933 256.979 95.269C257.425 95.6439 257.61 96.1046 257.682 96.2949C258.069 97.3257 257.548 98.4754 256.517 98.8628C256.072 99.0299 255.606 99.0279 255.187 98.8889ZM255.961 98.6948C255.962 98.6946 255.956 98.6959 255.945 98.6993C255.955 98.6966 255.961 98.6949 255.961 98.6948Z" fill="black"/>
<path fill-rule="evenodd" clip-rule="evenodd" d="M266.123 106.226C265.136 106.339 264.198 105.7 263.961 104.709C263.704 103.638 264.364 102.562 265.435 102.306C265.492 102.292 265.537 102.278 265.639 102.246L265.647 102.244C265.649 102.243 265.653 102.242 265.658 102.24C265.726 102.218 265.996 102.131 266.288 102.104C266.716 102.064 267.35 102.131 267.915 102.606C268.36 102.981 268.546 103.442 268.617 103.632C269.005 104.663 268.483 105.813 267.452 106.2C267.008 106.367 266.541 106.365 266.123 106.226ZM266.897 106.032C266.897 106.032 266.892 106.033 266.88 106.037C266.891 106.034 266.897 106.032 266.897 106.032Z" fill="black"/>
</svg>
