<svg width="456" height="240" viewBox="0 0 456 240" fill="none" xmlns="http://www.w3.org/2000/svg">
<path d="M154.5 18.2736C206.641 9.0132 261.199 12.0031 313.936 14.6991C335.357 15.7942 397.633 32.3582 399 55C399.689 66.4051 395.726 70.9631 387.05 80.943L387 81C386.457 81.6245 385.881 82.1881 385.284 82.6951C393.153 82.8135 401.772 85.4177 406.959 88.5385C426.357 100.209 445 113.896 445 137.765C445 165.186 420.91 189.389 396.26 204.22C369.168 220.521 337.831 221.449 306.506 221.449C279.17 221.449 253.217 223.911 225.669 223.911C163.672 223.911 94.2766 226.511 38.4354 203.673C29.2916 199.934 20.258 188.651 19.712 179.607C19.2936 172.676 15.7386 148.488 20.3064 143.234C23 133 38.4354 126 43 126C39.2816 122.578 30.3483 120 27 110.5C25.0615 105 25.0615 102.497 25.0615 95.9224C25.0615 83.3553 23.3119 70.3089 29.8167 59.0027C35.6579 48.8498 48.0155 48.3066 56.5643 41.2266C74.7389 26.1748 130.426 18.2736 154.5 18.2736Z" fill="black"/>
<path d="M51.8092 115.613C41.3415 114.543 35.7606 93.3905 35.7606 86.0771C35.7606 74.4337 50.9065 73.6885 59.8335 66.3867C81.5499 48.6237 95.8169 33.2472 124.622 25.0913C185.521 7.84858 251.025 11.483 313.936 14.6991C335.357 15.7942 397.633 32.3582 399 55C399.69 66.4268 395.711 70.9804 387 81C380.557 88.411 369.441 87.2379 374.119 84.8465C383.163 80.2227 399.05 83.7802 406.959 88.5385C426.357 100.209 445 113.896 445 137.765C445 165.186 420.91 189.389 396.26 204.22C369.168 220.521 337.831 221.449 306.506 221.449C279.17 221.449 253.217 223.911 225.669 223.911C163.672 223.911 94.2766 226.511 38.4354 203.673C29.2916 199.934 20.258 188.651 19.712 179.607C19.2936 172.676 15.7386 148.488 20.3064 143.234C23 133 38.4354 126 43 126C39.2816 122.578 30.3483 120 27 110.5C25.0615 105 25.0615 102.497 25.0615 95.9224C25.0615 83.3553 23.3119 70.3089 29.8167 59.0027C35.6579 48.8498 48.0155 48.3066 56.5643 41.2266C74.7389 26.1748 130.426 18.2736 154.5 18.2736" stroke="black" stroke-width="4" stroke-linecap="round"/>
<path d="M425.132 201.714C412.561 194.437 403.198 182 386.951 182L360 206.705C372.332 206.705 383.778 208.311 395.935 208.951C409.423 209.661 421.353 217.935 435.862 217.935C445.711 217.935 429.376 204.171 425.132 201.714Z" fill="black" stroke="black" stroke-width="4" stroke-linecap="round"/>
<path d="M102.581 82.5879C102.581 86.077 103.897 89.6545 104.646 93.0271C105.313 96.0276 106.144 99.1038 107.051 102.052C109.702 110.667 110.22 119.848 110.22 128.928C110.22 135.564 111.747 142.48 111.747 149.042C111.747 155.46 113.784 161.749 113.784 168.139" stroke="white" stroke-width="10.74" stroke-linecap="round"/>
<path d="M110.729 122.817C116.075 122.817 121.422 122.817 126.769 122.817C128.782 122.817 138.242 120.811 139.245 122.817" stroke="white" stroke-width="10.74" stroke-linecap="round"/>
<path d="M142.811 80.5513C142.811 86.9889 143.093 93.4332 143.32 99.7889C143.439 103.139 144.338 106.651 144.338 109.832C144.338 116.624 145.357 123.399 145.357 130.173C145.357 133.804 145.866 137.386 145.866 140.895C145.866 142.476 146.375 144.023 146.375 145.478C146.375 146.392 146.462 149.533 146.998 150.203C147.603 150.959 147.903 152.86 147.903 153.88C147.903 154.552 148.299 158.679 148.667 158.973C150.372 160.337 148.697 166.754 150.449 167.63" stroke="white" stroke-width="10.74" stroke-linecap="round"/>
<path d="M162.67 78.0049C162.67 87.1691 164.647 96.155 166.857 104.994C168.193 110.337 169.596 116.414 169.799 121.912C169.957 126.177 170.818 130.194 170.818 134.529C170.818 138.02 170.873 141.339 171.355 144.714C171.658 146.834 172.111 149.173 172.741 151.221C173.232 152.817 172.946 154.582 173.392 156.143C173.961 158.135 174.057 158.036 175.91 158.859C177.159 159.414 178.848 160.163 180.238 160.472C186.56 161.877 193.244 161.519 199.844 161.519" stroke="white" stroke-width="10.74" stroke-linecap="round"/>
<path d="M166.234 118.744C169.29 118.744 172.345 118.744 175.401 118.744C177.252 118.744 180.651 119.391 182.275 118.489C183.857 117.61 187.089 118.155 188.895 117.753C190.992 117.287 193.021 117.216 195.26 117.216" stroke="white" stroke-width="10.74" stroke-linecap="round"/>
<path d="M161.143 74.9497H196.279" stroke="white" stroke-width="10.74" stroke-linecap="round"/>
<path d="M219.704 76.4775C219.704 83.0922 219.52 89.7275 219.704 96.3375C219.919 104.096 221.231 111.987 221.231 119.762C221.231 123.433 222.575 127.535 223.24 131.191C223.871 134.661 224.089 138.106 224.287 141.659C224.458 144.75 223.838 161.01 227.088 161.01C235.225 161.01 243.078 163.047 251.276 163.047" stroke="white" stroke-width="10.74" stroke-linecap="round"/>
<path d="M258.915 72.9126C258.915 89.6251 266.011 105.489 268.053 121.827C269.076 130.009 270.649 137.95 271.137 146.242C271.297 148.965 272.071 152.357 272.693 155.153C272.986 156.475 273.611 158.254 273.683 159.482C273.785 161.215 276.395 160.32 277.785 160.755C284.739 162.928 292.311 163.046 299.653 163.046" stroke="white" stroke-width="10.74" stroke-linecap="round"/>
<path d="M314.93 76.4772C314.93 79.7837 314.588 82.8954 314.025 86.1525C313.693 88.0691 313.48 89.6992 313.402 91.6409C313.29 94.4398 311.875 97.119 311.875 99.8735C311.875 105.389 309.838 110.96 309.838 116.452C309.838 121.354 309.328 126.092 309.328 130.965C309.328 134.626 308.894 140.351 311.252 143.299C313.17 145.697 314.648 147.578 317.221 149.58C320.009 151.748 321.968 155.267 324.888 156.936C327.819 158.61 332.364 157.954 335.695 157.954C337.856 157.954 340.391 157.53 342.174 156.143C344.228 154.545 343.956 152.967 343.956 150.598C343.956 144.733 343.956 138.867 343.956 133.002C343.956 130.806 343.841 128.574 343.956 126.382C344.068 124.247 344.975 122.218 344.975 120.016C344.975 115.793 345.734 110.678 344.578 106.635C342.955 100.954 342.227 94.951 340.278 89.3211C339.696 87.6377 339.063 85.4859 337.845 84.1156C337.032 83.2011 335.595 81.9671 335.271 80.8339C334.999 79.8825 333.511 77.5898 332.866 76.8732C331.473 75.3247 331.427 73.7602 329.443 72.6579C326.286 70.9039 322.863 73.5968 320.022 73.931C316.649 74.3278 315.808 78.8391 313.402 80.0418" stroke="white" stroke-width="10.74" stroke-linecap="round"/>
<path d="M80.1083 72.8521C74.5012 72.8521 70.0002 76.9974 70.0002 82.6941C70.0002 85.4714 69.9729 88.0243 70.5618 90.6742C70.9628 92.4791 73.2545 96.2603 75.3202 96.2603" stroke="white" stroke-width="8" stroke-linecap="round"/>
<path d="M69.5273 80.9746C70.6996 81.1049 72.7194 81.7918 72.7194 79.6446C72.7194 77.1985 72.4431 77.2506 70.0593 77.2506" stroke="white" stroke-width="8" stroke-linecap="round"/>
<path d="M352.495 67C353.789 67 355.247 67.5719 355.155 69.128C355.031 71.2343 351.721 67.532 354.357 67.532C357.771 67.532 360.93 66.6943 362.485 70.192C364.245 74.1516 365.502 85.235 360.475 87.7482" stroke="white" stroke-width="8" stroke-linecap="round"/>
<path d="M314 17C321.341 17 328.979 16.9605 335.588 19.962C340.53 22.2065 344.701 24.7083 350.476 24.7083C353.228 24.7083 356.314 25.792 359.037 26.3142C363.459 27.162 367.25 29.9237 371.692 30.882C377.784 32.1961 382.685 36.5877 387.904 39.1612C389.992 40.1908 391.664 41.9345 393.653 42.944C395.887 44.0782 396.424 46.8697 397.561 48.6359C400.168 52.6853 402.228 58.6278 400.145 63.2495C399.514 64.6514 399.011 66.3637 397.83 67.4962C397.004 68.2875 396.245 69.043 395.596 69.9942C394.319 71.8684 392.093 73.2635 391.047 75.2936C390.401 76.5478 389.608 77.7591 388.897 78.9872C388.295 80.0247 387.801 81.6964 386.953 82.5201C386.359 83.0961 382.858 88.2959 382.858 86.6954" stroke="black" stroke-width="8" stroke-linecap="round"/>
</svg>
