<svg width="67" height="37" viewBox="0 0 67 37" fill="none" xmlns="http://www.w3.org/2000/svg">
<path fill-rule="evenodd" clip-rule="evenodd" d="M59.0063 10.5243C56.7452 10.5472 54.7705 8.87972 54.4656 6.58118C54.1359 4.09572 55.8835 1.81359 58.3689 1.48389C58.5013 1.46633 58.6056 1.44525 58.8441 1.39707L58.8622 1.39341C58.8686 1.39211 58.8777 1.39018 58.8894 1.38772C59.0485 1.35412 59.6797 1.22083 60.3464 1.22772C61.3251 1.23784 62.7456 1.53711 63.9137 2.74711C64.8341 3.70055 65.1469 4.78749 65.2642 5.23517C65.8996 7.66054 64.4486 10.1418 62.0232 10.7772C60.9771 11.0513 59.9206 10.9372 59.0063 10.5243ZM60.8046 10.2662C60.8053 10.2659 60.7933 10.2677 60.766 10.2726C60.7901 10.2691 60.8038 10.2666 60.8046 10.2662Z" fill="black"/>
<path fill-rule="evenodd" clip-rule="evenodd" d="M5.58344 12.8098C3.32233 12.8327 1.34763 11.1652 1.04273 8.86671C0.713035 6.38125 2.46063 4.09911 4.94609 3.76942C5.07848 3.75185 5.18278 3.73078 5.42121 3.68259L5.43932 3.67893C5.44574 3.67763 5.45488 3.67571 5.46656 3.67324C5.62568 3.63964 6.25686 3.50636 6.92355 3.51325C7.90227 3.52336 9.3228 3.82263 10.4909 5.03264C11.4113 5.98608 11.724 7.07301 11.8413 7.52069C12.4767 9.94606 11.0257 12.4273 8.60033 13.0628C7.55424 13.3368 6.49774 13.2228 5.58344 12.8098ZM7.38171 12.5518C7.38249 12.5514 7.3704 12.5532 7.34312 12.5581C7.3673 12.5546 7.38093 12.5521 7.38171 12.5518Z" fill="black"/>
<path fill-rule="evenodd" clip-rule="evenodd" d="M33.6645 17.801C31.4034 17.8239 29.4287 16.1565 29.1238 13.8579C28.7941 11.3725 30.5417 9.09032 33.0271 8.76063C33.1595 8.74306 33.2638 8.72199 33.5023 8.6738L33.5204 8.67014C33.5268 8.66885 33.5359 8.66692 33.5476 8.66445C33.7067 8.63085 34.3379 8.49757 35.0046 8.50446C35.9833 8.51457 37.4039 8.81385 38.5719 10.0238C39.4923 10.9773 39.8051 12.0642 39.9224 12.5119C40.5578 14.9373 39.1068 17.4185 36.6814 18.054C35.6353 18.3281 34.5788 18.214 33.6645 17.801ZM35.4628 17.543C35.4635 17.5426 35.4515 17.5444 35.4242 17.5494C35.4484 17.5458 35.462 17.5433 35.4628 17.543Z" fill="black"/>
<path fill-rule="evenodd" clip-rule="evenodd" d="M39.5806 34.9908C37.2518 35.2195 34.8298 35.4573 32.4016 35.6002C24.2073 36.0822 15.9967 36.08 7.9265 36.0779C7.39421 36.0778 6.86253 36.0777 6.3315 36.0777C4.17012 36.0777 2.41797 34.3255 2.41797 32.1641C2.41797 30.0027 4.17012 28.2506 6.3315 28.2506C6.84552 28.2506 7.359 28.2507 7.87196 28.2508C15.9944 28.2527 23.9874 28.2545 31.942 27.7866C34.2022 27.6537 36.4195 27.4361 38.721 27.2103C39.4107 27.1426 40.1081 27.0742 40.8164 27.0071C43.8367 26.7209 46.9876 26.4668 50.2327 26.4668C52.6349 26.4668 54.8585 26.8513 56.7287 27.1747L56.8338 27.1929C58.8163 27.5356 60.4215 27.8046 62.0751 27.8046C64.2365 27.8046 65.9887 29.5568 65.9887 31.7182C65.9887 33.8796 64.2365 35.6317 62.0751 35.6317C59.6986 35.6317 57.4895 35.2496 55.6284 34.9277L55.5006 34.9056C53.5225 34.5637 51.9056 34.2939 50.2327 34.2939C47.3725 34.2939 44.5232 34.518 41.5546 34.7993C40.9056 34.8607 40.2469 34.9254 39.5806 34.9908Z" fill="black"/>
</svg>
