<svg viewBox="0 0 342 10" fill="none" xmlns="http://www.w3.org/2000/svg"><path d="M2.61 3.62C8.06 3.62 15.53 1.13 20.65 3.98C24.67 6.21 30.64 6.45 35.12 6.45C40.35 6.45 47.9 5.1 53 6.61C59.77 8.62 67.8 5.75 74.78 5.75C80.34 5.75 85.84 3.62 91.4 3.62C97.22 3.62 103.04 3.62 108.86 3.62C117.31 3.62 125.54 5.75 133.89 5.75C142.07 5.75 150.25 5.75 158.42 5.75C172.74 5.75 187.9 7.13 202.17 5.71C210.64 4.86 218.75 4.33 227.29 4.33C233.95 4.33 240.84 4.8 247.41 3.78C264.77 1.09 281.7 4.33 299.29 4.33C308.76 4.33 317.92 4.01 327.2 5.9C331.82 6.85 335.13 6.46 339.39 5.04" stroke="black" stroke-width="2.61" stroke-linecap="round"></path></svg>