<svg viewBox="0 0 343 10" fill="none" xmlns="http://www.w3.org/2000/svg"><path d="M2.61 3.33C9.04 3.33 15.47 3.33 21.9 3.33C29.68 3.33 38.96 2.79 46.33 5.47C58.23 9.8 69.59 4.76 81.88 4.76C112.84 4.76 143.64 4.04 174.56 4.04C189.34 4.04 204.12 4.04 218.91 4.04C228.6 4.04 238.3 4.04 247.99 4.04C251.86 4.04 255.74 4.04 259.61 4.04C263.24 4.04 266.42 2.62 270.01 2.62C279.15 2.62 287.91 4.76 297.02 4.76C302.91 4.76 308.74 5.47 314.68 5.47C320.03 5.47 324.58 6.96 329.99 4.4C333.24 2.86 336.86 3.33 340.39 3.33" stroke="black" stroke-width="2.61" stroke-linecap="round"></path></svg>