<svg viewBox="0 0 341 11" fill="none" xmlns="http://www.w3.org/2000/svg"><path d="M2.61 5.21C18.66 5.21 34.34 6.4 50.44 5.36C55.95 5.01 61.58 4.5 67.1 4.5C70.23 4.5 73.08 5.83 76.13 5.91C82.47 6.08 88.71 6.62 95.06 6.62C104.3 6.62 114.04 4.24 123.26 2.93C128.84 2.13 133.76 3.09 139.28 3.09C144.96 3.09 150.4 3.16 155.93 4.5C163.11 6.24 170.17 5.91 177.53 5.91C190.71 5.91 203.87 7.25 217.12 5.76C234.51 3.8 252.64 5.21 270.14 5.21C284.59 5.21 299.14 5.91 313.49 5.91C317.98 5.91 322.2 7.33 326.53 7.33C329.7 7.33 335.59 8.48 338.39 6.62" stroke="black" stroke-width="2.61" stroke-linecap="round"></path></svg>