<svg viewBox="0 0 349 95" fill="none" xmlns="http://www.w3.org/2000/svg"><path d="M3.15 6.89C3.15 0.52 3.15 12.07 3.15 13.62C3.15 17.15 4.28 20.28 4.54 23.8C4.64 25.28 4.11 27.59 4.73 28.99C6.69 33.39 6.71 37.83 6.71 42.57C6.71 45.92 4.66 48.26 3.86 51.4C2.36 57.32 1.59 62.91 5.21 68.08C6.96 70.58 5.29 77.79 5.29 81.03C5.29 83.37 4.55 87.41 6 89.23C7.36 90.93 16.95 89.58 19.39 89.58C25.03 89.58 30.32 91.07 35.94 89.74C42.46 88.2 49.5 87.7 56.18 88.2C59.13 88.42 64.66 88.56 67.31 89.74C70.71 91.25 76.39 90.3 80.06 90.3C83.61 90.3 86.98 89.58 90.52 89.58C94.46 89.58 98.72 90.07 102.6 89.23C112.06 87.17 121.96 90.3 131.47 90.3C143.4 90.3 155.08 91.72 166.96 91.72C177.19 91.72 187.39 89.19 197.61 89.58C204.27 89.84 211.89 88.16 219.04 88.16C223.38 88.16 227.95 88.5 232.3 88.91C239.28 89.57 246.29 90.3 253.37 90.3C256.49 90.3 259.67 89.13 262.8 88.71C267.36 88.11 271.88 88.16 276.46 88.16C282.1 88.16 287.56 88.87 293.29 88.87C303.03 88.87 313.54 87.91 323.24 89.03C328.98 89.69 334.15 91.01 339.95 91.01C344.7 91.01 347.61 91.4 345.89 85.15C344.97 81.81 344.1 78.87 342.84 75.6C341.74 72.75 342.57 68.89 342.48 65.9C342.38 62.46 341.77 59.1 341.77 55.64C341.77 43.65 340.1 31.66 341.81 19.72C342.04 18.13 343.2 16.69 343.2 15.09C343.2 13.63 342.56 12.5 342.48 11.17C342.32 8.14 340.34 5.56 340.34 2.61" stroke="black" stroke-width="2.61" stroke-linecap="round"></path></svg>