<svg viewBox="0 0 1063 12" fill="none" xmlns="http://www.w3.org/2000/svg"><path d="M2.61 7.12C9.61 7.12 15.33 2.85 22.23 2.67C33.38 2.37 44.46 3.41 55.61 3.41C62.18 3.41 68.89 2.72 75.06 5.22C82.17 8.1 89.55 7.2 96.98 6.21C105.59 5.06 114.77 3.41 123.44 3.41C129.88 3.41 136.32 3.41 142.77 3.41C147.01 3.41 152.03 2.66 156.16 3.57C170.36 6.73 185.74 2.3 199.97 5.26C204.94 6.3 210.62 5.63 215.67 5.63C222.32 5.63 228.96 5.63 235.61 5.63C247.52 5.63 259.43 5.63 271.34 5.63C280.76 5.63 290.06 6.03 299.4 6.33C310 6.68 320.43 5.7 330.97 6.33C356.92 7.91 382.48 6.11 408.41 4.93C421.19 4.35 432.12 2.48 445.04 5.22C457.94 7.96 471.31 3.71 484.19 4.15C493.78 4.48 503.31 5.63 512.96 5.63C520.82 5.63 528.64 4.89 536.53 4.89C543.73 4.89 551.11 4.49 558.29 5.06C567.85 5.81 577.42 5.63 587.01 5.63C592.53 5.63 597.89 4.15 603.45 4.15C617.63 4.15 631.8 4.15 645.98 4.15C653.52 4.15 661.12 4.89 668.73 4.89C681.87 4.89 694.96 4.15 708.04 4.15C722.54 4.15 738.48 2.45 752.39 6.95C757.22 8.52 762.67 9 767.76 8.56C772.3 8.17 776.36 4.89 781.07 4.89C794 4.89 806.66 7.12 819.6 7.12C827.77 7.12 835.95 7.12 844.12 7.12C850.34 7.12 856.48 7.04 862.66 7.86C864.96 8.17 867.8 8.99 870.16 8.56C886.61 5.57 903.33 4.89 920.03 4.89C934.87 4.89 950.01 4.04 964.7 5.68C965.75 5.79 966.98 6.13 968 6.42C969.84 6.94 971.76 5.98 973.77 5.8C981.4 5.1 989.25 5.63 996.93 5.63C1003.7 5.63 1009.99 7.12 1016.71 7.12C1031.33 7.12 1045.83 6.38 1060.39 6.38" stroke="black" stroke-width="2.61" stroke-linecap="round"></path></svg>