<svg viewBox="0 0 496 129" fill="none" xmlns="http://www.w3.org/2000/svg"><path d="M5.05 126.09C5.05 121.6 4.46 117.47 3.34 113.14C2.94 111.56 3.03 110.01 3.03 108.38C3.03 106.69 3.84 105.27 3.84 103.65C3.84 99.64 4.04 95.57 3.82 91.56C3.68 89.16 2.68 86.88 2.62 84.41C2.58 82.6 2.64 80.93 2.94 79.15C3.77 74.27 4.16 69.61 4.26 64.63C4.42 57.07 4.65 49.56 4.65 41.98C4.65 33.9 3.76 25.41 4.96 17.43C5.53 13.7 4.65 10.02 4.65 6.33C4.65 3.98 11.54 5.41 13.41 5.03C17.18 4.25 20.63 4.2 24.47 4.62C29.44 5.17 34.67 4.71 39.67 4.71C41.75 4.71 42.6 4.15 44.36 3.32C46.09 2.5 48.32 2.55 50.21 2.71C53.51 3 57.11 4.01 60.39 4.62C64.36 5.36 68.9 4.71 72.93 4.71C77.39 4.71 81.74 3.97 86.19 3.7C89.69 3.49 93.12 3.32 96.47 4.49C98.66 5.25 102.77 5.11 104.94 4.51C108.11 3.63 112.41 6.57 115.48 7.3C119.26 8.19 123.37 7.14 127.01 6.24C134.77 4.32 142.32 1.66 150.32 3.9C154.41 5.05 158.2 6.73 162.53 6.73C166.14 6.73 169.75 6.73 173.36 6.73C176.19 6.73 179.51 7.25 182.22 6.24C184.19 5.51 186.28 4.31 188.42 4.31C190.49 4.31 192.56 4.31 194.62 4.31C197.45 4.31 200.15 4.79 202.98 4.69C207.03 4.54 211.02 3.66 215.05 3.34C216.83 3.2 219.68 2.6 221.51 3.18C223.94 3.96 227.06 3.5 229.6 3.5C232.3 3.5 234.86 4.13 237.53 4.33C243.97 4.81 250.12 5.96 256.64 5.32C260.9 4.9 265.18 4.71 269.47 4.71C272.34 4.71 275.2 3.97 278.06 3.9C288.85 3.66 299.61 4.04 310.4 3.5C313.41 3.35 316.36 3.09 319.37 3.09C321.27 3.09 323.05 4.18 324.94 4.4C328.76 4.83 332.58 4.71 336.41 4.71C341.24 4.71 345.7 6.19 350.43 6.64C353.34 6.92 358.86 7.51 361.4 5.92C364.41 4.05 367.88 3.5 371.4 3.5C373.45 3.5 375.31 4.35 377.32 4.71C381.17 5.41 385.19 5.12 389.09 5.12C396.57 5.12 404.43 5.76 411.82 4.51C414.74 4.01 417.6 2.69 420.56 2.69C422.61 2.69 424.51 3.5 426.45 4.1C428.97 4.89 431.42 4.71 434.05 4.94C440.54 5.49 446.89 6.73 453.42 6.73C455.11 6.73 457.03 6.99 458.68 6.55C459.99 6.21 461.1 5.43 462.46 5.21C465.95 4.62 469.87 5.16 473.36 5.52C476.36 5.83 479.03 7.14 482.1 7.14C486.07 7.14 489.58 7.21 493.39 8.35" stroke="black" stroke-width="2.61" stroke-linecap="round"></path></svg>