<svg viewBox="0 0 579 10" fill="none" xmlns="http://www.w3.org/2000/svg"><path d="M2.61 4.86C9.87 4.86 16.08 2.63 23.37 2.63C27.41 2.63 31.53 2.4 35.39 3.54C40.91 5.17 46.43 3.37 51.91 3.37C57.12 3.37 62.21 2.63 67.47 2.63C68.88 2.63 68.93 4.12 70.52 4.12C74.9 4.12 79.28 4.12 83.66 4.12C89.47 4.12 95.16 4.86 100.92 4.86C106.03 4.86 110.38 6.34 115.29 6.34C120.41 6.34 124.98 4.86 130.12 4.86C134.87 4.86 139.62 4.86 144.37 4.86C158.07 4.86 171.62 5.6 185.3 5.6C203.86 5.6 222.76 4.86 241.48 4.86C253.37 4.86 264.83 4.93 276.65 6.5C280 6.95 283.1 7.44 286.37 6.5C288.47 5.91 290.36 4.85 292.46 4.28C297.52 2.91 302.88 3.37 308.07 3.37C317.04 3.37 325.97 4.12 335.01 4.12C341.91 4.12 348.66 5.6 355.52 5.6C364.1 5.6 372.5 5.46 380.97 4.16C387.52 3.15 394.87 3.37 401.85 3.37C418.51 3.37 434.96 3.95 451.52 5.02C467.51 6.05 483.3 6.97 499.21 4.49C508.21 3.08 517.31 4.86 526.31 4.86C531.9 4.86 537.48 4.86 543.07 4.86C549.38 4.86 555.61 4.12 561.93 4.12C566.82 4.12 572.09 1.96 576.39 4.12" stroke="black" stroke-width="2.61" stroke-linecap="round"></path></svg>