<svg width="534" height="66" viewBox="0 0 534 66" fill="none" xmlns="http://www.w3.org/2000/svg">
<rect width="527.22" height="60.9" transform="translate(2.21387 2.60718)" fill="black"/>
<path d="M2.52395 62.9963C2.52395 60.7548 2.22629 58.6893 1.67046 56.5278C1.4673 55.7377 1.51324 54.965 1.51324 54.147C1.51324 53.3031 1.91752 52.5974 1.91752 51.7886C1.91752 49.7823 2.02076 47.75 1.90629 45.7468C1.83761 44.5448 1.34043 43.4079 1.31109 42.1756C1.28956 41.2711 1.31758 40.4355 1.46832 39.5478C1.88279 37.107 2.07907 34.7807 2.13089 32.2931C2.20968 28.5114 2.32181 24.7606 2.32181 20.9732C2.32181 16.9375 1.87753 12.6948 2.47903 8.70988C2.76045 6.84544 2.32181 5.00663 2.32181 3.16219C2.32181 1.98961 5.76367 2.70269 6.70155 2.51085C8.58409 2.12578 10.3086 2.09849 12.2268 2.30871C14.7105 2.58089 17.3208 2.35363 19.8183 2.35363C20.8579 2.35363 21.2824 2.07437 22.1654 1.65736C23.0284 1.24983 24.1402 1.27196 25.0853 1.35414C26.735 1.4976 28.5332 2.00134 30.1725 2.30871C32.1549 2.6804 34.4266 2.35363 36.4389 2.35363C38.6657 2.35363 40.8404 1.98226 43.0647 1.84827C44.8108 1.74308 46.5261 1.65654 48.1969 2.24132C49.2946 2.62552 51.3467 2.55364 52.4306 2.25255C54.0157 1.81225 56.1635 3.28175 57.6976 3.64509C59.5832 4.09168 61.6384 3.56815 63.4586 3.11727C67.3343 2.15724 71.1084 0.830512 75.1042 1.94934C77.1478 2.52152 79.043 3.36434 81.2022 3.36434C83.0065 3.36434 84.8108 3.36434 86.6151 3.36434C88.0296 3.36434 89.6856 3.62028 91.0398 3.11727C92.0268 2.75066 93.0697 2.15148 94.1393 2.15148C95.1725 2.15148 96.2057 2.15148 97.2388 2.15148C98.6491 2.15148 100.001 2.3948 101.416 2.3424C103.437 2.26758 105.432 1.82911 107.447 1.66859C108.336 1.59778 109.756 1.2976 110.67 1.58998C111.888 1.97966 113.443 1.7472 114.713 1.7472C116.061 1.7472 117.344 2.06394 118.677 2.16271C121.894 2.40101 124.969 2.97588 128.223 2.65684C130.355 2.44775 132.493 2.35363 134.635 2.35363C136.07 2.35363 137.499 1.98104 138.925 1.94934C144.316 1.82954 149.695 2.01671 155.085 1.7472C156.587 1.6721 158.062 1.54506 159.566 1.54506C160.515 1.54506 161.403 2.08839 162.351 2.1964C164.255 2.4133 166.164 2.35363 168.078 2.35363C170.493 2.35363 172.719 3.09515 175.086 3.31942C176.536 3.45676 179.295 3.75151 180.566 2.96005C182.067 2.0259 183.803 1.7472 185.564 1.7472C186.586 1.7472 187.514 2.17125 188.517 2.35363C190.445 2.70403 192.45 2.55577 194.402 2.55577C198.138 2.55577 202.064 2.87941 205.756 2.25255C207.213 2.00507 208.646 1.34291 210.124 1.34291C211.149 1.34291 212.095 1.74894 213.066 2.05041C214.325 2.44116 215.551 2.35401 216.862 2.46593C220.107 2.74291 223.277 3.36434 226.542 3.36434C227.388 3.36434 228.346 3.49346 229.17 3.2745C229.825 3.10058 230.376 2.71412 231.057 2.60069C232.803 2.30975 234.762 2.57929 236.504 2.75791C238.003 2.91168 239.338 3.56648 240.872 3.56648C242.852 3.56648 244.607 3.60196 246.51 4.17291" stroke="black" stroke-width="2.61" stroke-linecap="round"/>
<path d="M243.279 2.66223C246.911 2.66223 250.013 1.55033 253.657 1.55033C255.681 1.55033 257.739 1.43122 259.669 2.00333C262.426 2.82022 265.186 1.92097 267.926 1.92097C270.534 1.92097 273.078 1.55033 275.71 1.55033C276.411 1.55033 276.439 2.2916 277.233 2.2916C279.423 2.2916 281.612 2.2916 283.802 2.2916C286.706 2.2916 289.55 2.66223 292.429 2.66223C294.987 2.66223 297.158 3.40349 299.615 3.40349C302.176 3.40349 304.461 2.66223 307.028 2.66223C309.403 2.66223 311.777 2.66223 314.152 2.66223C321.001 2.66223 327.778 3.03286 334.619 3.03286C343.896 3.03286 353.346 2.66223 362.705 2.66223C368.651 2.66223 374.381 2.69803 380.289 3.48585C381.963 3.70899 383.512 3.95358 385.149 3.48585C386.198 3.18606 387.145 2.65816 388.196 2.37396C390.726 1.69019 393.402 1.92097 396 1.92097C400.485 1.92097 404.947 2.2916 409.466 2.2916C412.918 2.2916 416.29 3.03286 419.72 3.03286C424.009 3.03286 428.21 2.96383 432.445 2.31219C435.721 1.8082 439.395 1.92097 442.885 1.92097C451.213 1.92097 459.439 2.21049 467.717 2.74459C475.71 3.26026 483.606 3.7199 491.561 2.47691C496.061 1.77381 500.611 2.66223 505.11 2.66223C507.903 2.66223 510.697 2.66223 513.49 2.66223C516.646 2.66223 519.758 2.2916 522.921 2.2916C525.363 2.2916 527.996 1.21557 530.148 2.2916" stroke="black" stroke-width="2.61" stroke-linecap="round"/>
<path d="M2.73926 63.816C6.23799 63.816 9.09647 61.6853 12.5404 61.5923C18.1127 61.4417 23.6483 61.9629 29.2188 61.9629C32.5052 61.9629 35.8533 61.6205 38.9376 62.8689C42.4891 64.3064 46.1803 63.8579 49.8918 63.3631C54.1925 62.7896 58.7779 61.9629 63.111 61.9629C66.33 61.9629 69.549 61.9629 72.768 61.9629C74.8892 61.9629 77.3972 61.5869 79.4599 62.0453C86.5542 63.6218 94.2385 61.4084 101.348 62.8895C103.833 63.4072 106.671 63.0748 109.193 63.0748C112.515 63.0748 115.837 63.0748 119.159 63.0748C125.109 63.0748 131.06 63.0748 137.011 63.0748C141.715 63.0748 146.361 63.2741 151.033 63.4248C156.324 63.5955 161.538 63.1056 166.805 63.4248C179.769 64.2105 192.543 63.3135 205.495 62.7247C211.883 62.4344 217.344 61.4993 223.8 62.8689C230.246 64.2361 236.924 62.1115 243.361 62.3335C248.152 62.4987 252.912 63.0748 257.734 63.0748C261.664 63.0748 265.571 62.7042 269.511 62.7042C273.111 62.7042 276.799 62.5026 280.383 62.7865C285.161 63.165 289.945 63.0748 294.735 63.0748C297.495 63.0748 300.169 62.3335 302.951 62.3335C310.034 62.3335 317.117 62.3335 324.2 62.3335C327.965 62.3335 331.766 62.7042 335.566 62.7042C342.134 62.7042 348.67 62.3335 355.21 62.3335C362.452 62.3335 370.416 61.4854 377.365 63.7337C379.783 64.5159 382.506 64.7575 385.045 64.5367C387.314 64.3395 389.345 62.7042 391.696 62.7042C398.16 62.7042 404.485 63.816 410.948 63.816C415.032 63.816 419.116 63.816 423.2 63.816C426.31 63.816 429.378 63.775 432.466 64.1867C433.615 64.3399 435.031 64.7516 436.213 64.5367C444.43 63.0427 452.782 62.7042 461.128 62.7042C468.543 62.7042 476.109 62.28 483.448 63.0954C483.974 63.1538 484.586 63.3205 485.095 63.466C486.016 63.7291 486.973 63.2484 487.978 63.1571C491.794 62.8102 495.716 63.0748 499.55 63.0748C502.937 63.0748 506.077 63.816 509.433 63.816C516.74 63.816 523.985 63.4454 531.259 63.4454" stroke="black" stroke-width="2.61" stroke-linecap="round"/>
<path d="M532.519 3.40234C532.519 6.29676 531.778 9.09569 531.778 12.0092C531.778 14.2056 531.778 16.4019 531.778 18.5982C531.778 24.4273 532.148 30.2208 532.148 36.0179C532.148 38.7427 532.148 41.4675 532.148 44.1924C532.148 47.0542 531.918 49.4671 531.428 52.1609C531.017 54.4222 531.89 56.4864 532.128 58.6264C532.296 60.1412 531.855 61.7461 532.519 63.074" stroke="black" stroke-width="2.61" stroke-linecap="round"/>
</svg>
