<svg width="456" height="240" viewBox="0 0 456 240" fill="none" xmlns="http://www.w3.org/2000/svg">
<rect width="456" height="240" fill="white"/>
<path d="M110.226 77.0449C110.226 71.7245 113.525 67.355 113.724 62.1868C113.956 56.1525 116.513 50.1401 117.59 44.219C118.019 41.8598 118.672 39.5219 119.188 37.2003C119.768 34.5884 120.382 31.2896 121.412 28.8427C122.224 26.9156 122.037 24.3855 122.751 22.3207C123.44 20.3303 123.686 18.1746 124.241 16.2306C124.748 14.4576 127.354 18.2357 127.524 18.5414C128.296 19.9311 130.246 21.1186 130.828 22.4287C131.606 24.1796 134.046 26.5687 135.493 27.8709C137.011 29.237 137.715 31.1446 139.078 32.6436C142.631 36.5516 145.882 40.5965 148.537 45.1476C149.589 46.9522 151.164 48.4078 152.424 50.0283C153.629 51.5775 155.639 55.2422 157.262 56.0536" stroke="black" stroke-width="4" stroke-linecap="round"/>
<path d="M157 55.706C158.807 55.555 161.249 53.1821 162.712 52.4262C166.158 50.6453 169.902 49.2991 173.074 47.2046C175.711 45.4637 177.93 43.7254 181.025 42.5008C183.843 41.3857 187.533 40.1328 189.808 38.4227C192.583 36.3373 197.515 32.3222 201 30.9355C204.868 29.396 208.382 27.1253 212.367 25.6275C216.172 24.1971 219.282 22.0921 222.958 20.5569C226.001 19.2863 228.683 17.4908 231.885 16.5652C235.613 15.4875 237.24 12.9368 240.585 11.5C241.871 10.9479 250 5.1329 250 6.99994C250 9.01488 248.967 18.0659 248.967 19.9743C248.967 21.2747 248.666 22.5707 248.421 23.8582C248.297 24.5128 247.677 27.4299 247.158 27.7421C246.278 28.2713 246.589 30.1525 246.269 30.9355C245.556 32.6771 244.89 34.3912 244.431 36.2003C243.542 39.7116 241.733 43.392 241.733 46.9888C241.733 48.3922 241.004 50.2714 240.585 51.6495C240.006 53.5532 239.683 55.6262 238.863 57.4753C237.098 61.4555 235.952 71.6489 234 75.5C232.32 78.8142 229.641 75.6972 228.788 79.225C228.214 81.5981 226.75 83.6008 226.75 86.0002" stroke="black" stroke-width="4" stroke-linecap="round"/>
<path d="M210.818 86.5872C212.215 86.4126 217.447 82.3864 218.427 81.5147C221.837 78.4838 228.045 76.3094 232.33 74.7514C242.126 71.1892 252.201 65.4264 261.543 60.755C271.234 55.91 281.475 51.3808 291.603 47.6981C295.57 46.2555 300.676 42.2488 304.66 41.7801C308.982 41.2716 316.317 37.781 320.347 35.8622C337.375 27.7534 356.752 24.2705 374.641 18.766C389.035 14.3371 403.606 12.1905 418.791 12.1905C425.315 12.1905 431.976 11.4182 437.766 14.7268C441.074 16.617 440.61 17.156 437.39 18.766C434.003 20.4594 430.042 20.9695 426.822 22.7582C424.743 23.9134 420.392 25.4294 417.946 25.7172C415.712 25.98 412.847 29.2071 410.759 30.367C404.67 33.7501 400.293 38.8478 394.697 42.5786C389.079 46.3238 384.56 50.1179 380.559 55.1189C377.479 58.969 382.471 57.8431 385.397 57.8431C388.815 57.8431 391.719 56.9976 395.119 56.9976C398.657 56.9976 402.196 56.9976 405.734 56.9976C408.997 56.9976 412 58.5 415.409 59.5339C421 61.2291 422.518 62.1939 425.977 62.9625C431.068 64.0939 425.446 66.6271 423.863 67.3305C417.919 69.9724 411.646 72.1958 405.264 73.1075C400.288 73.8184 396.174 78.3601 391.55 80.0118C387.44 81.4794 383.669 83.9184 379.479 84.8494C376.557 85.4987 372.46 87.2737 369.757 87.4326C367.892 87.5423 360.29 89.1235 365.952 89.1235C369.59 89.1235 372.408 88.897 375.675 90.6264C379.583 92.6957 382.957 95.742 387.088 97.5777C394.6 100.916 401.768 103.172 409 107C414.243 109.776 420 112.5 426 116C429 117.75 432.703 121.12 433.116 122.564C434.212 126.4 425.627 124.433 423.863 123.598C417.216 120.449 326 109.226 218.427 130.5" stroke="black" stroke-width="4" stroke-linecap="round"/>
<path d="M114.994 63.1765C111.081 63.1765 107.667 61.2894 104.168 59.7666C98.8047 57.4318 93.2754 55.5944 88.3367 52.3785C82.0925 48.3125 75.2714 45.1884 69.2032 40.8768C64.7895 37.7407 59.1938 35.6304 55.3471 31.7837C52.8257 29.2623 49.7418 28.1005 47.0658 25.911C40.0095 20.1377 32.1326 14.5539 23.1964 12.0007C22.3779 11.7669 18.9368 9.90057 18.1627 10.6746C17.9241 10.9132 22.8279 23.7052 23.1964 24C26.9757 33.5237 44.3595 69.6171 47.0658 73C48.3879 74.6526 50.3658 79.0681 50.8276 81.1459C51.1791 82.7277 52.3282 86.7577 53.5339 87.7222C54.7048 88.659 55.2543 91.2886 55.8342 92.5935C56.8199 94.8113 58.2857 96.9203 59.623 98.9262" stroke="black" stroke-width="4" stroke-linecap="round"/>
<path d="M34.1293 34.9233C34.1293 41.312 38.1505 46.5871 40.5703 52.2977C43.2961 58.7307 46.3757 64.3863 50.5835 69.9968C52.6645 72.7714 54.901 76.3658 56.4291 79.2523C57.7143 81.68 59.5615 83.9086 60.9215 86.2886C62.0042 88.1833 68.9063 98.4151 67.0107 99.4682C64.5545 100.833 60.2685 100.477 57.4845 101.173C52.1477 102.507 55.5118 88.5359 50.5835 91C44.3391 94.1222 29.2749 105.691 22.9996 108.48C21.0815 109.333 13.368 113.677 9.49962 115.895C2.86802 119.698 33.0126 131.268 36.5109 131.807C39.1119 132.207 41.7077 132.742 44.2779 133.403C46.0546 133.86 49.0439 134.145 50.5835 135C52.4228 136.022 54.8555 135.818 56.8892 136.326C58.8052 136.805 61.0192 137.407 62.9783 137.652C65.1643 137.925 71.7682 139.129 72.748 141.089" stroke="black" stroke-width="4" stroke-linecap="round"/>
<path d="M64.3319 130.401C61.7135 133.31 60.3647 137.815 58.4322 141.172C53.9112 149.024 49.2992 156.853 44.3595 164.446C39.7132 171.587 35.5465 178.991 30.9904 186.15C27.2931 191.96 24.8789 198.622 20.8689 204.174C18.9399 206.845 16.4838 210.794 15.5917 213.917C14.4266 217.995 10.9623 221.595 9.80023 225.662C8.71526 229.459 11.526 226.691 13.4267 225.635C16.2207 224.083 18.4892 221.965 21.4643 220.52C28.7788 216.967 36.6419 214.772 43.8723 211.156C47.8089 209.188 51.876 207.398 55.8341 205.419C59.8021 203.435 63.3589 201.019 67.2276 198.843C73.1381 195.518 78.736 191.614 84.7914 188.586C87.0855 187.439 89.1876 185.734 91.3947 184.472C93.6485 183.185 96.2793 182.497 98.431 181.063" stroke="black" stroke-width="4" stroke-linecap="round"/>
<path d="M98.918 181.063C98.918 186.568 98.8813 191.458 100.488 196.759C102.245 202.56 104.059 208.741 105.251 214.702C106.079 218.842 107.778 224.978 111.205 227.719C114.713 230.526 117.612 222.05 117.943 220.06C118.532 216.528 120.839 212.866 120.839 209.316C120.839 204.144 123.086 198.941 123.735 193.755C123.983 191.771 124.691 183.011 127.659 183.011C132.727 183.011 139.688 187.678 143.68 190.562C153.043 197.324 161.125 205.761 169.254 213.89C171.272 215.907 173.482 217.63 175.506 219.654C177.111 221.259 178.81 223.655 180.648 224.904C182.507 226.169 184.423 227.317 186.331 228.531C187.634 229.36 190.576 231.237 192.204 231.237C193.946 231.237 193.542 226.375 193.313 225.283C192.846 223.051 191.144 221.287 190.12 219.546C188.269 216.399 185.656 213.399 184.166 210.047C181.849 204.833 180.022 199.384 177.725 194.215C175.774 189.826 175.151 184.987 173.233 180.603C171.985 177.75 171.013 173.422 171.013 170.346" stroke="black" stroke-width="4" stroke-linecap="round"/>
<path d="M170.526 170.345C178.411 170.345 186.86 172.855 193.638 176.922C198.135 179.62 203.199 182.271 207.981 184.445C211.524 186.056 214.965 188.921 218.238 191.048C220.313 192.397 222.028 194.175 224.138 195.406C225.912 196.44 227.852 197.162 229.686 198.328C233.656 200.855 237.427 203.751 241.675 205.662C252.072 210.341 261.519 217.152 272.12 221.007C276.55 222.618 280.641 225.856 285.246 226.88C286.688 227.2 287.925 228.519 287.925 226.122C287.925 223.881 287.308 223.638 286.464 221.738C285.194 218.882 282.352 216.244 280.618 213.592C278.053 209.669 274.709 206.084 272.445 202.009C270.725 198.914 268.434 196.301 266.004 193.728C263.206 190.765 261.443 186.893 258.697 183.985C252.76 177.699 248.577 169.831 242.622 163.526C241.036 161.846 237.554 158.055 237.263 155.731C236.95 153.221 232.392 151.523 232.392 148.912" stroke="black" stroke-width="4" stroke-linecap="round"/>
<path d="M232.393 148.912C242.497 148.912 252.494 151.303 262.595 151.835C267.371 152.086 272.062 152.809 276.965 152.809C277.922 152.809 280.804 153.312 281.079 152.078C281.302 151.074 276.6 148.937 275.747 148.533C274.195 147.797 272.48 147.344 270.876 146.584C268.495 145.457 266.833 143.608 264.57 142.335C260.674 140.144 256.956 137.919 252.852 135.867C247.02 132.952 241.3 129.078 236.777 124.555" stroke="black" stroke-width="4" stroke-linecap="round"/>
<path d="M18.5 12L47.5 92.5L6.5 116.5L32 130L52.5 133.5L32 183L10.5 227L54.5 205.5L99 180V189L109 225.5L114.5 227L120 207L125.5 183H136L179.5 223.5L193 231.5V225.5L177 193L171 169.5H179.5L205.5 183L272 221.5L288.5 227L253 176.5L233 149L277.5 151.5L237.5 127L301 118.5H397L431 123.5L428 118.5L387 98L369.5 88L402 73.5L428 64.5L408.5 57.5L382 59L379.5 55.5L415 26L439.5 17L428 12L392 15L361.5 23.5L303.5 42.5L246 66L235 73L244 39.5L249 18.5L250 6C244.8 7.2 173.5 43.5 157 58.5L143.5 38.5L125.5 18.5L114.5 64L80.5 48.5L31.5 14.5L18.5 12Z" fill="black"/>
<path d="M69.3529 112.855C67.584 104.638 74.8422 129.209 80.3787 135.533C83.7036 139.33 83.9531 146.92 87.4953 149.808C88.4523 150.589 89.2478 156.605 90.0367 152.832C90.5978 150.149 91.0021 147.56 90.391 144.721C90.1044 143.389 92.4166 130.429 93.9314 131.407C94.843 131.996 96.3872 135.891 97.4578 137.055C99.3922 139.158 101.317 140.728 103.222 142.852C104.426 144.195 106.746 146.187 108.367 146.996C111.426 148.521 109.519 145.759 108.944 143.09C107.422 136.02 110.373 128.262 110.831 121.362C111.176 116.165 112.001 108.991 110.907 103.91" stroke="white" stroke-width="8" stroke-linecap="round"/>
<path d="M129.644 103.874C127.087 104.521 125.891 108.233 125.093 110.277C123.921 113.277 124.41 116.552 124.585 119.712C124.845 124.415 127.034 128.905 128.334 133.435C129.029 135.858 130.255 138.521 133.081 139.142C135.657 139.708 137.25 142.404 139.625 143.403C141.706 144.279 143.663 144.658 145.671 145.4C148.533 146.456 150.931 144.86 153.149 143.458C153.808 143.041 154.719 141.085 155.034 140.278C155.703 138.566 156.695 136.61 156.934 134.766C157.346 131.588 158.104 128.712 157.924 125.464C157.762 122.548 157.584 119.726 157.097 116.866C156.535 113.567 155.055 110.471 154.686 107.191C154.447 105.071 151.434 102.637 149.907 101.304C148.013 99.6514 144.783 97.9698 142.146 98.1159C139.89 98.2408 136.713 97.864 134.757 99.0678C133.016 100.14 129.357 101.68 128.514 103.575" stroke="white" stroke-width="8" stroke-linecap="round"/>
<path d="M164.096 92.2225C164.199 94.085 164.826 95.1926 165.575 96.883C167.118 100.364 168.969 104.132 170.949 107.341C172.847 110.416 174.225 113.822 176.05 116.935C177.137 118.789 177.765 121.05 179.215 122.626C180.393 123.907 181.771 126.999 181.996 128.73C182.13 129.769 182.963 132.978 183.584 133.727C184.172 134.436 183.999 135.508 183.905 133.807C183.853 132.863 184.152 131.573 184.457 130.696C185.496 127.71 185.5 123.935 186.532 120.803C187.601 117.561 188.359 114.223 189.476 111.058C189.811 110.107 189.587 108.702 190.303 108.029C190.432 107.908 192.224 110.237 192.587 110.47C196.098 112.715 198.757 116.186 201.834 118.978C203.726 120.693 206.076 124.106 206.735 126.602C206.815 126.904 207.882 128.91 208.264 128.889C208.631 128.869 208.331 126.426 208.312 126.075C208.049 121.334 207.629 116.642 208.57 111.956C209.791 105.878 212.114 99.1602 211.766 92.8825C211.567 89.2961 213.803 85.5609 213.606 82.0002" stroke="white" stroke-width="8" stroke-linecap="round"/>
</svg>
