<svg width="456" height="240" viewBox="0 0 456 240" fill="none" xmlns="http://www.w3.org/2000/svg">
<g clip-path="url(#clip0_7416_2748)">
<rect width="456" height="240" fill="white"/>
<path d="M162.863 126.117C158.58 136.927 158.695 150.245 161.405 160.417C164.115 170.589 167.873 190.275 184.825 196.991C196.763 201.72 208.75 203.841 220.893 205.046C258.828 208.81 264.721 167.567 274.443 143.027C283.797 119.417 250.652 88.9885 228.947 89.4512C207.77 89.9025 195.235 87.7483 177.389 103.06C169.22 110.069 166.894 115.941 162.981 125.818L162.863 126.117Z" fill="black" stroke="black" stroke-width="3" stroke-linecap="round"/>
<path d="M261.676 126.106C257.394 136.916 257.509 150.234 260.219 160.406C262.928 170.578 266.687 190.264 283.639 196.98C295.577 201.71 307.564 203.83 319.706 205.035C357.641 208.8 363.535 167.556 373.257 143.017C382.611 119.406 349.466 88.9778 327.761 89.4404C306.584 89.8918 294.049 87.7376 276.203 103.049C268.033 110.058 265.707 115.93 261.795 125.807L261.676 126.106Z" fill="black" stroke="black" stroke-width="3" stroke-linecap="round"/>
<path d="M88.5086 73.0232C84.9846 81.9181 85.0795 92.8764 87.3091 101.246C89.5387 109.616 92.6314 125.814 106.58 131.34C116.403 135.232 126.266 136.977 136.257 137.968C167.471 141.066 172.321 107.129 180.32 86.9379C188.017 67.5106 160.744 42.4732 142.885 42.8538C125.46 43.2252 115.146 41.4527 100.461 54.0515C93.7392 59.8189 91.8253 64.6504 88.6059 72.7775L88.5086 73.0232Z" fill="black" stroke="black" stroke-width="3" stroke-linecap="round"/>
<path d="M108.454 43.8352C108.454 34.5425 101.702 25.6939 97.4789 17.7248C95.4656 13.9255 92.7869 10.1109 90.9291 6.39551" stroke="black" stroke-width="5" stroke-linecap="round"/>
<path d="M165.681 50.5484C170.471 45.7593 174.408 40.2289 179.223 35.4133C182.161 32.4755 185.972 26.8611 189.579 25.0576" stroke="black" stroke-width="5" stroke-linecap="round"/>
<path d="M348.482 194.546C348.482 204.769 348.482 214.992 348.482 225.215C348.482 229.198 345.454 228.003 342.11 228.003" stroke="black" stroke-width="5" stroke-linecap="round"/>
<path d="M321.417 203.305C321.417 210.208 321.417 217.112 321.417 224.016C321.417 225.485 322.228 228.796 320.178 228.796C318.201 228.796 316.225 228.796 314.248 228.796" stroke="black" stroke-width="5" stroke-linecap="round"/>
<path d="M292.734 202.52C292.734 210.718 293.189 219.032 292.734 227.214C292.713 227.606 286.302 227.214 284.769 227.214" stroke="black" stroke-width="5" stroke-linecap="round"/>
<path d="M245.233 192.669C245.233 202.892 245.233 213.115 245.233 223.338C245.233 227.321 242.205 226.126 238.861 226.126" stroke="black" stroke-width="5" stroke-linecap="round"/>
<path d="M218.153 201.432C218.153 208.335 218.153 215.239 218.153 222.143C218.153 223.612 218.963 226.922 216.913 226.922C214.937 226.922 212.96 226.922 210.983 226.922" stroke="black" stroke-width="5" stroke-linecap="round"/>
<path d="M189.485 200.645C189.485 208.843 189.94 217.157 189.485 225.339C189.464 225.731 183.053 225.339 181.52 225.339" stroke="black" stroke-width="5" stroke-linecap="round"/>
<path d="M114.471 43.2731C121.195 43.2731 125.827 46.7837 132.552 46.7837C133.747 49.1173 140.512 51.5072 142.734 53.8048L142.865 53.9401C145.147 56.2983 148.392 59.653 149.725 62.5812C151.193 65.8061 152.546 69.1184 153.72 72.4303C155.373 77.0925 154.419 83.1104 154.419 88.0329C154.419 99.3625 147.317 106.508 139.139 113.923C129.797 122.393 116.445 124.016 104.284 124.016C94.3002 124.016 83.9566 114.475 78.9164 106.658C72.7629 97.1158 79.2617 82.6986 80.6641 73.113C81.3585 68.3667 85.6814 63.4851 88.3043 59.4607C91.8203 54.0659 96.6712 49.7838 101.837 45.5159C105.475 42.51 110.01 43.2731 114.471 43.2731Z" fill="white" stroke="black" stroke-width="5" stroke-linecap="round"/>
<path fill-rule="evenodd" clip-rule="evenodd" d="M97.3448 82.6211C95.7407 82.6211 94.4404 83.9214 94.4404 85.5255C94.4404 90.2175 95.176 94.5957 97.3465 99.0534C98.9677 102.383 102.422 104.381 105.659 105.376C108.947 106.386 112.745 106.598 115.804 105.668C118.728 104.779 121.97 103.174 124.537 100.864C127.114 98.5467 129.226 95.3053 129.226 91.2452C129.226 89.6411 127.925 88.3408 126.321 88.3408C124.717 88.3408 123.417 89.6411 123.417 91.2452C123.417 93.1372 122.454 94.9252 120.653 96.5453C118.843 98.1733 116.404 99.4141 114.114 100.11C112.414 100.627 109.829 100.58 107.365 99.8234C104.85 99.0506 103.183 97.7719 102.569 96.5105C100.869 93.0195 100.249 89.5536 100.249 85.5255C100.249 83.9214 98.9488 82.6211 97.3448 82.6211Z" fill="black" stroke="white" stroke-linecap="round"/>
<path fill-rule="evenodd" clip-rule="evenodd" d="M131.158 79.9954C129.755 79.643 128.803 78.2908 128.987 76.8189C129.186 75.2272 130.638 74.0982 132.23 74.2971C132.314 74.3077 132.382 74.3116 132.538 74.3205L132.55 74.3211C132.554 74.3214 132.56 74.3216 132.567 74.322C132.671 74.327 133.083 74.3469 133.495 74.4592C134.099 74.6242 134.93 75.0397 135.456 75.978C135.871 76.7173 135.889 77.4407 135.889 77.7368C135.889 79.3408 134.588 80.6412 132.984 80.6412C132.292 80.6412 131.657 80.3993 131.158 79.9954ZM132.313 80.1273C132.313 80.1272 132.306 80.1264 132.288 80.125C132.304 80.1267 132.312 80.1274 132.313 80.1273Z" fill="black"/>
<path fill-rule="evenodd" clip-rule="evenodd" d="M97.7431 72.7425C96.3401 72.3901 95.3883 71.0379 95.5723 69.5659C95.7713 67.9743 97.2229 66.8453 98.8145 67.0442C98.8993 67.0548 98.9673 67.0587 99.1227 67.0675L99.1345 67.0682C99.1386 67.0684 99.1446 67.0687 99.1522 67.0691C99.2562 67.0741 99.6684 67.0939 100.08 67.2063C100.684 67.3713 101.515 67.7868 102.041 68.7251C102.456 69.4644 102.474 70.1878 102.474 70.4838C102.474 72.0879 101.173 73.3882 99.5692 73.3882C98.8774 73.3882 98.242 73.1463 97.7431 72.7425ZM98.8979 72.8744C98.8984 72.8743 98.8907 72.8734 98.873 72.8721C98.8885 72.8738 98.8974 72.8745 98.8979 72.8744Z" fill="black"/>
<path fill-rule="evenodd" clip-rule="evenodd" d="M108.879 88.3411C107.476 87.9887 106.524 86.6365 106.708 85.1646C106.907 83.5729 108.359 82.4439 109.95 82.6429C110.035 82.6534 110.103 82.6573 110.258 82.6662L110.27 82.6668C110.274 82.6671 110.28 82.6674 110.288 82.6677C110.392 82.6727 110.804 82.6926 111.216 82.8049C111.82 82.9699 112.65 83.3854 113.177 84.3237C113.592 85.063 113.609 85.7864 113.609 86.0825C113.609 87.6865 112.309 88.9869 110.705 88.9869C110.013 88.9869 109.378 88.745 108.879 88.3411ZM110.034 88.473C110.034 88.4729 110.026 88.4721 110.009 88.4707C110.024 88.4724 110.033 88.4731 110.034 88.473Z" fill="black"/>
</g>
<defs>
<clipPath id="clip0_7416_2748">
<rect width="456" height="240" fill="white"/>
</clipPath>
</defs>
</svg>
