<svg width="410" height="353" viewBox="0 0 410 353" fill="none" xmlns="http://www.w3.org/2000/svg">
<path fill-rule="evenodd" clip-rule="evenodd" d="M16.1208 27.0295C7.73905 29.1427 1.6034 36.8042 1.7628 45.819C1.79811 47.8159 1.73766 49.8994 1.66036 52.5633C1.63328 53.4967 1.60413 54.5013 1.57631 55.5985C1.47824 59.4658 1.41547 64.1423 1.77487 68.9389C2.46208 78.1105 4.89976 91.187 15.2745 101.162C23.7997 109.359 35.8668 114.092 46.5151 116.201C57.0826 118.294 70.3681 118.614 81.6816 113.633C90.8759 109.584 98.4783 102.601 103.748 94.793C109.009 86.9982 112.832 77.0472 112.643 66.3546C112.369 50.911 105.007 40.0351 98.1207 32.3953C95.2066 29.1626 92.0088 26.1176 89.4098 23.6429C89.0843 23.3329 88.7681 23.0318 88.4631 22.7405C85.4755 19.8869 83.228 17.665 81.3865 15.4534C77.2694 10.5088 71.9605 8.81564 70.0907 8.26037C67.4882 7.48756 64.9177 7.12155 62.8431 6.92615C58.6093 6.52738 53.9527 6.61974 49.7209 6.96749C45.4741 7.3165 40.8653 7.9878 36.7298 9.05444C34.6879 9.5811 32.2823 10.3252 29.9172 11.409C28.0725 12.2544 23.8137 14.3646 20.5211 18.7388C18.4891 21.4381 17.0904 24.2891 16.1208 27.0295Z" fill="white" stroke="black" stroke-width="3" stroke-linecap="round"/>
<path fill-rule="evenodd" clip-rule="evenodd" d="M308.097 21.8649C299.715 23.9782 293.579 31.6396 293.739 40.6545C293.774 42.6514 293.714 44.7349 293.636 47.3987C293.609 48.3321 293.58 49.3368 293.552 50.4339C293.454 54.3013 293.392 58.9777 293.751 63.7744C294.438 72.946 296.876 86.0225 307.251 95.9975C315.776 104.194 327.843 108.927 338.491 111.036C349.059 113.129 362.344 113.45 373.658 108.468C382.852 104.419 390.454 97.4368 395.724 89.6285C400.985 81.8336 404.808 71.8827 404.619 61.19C404.346 45.7464 396.984 34.8705 390.097 27.2308C387.183 23.998 383.985 20.9531 381.386 18.4783C381.06 18.1683 380.744 17.8673 380.439 17.576C377.452 14.7224 375.204 12.5005 373.363 10.2888C369.246 5.34429 363.937 3.65109 362.067 3.09582C359.464 2.32301 356.894 1.957 354.819 1.7616C350.585 1.36283 345.929 1.45519 341.697 1.80294C337.45 2.15195 332.841 2.82325 328.706 3.88989C326.664 4.41655 324.258 5.16064 321.893 6.24446C320.049 7.08981 315.79 9.20009 312.497 13.5742C310.465 16.2736 309.067 19.1246 308.097 21.8649Z" fill="white" stroke="black" stroke-width="3" stroke-linecap="round"/>
<path fill-rule="evenodd" clip-rule="evenodd" d="M176.649 107.641C170.802 110.975 166.909 117.315 167.036 124.52C167.05 125.283 167.028 126.033 166.993 127.243C166.978 127.74 166.962 128.315 166.944 129C166.894 130.994 166.85 133.726 167.067 136.623C167.47 141.994 168.977 151.446 176.711 158.882C182.739 164.678 190.703 167.614 197.077 168.877C203.371 170.123 212.212 170.548 220.344 166.967C226.818 164.116 231.943 159.327 235.43 154.162C238.907 149.009 241.64 142.15 241.504 134.451C241.31 123.492 235.999 115.931 231.796 111.269C230.076 109.36 228.196 107.572 226.923 106.361C226.762 106.208 226.612 106.065 226.472 105.932C224.976 104.502 224.21 103.724 223.674 103.08C219.75 98.3673 214.803 96.8608 213.422 96.4509C211.309 95.8234 209.355 95.5613 207.982 95.432C205.151 95.1654 202.237 95.2383 199.75 95.4427C197.247 95.6484 194.384 96.0525 191.657 96.7558C190.319 97.1007 188.534 97.6391 186.663 98.4966C185.312 99.1156 181.421 100.979 178.327 105.089C177.692 105.932 177.136 106.787 176.649 107.641Z" fill="white" stroke="black" stroke-linecap="round"/>
<path fill-rule="evenodd" clip-rule="evenodd" d="M58.0524 145.992C42.8892 148.23 32.1877 160.819 34.15 174.109C39.8896 212.982 52.1992 248.229 78.17 282.132C97.5688 307.456 132.665 319.19 164.482 322.913C196.803 326.695 232.961 323.145 260.742 311.17C287.294 299.724 315.975 281.901 337.422 259.183C358.943 236.386 374.94 206.584 369.973 172.945C368.011 159.656 354.128 150.697 338.965 152.936C323.801 155.175 313.1 167.763 315.062 181.053C317.377 196.729 310.463 212.886 295.418 228.823C280.3 244.837 258.759 258.521 237.971 267.482C222.53 274.139 198.033 277.361 173.818 274.528C149.099 271.636 131.778 263.368 124.429 253.775C104.091 227.224 93.9884 199.374 89.0608 166.001C87.0986 152.711 73.2156 143.753 58.0524 145.992Z" fill="white"/>
<path fill-rule="evenodd" clip-rule="evenodd" d="M94.9782 165.125C92.5937 148.976 75.7235 138.09 57.2975 140.81C38.8715 143.531 25.8673 158.828 28.2518 174.977C34.0788 214.442 46.6257 250.485 73.2027 285.18C93.9008 312.2 130.915 324.304 163.488 328.115C196.679 331.999 234.092 328.414 263.201 315.866C290.374 304.153 319.823 285.886 341.951 262.445C364.163 238.917 381.143 207.646 375.89 172.069C373.506 155.92 356.636 145.034 338.21 147.755C319.784 150.475 306.779 165.772 309.164 181.922C311.194 195.674 305.247 210.364 290.908 225.553C276.471 240.846 255.698 254.085 235.531 262.779C221.416 268.863 198.173 272.05 174.832 269.319C150.892 266.518 135.473 258.628 129.416 250.72C109.683 224.96 99.8183 197.906 94.9782 165.125ZM58.8266 151.166C70.727 149.409 81.6226 156.44 83.1626 166.87C88.1776 200.835 98.5173 229.481 119.462 256.822C128.102 268.101 147.326 276.747 172.823 279.73C197.912 282.666 223.663 279.407 240.43 272.179C261.839 262.951 284.148 248.821 299.947 232.086C315.698 215.4 323.578 197.776 320.979 180.177C319.439 169.747 327.838 159.867 339.739 158.11C351.639 156.353 362.535 163.384 364.075 173.814C368.755 205.514 353.742 233.849 332.913 255.913C312.146 277.91 284.234 295.287 258.301 306.466C231.849 317.868 196.947 321.383 165.496 317.704C134.435 314.07 101.256 302.706 83.1566 279.078C57.7918 245.966 45.7197 211.515 40.0673 173.233C38.5273 162.803 46.9261 152.923 58.8266 151.166Z" fill="black"/>
</svg>
