<svg width="233" height="203" viewBox="0 0 233 203" fill="none" xmlns="http://www.w3.org/2000/svg">
<path d="M109.411 39.0024C107.598 47.8082 105.339 60.2096 105.339 69.1831C102.287 63.079 93.9684 63.678 89.4081 59.6244C84.7089 55.4474 73.8755 52.7211 67.9011 50.0657C63.8089 48.247 60.0617 44.9512 55.9527 42.8967C53.0483 41.4445 49.8113 40.1892 47.2791 38.1174C46.9168 37.8209 43.3848 34.4504 43.3848 35.1082C43.3848 38.8907 47.4685 46.4562 48.8722 50.0657C50.8602 55.1779 53.0371 61.0122 55.9527 65.6428C59.5553 71.3647 64.806 78.7505 66.7505 85.1142C67.9502 89.0406 69.3742 94.2835 72.2379 97.5051C72.3014 97.5766 67.2687 98.3583 65.5114 99.0982C62.0217 100.568 56.6174 100.772 52.7665 101.842C39.1746 105.617 23.9377 108.014 12.1421 116.18C5.16456 121.011 -3.9815 126.535 9.7524 126.535C36.1106 126.535 62.2333 124.942 88.6115 124.942C92.1452 124.942 86.2509 130.605 84.6287 132.111C77.622 138.617 71.7455 149.719 67.2644 158.184L67.1045 158.486C62.0675 168 54.2045 180.968 52.855 191.764C52.644 193.452 51.6735 202.347 54.3596 199.818C72.096 183.125 95.1852 172.136 110.915 152.91C114.816 148.142 124.301 159.073 128.439 162.292C132.728 165.627 138.168 168.748 142.777 171.939C147.704 175.35 152.64 179.512 157.912 182.294C163.903 185.456 170.509 189.636 177.029 191.499C181.609 192.807 182.131 196.069 181.809 190.26C181.212 179.52 172.288 167.496 169.949 156.804C166.855 142.66 168.255 144.242 179.419 139.28C188.366 135.304 197.133 129.445 206.59 126.889C209.036 126.228 232.422 116.078 229.248 112.551C225.586 108.482 215.6 105.825 210.485 105.825C201.339 105.825 189.978 102.343 180.304 101.134C176.743 100.689 172.843 102.756 173.755 98.6557C174.335 96.0461 175.833 93.871 176.675 91.1327C180.61 78.3444 188.476 66.9994 194.554 54.8451C197.763 48.4254 202.25 40.1711 202.519 32.8955C202.712 27.7023 200.257 30.1235 196.943 30.8599C186.879 33.0963 181.136 44.3927 174.551 51.6588C169.517 57.2136 158.356 73.7753 150.743 75.467C147.681 76.1474 147.156 70.1099 146.406 67.944C143.908 60.7284 144.101 52.7946 142.335 45.2864C139.184 31.8969 134.621 20.7649 128.528 8.02524C125.692 2.095 125.459 0.415191 122.863 6.25511C121.322 9.72357 119.134 12.9352 118.084 16.6103C115.889 24.292 111.088 30.8555 109.411 39.0024Z" fill="black" stroke="black" stroke-width="5.26467" stroke-linecap="square"/>
<path fill-rule="evenodd" clip-rule="evenodd" d="M111.679 102.007C110.388 102.336 109.609 103.65 109.939 104.941C110.903 108.716 112.395 112.088 115.057 115.229C117.046 117.575 120.236 118.473 123.045 118.608C125.899 118.745 128.998 118.135 131.269 116.758C133.439 115.442 135.717 113.484 137.309 111.098C138.906 108.703 139.939 105.661 139.104 102.394C138.775 101.103 137.461 100.324 136.17 100.654C134.88 100.984 134.101 102.297 134.43 103.588C134.819 105.11 134.412 106.747 133.296 108.421C132.174 110.103 130.466 111.603 128.767 112.633C127.505 113.398 125.415 113.892 123.277 113.79C121.095 113.685 119.491 112.998 118.737 112.109C116.652 109.65 115.441 106.988 114.613 103.747C114.283 102.456 112.97 101.677 111.679 102.007Z" fill="white"/>
<path fill-rule="evenodd" clip-rule="evenodd" d="M138.354 92.939C137.153 92.9437 136.109 92.0514 135.955 90.8292C135.788 89.5077 136.724 88.301 138.045 88.134C138.115 88.1251 138.171 88.1142 138.298 88.0894L138.307 88.0875C138.311 88.0869 138.316 88.0859 138.322 88.0846C138.406 88.0673 138.742 87.9985 139.096 88.0044C139.616 88.013 140.37 88.1766 140.987 88.8233C141.472 89.3329 141.635 89.9113 141.696 90.1496C142.025 91.4402 141.246 92.7536 139.956 93.0833C139.399 93.2254 138.838 93.1614 138.354 92.939ZM139.31 92.8078C139.311 92.8076 139.304 92.8085 139.29 92.8111C139.302 92.8092 139.31 92.808 139.31 92.8078Z" fill="white"/>
<path fill-rule="evenodd" clip-rule="evenodd" d="M109.965 93.9751C108.764 93.9799 107.72 93.0875 107.566 91.8654C107.399 90.5438 108.335 89.3371 109.656 89.1701C109.727 89.1612 109.782 89.1504 109.909 89.1256L109.919 89.1237C109.922 89.123 109.927 89.122 109.933 89.1207C110.018 89.1034 110.354 89.0347 110.708 89.0405C111.228 89.0491 111.981 89.2128 112.598 89.8594C113.084 90.369 113.246 90.9475 113.307 91.1857C113.637 92.4763 112.858 93.7898 111.567 94.1194C111.011 94.2616 110.45 94.1975 109.965 93.9751ZM110.921 93.8439C110.922 93.8437 110.915 93.8447 110.901 93.8472C110.914 93.8454 110.921 93.8441 110.921 93.8439Z" fill="white"/>
<path fill-rule="evenodd" clip-rule="evenodd" d="M122.14 104.243C120.939 104.247 119.895 103.355 119.741 102.133C119.574 100.811 120.51 99.6047 121.831 99.4377C121.902 99.4288 121.957 99.418 122.084 99.3931L122.093 99.3913C122.097 99.3906 122.102 99.3896 122.108 99.3883C122.193 99.371 122.528 99.3022 122.883 99.3081C123.402 99.3167 124.156 99.4803 124.773 100.127C125.259 100.637 125.421 101.215 125.482 101.453C125.812 102.744 125.033 104.057 123.742 104.387C123.185 104.529 122.624 104.465 122.14 104.243ZM123.096 104.111C123.097 104.111 123.09 104.112 123.076 104.115C123.089 104.113 123.096 104.112 123.096 104.111Z" fill="white"/>
</svg>
