<svg width="535" height="119" viewBox="0 0 535 119" fill="none" xmlns="http://www.w3.org/2000/svg">
<path d="M47.3976 99.9575V85.7591H55.6452V87.9724H49.7361V91.2088H51.0307C53.933 91.2088 56.1045 92.4407 56.1045 95.5727C56.1045 98.7047 53.933 99.9575 50.8637 99.9575H47.3976ZM50.8637 97.786C52.6385 97.786 53.766 97.2849 53.766 95.5518C53.766 93.8188 52.6385 93.3177 51.0307 93.3177H49.7361V97.786H50.8637ZM60.8221 104.092C60.1122 104.092 59.6111 103.966 59.1935 103.799V101.586C59.7572 101.858 60.1957 101.962 60.6759 101.962C61.5529 101.962 62.1375 101.586 62.6804 100.25L58.4835 89.6428H61.0309L63.8915 97.264L66.4597 89.6428H68.9235L65.0816 100.166C64.0167 103.069 62.9519 104.092 60.8221 104.092ZM70.6344 102.254V97.8278H71.8037C72.2213 96.8673 72.4092 96.0321 72.5345 94.9463C72.6389 93.9858 72.6598 91.689 72.6598 89.6428H79.4875V97.8278H80.8238V102.254H78.5897V99.9575H72.8686V102.254H70.6344ZM73.9752 97.8278H77.1907V91.7934H74.6851C74.6642 93.0045 74.6016 94.1111 74.539 95.0298C74.4346 96.0947 74.2466 96.9299 73.9752 97.8278ZM85.2909 104.092C84.5809 104.092 84.0798 103.966 83.6622 103.799V101.586C84.226 101.858 84.6645 101.962 85.1447 101.962C86.0217 101.962 86.6063 101.586 87.1492 100.25L82.9523 89.6428H85.4997L88.3602 97.264L90.9285 89.6428H93.3923L89.5504 100.166C88.4855 103.069 87.4206 104.092 85.2909 104.092ZM103.894 102.254V99.9575H95.4372V89.6428H97.5043V97.8486H99.2165V89.6428H101.221V97.8486H102.933V89.6428H105V97.8486H106.065V102.254H103.894ZM113.372 100.125C109.739 100.125 108.256 97.7234 108.256 94.8002C108.256 91.6473 110.01 89.4758 112.808 89.4758C115.564 89.4758 117.047 91.5011 117.047 94.5078C117.047 94.9046 117.026 95.2386 117.005 95.5727H110.532C110.657 97.097 111.66 98.0574 113.372 98.0574C114.541 98.0574 115.439 97.8069 116.316 97.3266V99.5608C115.815 99.7696 114.75 100.125 113.372 100.125ZM110.553 93.7353H114.854C114.771 92.211 114.019 91.3967 112.808 91.3967C111.514 91.3967 110.741 92.2319 110.553 93.7353ZM125.606 100.125C121.973 100.125 120.491 97.7234 120.491 94.8002C120.491 91.6473 122.245 89.4758 125.042 89.4758C127.799 89.4758 129.281 91.5011 129.281 94.5078C129.281 94.9046 129.26 95.2386 129.239 95.5727H122.767C122.892 97.097 123.894 98.0574 125.606 98.0574C126.775 98.0574 127.673 97.8069 128.55 97.3266V99.5608C128.049 99.7696 126.984 100.125 125.606 100.125ZM122.787 93.7353H127.089C127.005 92.211 126.253 91.3967 125.042 91.3967C123.748 91.3967 122.975 92.2319 122.787 93.7353Z" fill="black"/>
<path d="M240.626 99.9575L237.327 85.7591H246.472V87.9724H240.292L243.089 99.9575H240.626ZM254.948 100.125C251.315 100.125 249.832 97.7234 249.832 94.8002C249.832 91.6473 251.586 89.4758 254.384 89.4758C257.14 89.4758 258.623 91.5011 258.623 94.5078C258.623 94.9046 258.602 95.2386 258.581 95.5727H252.108C252.234 97.097 253.236 98.0574 254.948 98.0574C256.117 98.0574 257.015 97.8069 257.892 97.3266V99.5608C257.391 99.7696 256.326 100.125 254.948 100.125ZM252.129 93.7353H256.43C256.347 92.211 255.595 91.3967 254.384 91.3967C253.09 91.3967 252.317 92.2319 252.129 93.7353ZM262.276 103.925V89.6428H264.426L264.51 90.3736C265.178 89.8725 265.909 89.5593 266.807 89.5593C269.417 89.5593 271.066 91.4385 271.066 94.7793C271.066 98.1201 269.417 100.041 266.807 100.041C265.825 100.041 265.157 99.8114 264.572 99.4564V103.925H262.276ZM266.201 97.9113C267.767 97.9113 268.769 96.8882 268.769 94.7793C268.769 92.6913 267.767 91.6682 266.201 91.6682C265.658 91.6682 265.032 91.8352 264.572 92.1902V97.3893C265.032 97.7651 265.679 97.9113 266.201 97.9113ZM278.644 100.125C275.888 100.125 274.03 97.9739 274.03 94.8002C274.03 91.6264 275.888 89.4758 278.644 89.4758C281.4 89.4758 283.259 91.6264 283.259 94.8002C283.259 97.9739 281.4 100.125 278.644 100.125ZM278.644 98.0366C280.168 98.0366 280.962 96.6376 280.962 94.8002C280.962 92.9627 280.168 91.5846 278.644 91.5846C277.12 91.5846 276.327 92.9627 276.327 94.8002C276.327 96.6376 277.12 98.0366 278.644 98.0366ZM286.64 99.9575V89.6428H288.937V96.4497L292.883 89.6428H295.117V99.9575H292.82V93.1506L288.874 99.9575H286.64Z" fill="black"/>
<path d="M410.216 99.9575V85.7591H418.693V99.9575H416.355V87.9724H412.555V99.9575H410.216ZM426.689 100.125C423.933 100.125 422.075 97.9739 422.075 94.8002C422.075 91.6264 423.933 89.4758 426.689 89.4758C429.445 89.4758 431.304 91.6264 431.304 94.8002C431.304 97.9739 429.445 100.125 426.689 100.125ZM426.689 98.0366C428.213 98.0366 429.007 96.6376 429.007 94.8002C429.007 92.9627 428.213 91.5846 426.689 91.5846C425.165 91.5846 424.371 92.9627 424.371 94.8002C424.371 96.6376 425.165 98.0366 426.689 98.0366ZM434.789 100.041C434.33 100.041 433.933 99.9993 433.683 99.9575V97.8695C433.954 97.9322 434.163 97.953 434.434 97.953C435.186 97.953 435.395 97.5772 435.499 95.698C435.562 94.7584 435.583 91.7934 435.604 89.6428H443.162V99.9575H440.865V91.7934H437.733L437.587 95.8859C437.441 98.8091 436.815 100.041 434.789 100.041ZM447.295 99.9575V89.6428H449.592V92.921H451.492C454.269 92.921 455.71 94.2364 455.71 96.387C455.71 98.5586 454.269 99.9575 451.492 99.9575H447.295ZM451.492 97.8486C452.828 97.8486 453.413 97.3058 453.413 96.387C453.413 95.4892 452.828 94.9463 451.492 94.9463H449.592V97.8486H451.492ZM462.996 100.125C461.576 100.125 460.469 99.8949 459.425 99.5399V97.2222C460.469 97.8069 461.555 98.1827 462.954 98.1827C464.394 98.1827 465.084 97.7025 465.084 96.8464C465.084 95.9903 464.311 95.6771 462.766 95.6771H461.242V93.777H462.766C464.081 93.777 464.916 93.4847 464.916 92.6286C464.916 91.8143 464.102 91.4176 462.954 91.4176C461.701 91.4176 460.469 91.7308 459.425 92.2737V90.0604C460.469 89.7054 461.576 89.4758 462.996 89.4758C465.647 89.4758 467.172 90.4154 467.172 92.4616C467.172 93.255 466.879 94.299 465.355 94.7166C466.942 95.176 467.38 96.22 467.38 97.0343C467.38 98.997 466.023 100.125 462.996 100.125ZM474.75 100.041C472.599 100.041 471.075 98.7674 471.075 96.7211C471.075 94.6749 472.599 93.4012 474.938 93.4012C475.919 93.4012 476.65 93.5682 477.255 93.7979V91.7517H471.472V89.6428H479.552V99.9575H477.422L477.318 99.0806C476.733 99.6443 475.856 100.041 474.75 100.041ZM475.188 98.1827C476.086 98.1827 476.879 97.8069 477.255 97.3475V95.5727C476.65 95.343 475.982 95.2386 475.188 95.2386C473.935 95.2386 473.351 95.865 473.351 96.7002C473.351 97.5354 473.935 98.1827 475.188 98.1827Z" fill="black"/>
<path d="M181.833 72.3232C181.833 80.0286 182.54 87.4303 182.54 95.2184C182.54 99.0773 182.186 102.894 182.186 106.784C182.186 107.924 182.258 114.419 182.893 114.736" stroke="black" stroke-width="2.61" stroke-linecap="round"/>
<path d="M351.131 72.3232C351.131 76.1992 351.484 80.0675 351.484 83.9083C351.484 85.9525 352.124 87.8949 352.191 89.9168C352.236 91.2587 352.312 92.7055 352.172 94.0403C352.069 95.0146 351.484 95.9334 351.484 96.9071C351.484 103.086 351.484 109.264 351.484 115.443" stroke="black" stroke-width="2.61" stroke-linecap="round"/>
<path d="M183.6 114.735C191.623 114.735 199.463 115.333 207.516 114.813C210.269 114.636 213.083 114.381 215.841 114.381C217.407 114.381 218.833 115.048 220.358 115.088C223.531 115.172 226.649 115.442 229.822 115.442C234.443 115.442 239.314 114.254 243.92 113.596C246.71 113.197 249.174 113.674 251.932 113.674C254.774 113.674 257.49 113.71 260.257 114.381C263.846 115.251 267.377 115.088 271.057 115.088C277.648 115.088 284.226 115.756 290.849 115.01C299.548 114.03 308.61 114.735 317.358 114.735C324.583 114.735 331.857 115.088 339.035 115.088C341.277 115.088 343.39 115.795 345.554 115.795C347.14 115.795 350.086 116.374 351.484 115.442" stroke="black" stroke-width="2.61" stroke-linecap="round"/>
<path d="M182.54 71.6165C185.262 71.6165 188.991 70.37 191.553 71.7932C193.559 72.9076 196.543 73.0302 198.779 73.0302C201.393 73.0302 205.166 72.354 207.713 73.1088C211.094 74.1105 215.104 72.6768 218.591 72.6768C221.372 72.6768 224.116 71.6165 226.897 71.6165C229.803 71.6165 232.709 71.6165 235.615 71.6165C239.838 71.6165 243.948 72.6768 248.123 72.6768C252.207 72.6768 256.291 72.6768 260.376 72.6768C267.531 72.6768 275.102 73.37 282.23 72.6571C286.461 72.2341 290.513 71.9699 294.777 71.9699C298.106 71.9699 301.548 72.2044 304.831 71.695C313.503 70.3493 321.959 71.9699 330.75 71.9699C335.476 71.9699 340.055 71.8071 344.691 72.7553C346.997 73.227 348.65 73.0327 350.778 72.3233" stroke="black" stroke-width="2.61" stroke-linecap="round"/>
<rect width="527.22" height="60.9" transform="translate(2.21387 2.60718)" fill="black"/>
<path d="M114.154 39.0571V34.0459C113.59 34.1503 112.86 34.213 112.254 34.213C109.456 34.213 107.89 33.0019 107.89 29.4106V24.8587H110.229V29.4106C110.229 31.3942 111.043 32.0206 112.317 32.0206C113.089 32.0206 113.716 31.937 114.154 31.8326V24.8587H116.493V39.0571H114.154ZM120.438 39.0571V28.7424H122.735V35.5493L126.681 28.7424H128.915V39.0571H126.618V32.2502L122.672 39.0571H120.438ZM134.301 39.0571L136.201 30.893H131.691V28.7424H142.444V30.893H138.623L136.723 39.0571H134.301ZM148.268 39.1406C146.118 39.1406 144.593 37.867 144.593 35.8207C144.593 33.7745 146.118 32.5008 148.456 32.5008C149.437 32.5008 150.168 32.6678 150.774 32.8975V30.8513H144.99V28.7424H153.071V39.0571H150.941L150.836 38.1802C150.252 38.7439 149.375 39.1406 148.268 39.1406ZM148.707 37.2823C149.605 37.2823 150.398 36.9065 150.774 36.4471V34.6723C150.168 34.4426 149.5 34.3382 148.707 34.3382C147.454 34.3382 146.869 34.9646 146.869 35.7998C146.869 36.635 147.454 37.2823 148.707 37.2823ZM157.141 39.0571V28.7424H159.438V35.5493L163.384 28.7424H165.618V39.0571H163.321V32.2502L159.375 39.0571H157.141ZM161.4 27.8237C159.438 27.8237 157.997 27.0302 157.934 24.8587H159.939C159.939 25.9236 160.482 26.2994 161.4 26.2994C162.319 26.2994 162.862 25.9236 162.862 24.8587H164.867C164.804 27.0302 163.363 27.8237 161.4 27.8237ZM171.004 39.0571L172.904 30.893H168.394V28.7424H179.147V30.893H175.326L173.426 39.0571H171.004ZM186.621 39.2242C182.988 39.2242 181.505 36.823 181.505 33.8998C181.505 30.7469 183.259 28.5754 186.057 28.5754C188.813 28.5754 190.296 30.6007 190.296 33.6074C190.296 34.0042 190.275 34.3382 190.254 34.6723H183.781C183.906 36.1966 184.909 37.157 186.621 37.157C187.79 37.157 188.688 36.9065 189.565 36.4262V38.6604C189.064 38.8692 187.999 39.2242 186.621 39.2242ZM183.802 32.8349H188.103C188.02 31.3106 187.268 30.4963 186.057 30.4963C184.763 30.4963 183.99 31.3315 183.802 32.8349ZM205.076 39.0571L206.893 33.691L205.201 28.7424H207.31L208.626 32.7931H209.294V28.7424H211.34V32.7931H212.008L213.366 28.7424H215.433L213.741 33.691L215.558 39.0571H213.491L212.008 34.7141H211.34V39.0571H209.294V34.7141H208.626L207.143 39.0571H205.076ZM219.712 43.1914C219.002 43.1914 218.501 43.0661 218.083 42.899V40.6858C218.647 40.9572 219.085 41.0616 219.566 41.0616C220.443 41.0616 221.027 40.6858 221.57 39.3494L217.373 28.7424H219.921L222.781 36.3636L225.349 28.7424H227.813L223.971 39.2659C222.906 42.1682 221.842 43.1914 219.712 43.1914ZM230.652 43.0243V28.7424H232.802L232.886 29.4732C233.554 28.9721 234.285 28.6589 235.183 28.6589C237.793 28.6589 239.442 30.5381 239.442 33.8789C239.442 37.2197 237.793 39.1406 235.183 39.1406C234.201 39.1406 233.533 38.911 232.948 38.556V43.0243H230.652ZM234.577 37.0109C236.143 37.0109 237.145 35.9878 237.145 33.8789C237.145 31.7909 236.143 30.7678 234.577 30.7678C234.034 30.7678 233.408 30.9348 232.948 31.2898V36.4889C233.408 36.8647 234.055 37.0109 234.577 37.0109ZM242.782 39.0571V28.7424H245.078V32.7305H248.962V28.7424H251.259V39.0571H248.962V34.8602H245.078V39.0571H242.782ZM258.378 39.1406C256.227 39.1406 254.703 37.867 254.703 35.8207C254.703 33.7745 256.227 32.5008 258.566 32.5008C259.547 32.5008 260.278 32.6678 260.883 32.8975V30.8513H255.099V28.7424H263.18V39.0571H261.05L260.946 38.1802C260.361 38.7439 259.484 39.1406 258.378 39.1406ZM258.816 37.2823C259.714 37.2823 260.507 36.9065 260.883 36.4471V34.6723C260.278 34.4426 259.61 34.3382 258.816 34.3382C257.563 34.3382 256.979 34.9646 256.979 35.7998C256.979 36.635 257.563 37.2823 258.816 37.2823ZM267.355 39.1406C266.895 39.1406 266.499 39.0989 266.248 39.0571V36.9691C266.519 37.0318 266.728 37.0526 267 37.0526C267.751 37.0526 267.96 36.6768 268.065 34.7976C268.127 33.858 268.148 30.893 268.169 28.7424H275.728V39.0571H273.431V30.893H270.299L270.153 34.9855C270.006 37.9087 269.38 39.1406 267.355 39.1406ZM291.928 39.0571V28.7424H296.125C298.776 28.7424 300.092 29.7655 300.092 31.7074C300.092 32.5217 299.695 33.336 298.86 33.7954C299.904 34.2547 300.342 35.0899 300.342 36.0086C300.342 38.0966 298.881 39.0571 296.125 39.0571H291.928ZM296.104 37.1988C297.398 37.1988 298.046 36.8856 298.046 35.9669C298.046 35.069 297.398 34.7558 296.104 34.7558H294.162V37.1988H296.104ZM296.104 32.9393C297.252 32.9393 297.795 32.647 297.795 31.77C297.795 30.893 297.252 30.6216 296.104 30.6216H294.162V32.9393H296.104ZM317.816 39.0571L319.716 30.893H315.206V28.7424H325.96V30.893H322.139L320.238 39.0571H317.816ZM333.433 39.2242C329.8 39.2242 328.318 36.823 328.318 33.8998C328.318 30.7469 330.072 28.5754 332.87 28.5754C335.626 28.5754 337.108 30.6007 337.108 33.6074C337.108 34.0042 337.087 34.3382 337.066 34.6723H330.594C330.719 36.1966 331.721 37.157 333.433 37.157C334.603 37.157 335.5 36.9065 336.377 36.4262V38.6604C335.876 38.8692 334.811 39.2242 333.433 39.2242ZM330.615 32.8349H334.916C334.832 31.3106 334.081 30.4963 332.87 30.4963C331.575 30.4963 330.802 31.3315 330.615 32.8349ZM340.761 39.1406C340.302 39.1406 339.905 39.0989 339.654 39.0571V36.9691C339.926 37.0318 340.135 37.0526 340.406 37.0526C341.158 37.0526 341.366 36.6768 341.471 34.7976C341.533 33.858 341.554 30.893 341.575 28.7424H349.134V39.0571H346.837V30.893H343.705L343.559 34.9855C343.413 37.9087 342.786 39.1406 340.761 39.1406ZM357.902 39.2242C354.269 39.2242 352.787 36.823 352.787 33.8998C352.787 30.7469 354.54 28.5754 357.338 28.5754C360.095 28.5754 361.577 30.6007 361.577 33.6074C361.577 34.0042 361.556 34.3382 361.535 34.6723H355.062C355.188 36.1966 356.19 37.157 357.902 37.157C359.071 37.157 359.969 36.9065 360.846 36.4262V38.6604C360.345 38.8692 359.28 39.2242 357.902 39.2242ZM355.083 32.8349H359.385C359.301 31.3106 358.549 30.4963 357.338 30.4963C356.044 30.4963 355.271 31.3315 355.083 32.8349ZM367.589 39.0571L365.209 28.7424H373.603V30.893H368.09L369.99 39.0571H367.589ZM377.464 43.0243V28.7424H379.615L379.698 29.4732C380.366 28.9721 381.097 28.6589 381.995 28.6589C384.605 28.6589 386.255 30.5381 386.255 33.8789C386.255 37.2197 384.605 39.1406 381.995 39.1406C381.014 39.1406 380.345 38.911 379.761 38.556V43.0243H377.464ZM381.389 37.0109C382.955 37.0109 383.958 35.9878 383.958 33.8789C383.958 31.7909 382.955 30.7678 381.389 30.7678C380.847 30.7678 380.22 30.9348 379.761 31.2898V36.4889C380.22 36.8647 380.867 37.0109 381.389 37.0109ZM392.956 39.1406C390.805 39.1406 389.281 37.867 389.281 35.8207C389.281 33.7745 390.805 32.5008 393.144 32.5008C394.125 32.5008 394.856 32.6678 395.461 32.8975V30.8513H389.678V28.7424H397.758V39.0571H395.628L395.524 38.1802C394.939 38.7439 394.062 39.1406 392.956 39.1406ZM393.394 37.2823C394.292 37.2823 395.085 36.9065 395.461 36.4471V34.6723C394.856 34.4426 394.188 34.3382 393.394 34.3382C392.141 34.3382 391.557 34.9646 391.557 35.7998C391.557 36.635 392.141 37.2823 393.394 37.2823ZM401.202 39.0571V28.7424H404.021L406.088 36.0504L408.155 28.7424H410.932V39.0571H408.886V32.4173L406.944 39.0571H405.19L403.248 32.4173V39.0571H401.202ZM419.074 39.2242C415.441 39.2242 413.958 36.823 413.958 33.8998C413.958 30.7469 415.712 28.5754 418.51 28.5754C421.266 28.5754 422.749 30.6007 422.749 33.6074C422.749 34.0042 422.728 34.3382 422.707 34.6723H416.234C416.36 36.1966 417.362 37.157 419.074 37.157C420.243 37.157 421.141 36.9065 422.018 36.4262V38.6604C421.517 38.8692 420.452 39.2242 419.074 39.2242ZM416.255 32.8349H420.556C420.473 31.3106 419.721 30.4963 418.51 30.4963C417.216 30.4963 416.443 31.3315 416.255 32.8349Z" fill="white"/>
<path d="M2.52395 62.9963C2.52395 60.7548 2.22629 58.6893 1.67046 56.5278C1.4673 55.7377 1.51324 54.965 1.51324 54.147C1.51324 53.3031 1.91752 52.5974 1.91752 51.7886C1.91752 49.7823 2.02076 47.75 1.90629 45.7468C1.83761 44.5448 1.34043 43.4079 1.31109 42.1756C1.28956 41.2711 1.31758 40.4355 1.46832 39.5478C1.88279 37.107 2.07907 34.7807 2.13089 32.2931C2.20968 28.5114 2.32181 24.7606 2.32181 20.9732C2.32181 16.9375 1.87753 12.6948 2.47903 8.70988C2.76045 6.84544 2.32181 5.00663 2.32181 3.16219C2.32181 1.98961 5.76367 2.70269 6.70155 2.51085C8.58409 2.12578 10.3086 2.09849 12.2268 2.30871C14.7105 2.58089 17.3208 2.35363 19.8183 2.35363C20.8579 2.35363 21.2824 2.07437 22.1654 1.65736C23.0284 1.24983 24.1402 1.27196 25.0853 1.35414C26.735 1.4976 28.5332 2.00134 30.1725 2.30871C32.1549 2.6804 34.4266 2.35363 36.4389 2.35363C38.6657 2.35363 40.8404 1.98226 43.0647 1.84827C44.8108 1.74308 46.5261 1.65654 48.1969 2.24132C49.2946 2.62552 51.3467 2.55364 52.4306 2.25255C54.0157 1.81225 56.1635 3.28175 57.6976 3.64509C59.5832 4.09168 61.6384 3.56815 63.4586 3.11727C67.3343 2.15724 71.1084 0.830512 75.1042 1.94934C77.1478 2.52152 79.043 3.36434 81.2022 3.36434C83.0065 3.36434 84.8108 3.36434 86.6151 3.36434C88.0296 3.36434 89.6856 3.62028 91.0398 3.11727C92.0268 2.75066 93.0697 2.15148 94.1393 2.15148C95.1725 2.15148 96.2057 2.15148 97.2388 2.15148C98.6491 2.15148 100.001 2.3948 101.416 2.3424C103.437 2.26758 105.432 1.82911 107.447 1.66859C108.336 1.59778 109.756 1.2976 110.67 1.58998C111.888 1.97966 113.443 1.7472 114.713 1.7472C116.061 1.7472 117.344 2.06394 118.677 2.16271C121.894 2.40101 124.969 2.97588 128.223 2.65684C130.355 2.44775 132.493 2.35363 134.635 2.35363C136.07 2.35363 137.499 1.98104 138.925 1.94934C144.316 1.82954 149.695 2.01671 155.085 1.7472C156.587 1.6721 158.062 1.54506 159.566 1.54506C160.515 1.54506 161.403 2.08839 162.351 2.1964C164.255 2.4133 166.164 2.35363 168.078 2.35363C170.493 2.35363 172.719 3.09515 175.086 3.31942C176.536 3.45676 179.295 3.75151 180.566 2.96005C182.067 2.0259 183.803 1.7472 185.564 1.7472C186.586 1.7472 187.514 2.17125 188.517 2.35363C190.445 2.70403 192.45 2.55577 194.402 2.55577C198.138 2.55577 202.064 2.87941 205.756 2.25255C207.213 2.00507 208.646 1.34291 210.124 1.34291C211.149 1.34291 212.095 1.74894 213.066 2.05041C214.325 2.44116 215.551 2.35401 216.862 2.46593C220.107 2.74291 223.277 3.36434 226.542 3.36434C227.388 3.36434 228.346 3.49346 229.17 3.2745C229.825 3.10058 230.376 2.71412 231.057 2.60069C232.803 2.30975 234.762 2.57929 236.504 2.75791C238.003 2.91168 239.338 3.56648 240.872 3.56648C242.852 3.56648 244.607 3.60196 246.51 4.17291" stroke="black" stroke-width="2.61" stroke-linecap="round"/>
<path d="M243.279 2.66223C246.911 2.66223 250.013 1.55033 253.657 1.55033C255.681 1.55033 257.739 1.43122 259.669 2.00333C262.426 2.82022 265.186 1.92097 267.926 1.92097C270.534 1.92097 273.078 1.55033 275.71 1.55033C276.411 1.55033 276.439 2.2916 277.233 2.2916C279.423 2.2916 281.612 2.2916 283.802 2.2916C286.706 2.2916 289.55 2.66223 292.429 2.66223C294.987 2.66223 297.158 3.40349 299.615 3.40349C302.176 3.40349 304.461 2.66223 307.028 2.66223C309.403 2.66223 311.777 2.66223 314.152 2.66223C321.001 2.66223 327.778 3.03286 334.619 3.03286C343.896 3.03286 353.346 2.66223 362.705 2.66223C368.651 2.66223 374.381 2.69803 380.289 3.48585C381.963 3.70899 383.512 3.95358 385.149 3.48585C386.198 3.18606 387.145 2.65816 388.196 2.37396C390.726 1.69019 393.402 1.92097 396 1.92097C400.485 1.92097 404.947 2.2916 409.466 2.2916C412.918 2.2916 416.29 3.03286 419.72 3.03286C424.009 3.03286 428.21 2.96383 432.445 2.31219C435.721 1.8082 439.395 1.92097 442.885 1.92097C451.213 1.92097 459.439 2.21049 467.717 2.74459C475.71 3.26026 483.606 3.7199 491.561 2.47691C496.061 1.77381 500.611 2.66223 505.11 2.66223C507.903 2.66223 510.697 2.66223 513.49 2.66223C516.646 2.66223 519.758 2.2916 522.921 2.2916C525.363 2.2916 527.996 1.21557 530.148 2.2916" stroke="black" stroke-width="2.61" stroke-linecap="round"/>
<path d="M2.73926 63.816C6.23799 63.816 9.09647 61.6853 12.5404 61.5923C18.1127 61.4417 23.6483 61.9629 29.2188 61.9629C32.5052 61.9629 35.8533 61.6205 38.9376 62.8689C42.4891 64.3064 46.1803 63.8579 49.8918 63.3631C54.1925 62.7896 58.7779 61.9629 63.111 61.9629C66.33 61.9629 69.549 61.9629 72.768 61.9629C74.8892 61.9629 77.3972 61.5869 79.4599 62.0453C86.5542 63.6218 94.2385 61.4084 101.348 62.8895C103.833 63.4072 106.671 63.0748 109.193 63.0748C112.515 63.0748 115.837 63.0748 119.159 63.0748C125.109 63.0748 131.06 63.0748 137.011 63.0748C141.715 63.0748 146.361 63.2741 151.033 63.4248C156.324 63.5955 161.538 63.1056 166.805 63.4248C179.769 64.2105 192.543 63.3135 205.495 62.7247C211.883 62.4344 217.344 61.4993 223.8 62.8689C230.246 64.2361 236.924 62.1115 243.361 62.3335C248.152 62.4987 252.912 63.0748 257.734 63.0748C261.664 63.0748 265.571 62.7042 269.511 62.7042C273.111 62.7042 276.799 62.5026 280.383 62.7865C285.161 63.165 289.945 63.0748 294.735 63.0748C297.495 63.0748 300.169 62.3335 302.951 62.3335C310.034 62.3335 317.117 62.3335 324.2 62.3335C327.965 62.3335 331.766 62.7042 335.566 62.7042C342.134 62.7042 348.67 62.3335 355.21 62.3335C362.452 62.3335 370.416 61.4854 377.365 63.7337C379.783 64.5159 382.506 64.7575 385.045 64.5367C387.314 64.3395 389.345 62.7042 391.696 62.7042C398.16 62.7042 404.485 63.816 410.948 63.816C415.032 63.816 419.116 63.816 423.2 63.816C426.31 63.816 429.378 63.775 432.466 64.1867C433.615 64.3399 435.031 64.7516 436.213 64.5367C444.43 63.0427 452.782 62.7042 461.128 62.7042C468.543 62.7042 476.109 62.28 483.448 63.0954C483.974 63.1538 484.586 63.3205 485.095 63.466C486.016 63.7291 486.973 63.2484 487.978 63.1571C491.794 62.8102 495.716 63.0748 499.55 63.0748C502.937 63.0748 506.077 63.816 509.433 63.816C516.74 63.816 523.985 63.4454 531.259 63.4454" stroke="black" stroke-width="2.61" stroke-linecap="round"/>
<path d="M532.519 3.40234C532.519 6.29676 531.778 9.09569 531.778 12.0092C531.778 14.2056 531.778 16.4019 531.778 18.5982C531.778 24.4273 532.148 30.2208 532.148 36.0179C532.148 38.7427 532.148 41.4675 532.148 44.1924C532.148 47.0542 531.918 49.4671 531.428 52.1609C531.017 54.4222 531.89 56.4864 532.128 58.6264C532.296 60.1412 531.855 61.7461 532.519 63.074" stroke="black" stroke-width="2.61" stroke-linecap="round"/>
<path d="M1.69228 73.8152C1.69228 70.6328 1.69228 76.4058 1.69228 77.1805C1.69228 78.9456 2.25947 80.5088 2.38513 82.268C2.43789 83.0066 2.17409 84.1637 2.48411 84.8613C3.4628 87.0633 3.4739 89.2825 3.4739 91.6512C3.4739 93.3244 2.44618 94.4964 2.0486 96.0657C1.29916 99.0241 0.913191 101.816 2.72166 104.4C3.59809 105.652 2.76125 109.254 2.76125 110.873C2.76125 112.043 2.39272 114.065 3.11758 114.971C3.79915 115.823 8.5899 115.149 9.80857 115.149C12.6277 115.149 15.2745 115.893 18.0832 115.228C21.342 114.456 24.8586 114.209 28.1989 114.456C29.6718 114.565 32.4369 114.639 33.7615 115.228C35.4615 115.984 38.3018 115.505 40.1358 115.505C41.9083 115.505 43.5922 115.149 45.3619 115.149C47.3348 115.149 49.4628 115.392 51.3996 114.971C56.131 113.942 61.0762 115.505 65.8308 115.505C71.7927 115.505 77.6316 116.218 83.5679 116.218C88.6862 116.218 93.7807 114.952 98.8898 115.149C102.217 115.277 106.028 114.436 109.599 114.436C111.772 114.436 114.056 114.605 116.231 114.812C119.72 115.145 123.222 115.505 126.762 115.505C128.32 115.505 129.908 114.921 131.474 114.713C133.752 114.412 136.011 114.436 138.303 114.436C141.123 114.436 143.851 114.793 146.717 114.793C151.583 114.793 156.838 114.31 161.682 114.872C164.552 115.205 167.137 115.862 170.036 115.862C172.41 115.862 173.867 116.056 173.005 112.932C172.546 111.265 172.109 109.793 171.481 108.161C170.933 106.735 171.347 104.807 171.303 103.311C171.252 101.592 170.947 99.913 170.947 98.1839C170.947 92.1905 170.114 86.1962 170.966 80.229C171.08 79.4365 171.659 78.7138 171.659 77.9129C171.659 77.1833 171.34 76.6206 171.303 75.9531C171.219 74.4427 170.234 73.1528 170.234 71.6772" stroke="black" stroke-width="2.61" stroke-linecap="round"/>
<path d="M2.04883 72.0336C5.25575 72.0336 8.46268 72.0336 11.6696 72.0336C15.5552 72.0336 20.1829 71.764 23.8638 73.1025C29.8018 75.2618 35.4708 72.7462 41.6009 72.7462C57.0479 72.7462 72.4203 72.3899 87.844 72.3899C95.2212 72.3899 102.598 72.3899 109.976 72.3899C114.813 72.3899 119.649 72.3899 124.486 72.3899C126.419 72.3899 128.353 72.3899 130.286 72.3899C132.096 72.3899 133.685 71.6772 135.473 71.6772C140.036 71.6772 144.406 72.7462 148.954 72.7462C151.893 72.7462 154.798 73.1025 157.763 73.1025C160.433 73.1025 162.706 73.8459 165.404 72.5681C167.024 71.8008 168.833 72.0336 170.591 72.0336" stroke="black" stroke-width="2.61" stroke-linecap="round"/>
<path d="M361.183 74.3455C361.183 71.1631 361.183 76.936 361.183 77.7108C361.183 79.4759 361.75 81.0391 361.875 82.7983C361.928 83.5369 361.664 84.694 361.974 85.3915C362.953 87.5936 362.964 89.8128 362.964 92.1815C362.964 93.8546 361.936 95.0266 361.539 96.596C360.789 99.5543 360.403 102.347 362.212 104.93C363.088 106.182 362.251 109.784 362.251 111.403C362.251 112.573 361.883 114.595 362.608 115.501C363.289 116.353 368.08 115.679 369.299 115.679C372.118 115.679 374.765 116.424 377.573 115.758C380.832 114.987 384.349 114.739 387.689 114.986C389.162 115.095 391.927 115.17 393.252 115.758C394.952 116.514 397.792 116.036 399.626 116.036C401.399 116.036 403.082 115.679 404.852 115.679C406.825 115.679 408.953 115.922 410.89 115.501C415.621 114.472 420.566 116.036 425.321 116.036C431.283 116.036 437.122 116.748 443.058 116.748C448.176 116.748 453.271 115.483 458.38 115.679C461.707 115.807 465.518 114.967 469.09 114.967C471.262 114.967 473.546 115.135 475.721 115.343C479.211 115.675 482.712 116.036 486.253 116.036C487.811 116.036 489.398 115.451 490.964 115.244C493.242 114.942 495.501 114.967 497.794 114.967C500.613 114.967 503.341 115.323 506.207 115.323C511.073 115.323 516.328 114.84 521.172 115.402C524.043 115.735 526.627 116.392 529.526 116.392C531.9 116.392 533.358 116.587 532.496 113.462C532.036 111.796 531.599 110.323 530.971 108.691C530.423 107.266 530.837 105.337 530.793 103.841C530.743 102.122 530.437 100.443 530.437 98.7141C530.437 92.7207 529.604 86.7265 530.457 80.7593C530.57 79.9667 531.15 79.2441 531.15 78.4432C531.15 77.7135 530.83 77.1509 530.793 76.4834C530.709 74.973 529.724 73.6831 529.724 72.2075" stroke="black" stroke-width="2.61" stroke-linecap="round"/>
<path d="M361.54 72.5638C364.747 72.5638 367.954 72.5638 371.161 72.5638C375.046 72.5638 379.674 72.2943 383.355 73.6328C389.293 75.7921 394.962 73.2765 401.092 73.2765C416.539 73.2765 431.912 72.9202 447.335 72.9202C454.712 72.9202 462.09 72.9202 469.467 72.9202C474.304 72.9202 479.141 72.9202 483.977 72.9202C485.911 72.9202 487.844 72.9202 489.777 72.9202C491.587 72.9202 493.176 72.2075 494.964 72.2075C499.527 72.2075 503.898 73.2765 508.445 73.2765C511.384 73.2765 514.289 73.6328 517.254 73.6328C519.924 73.6328 522.198 74.3761 524.895 73.0983C526.515 72.3311 528.324 72.5638 530.082 72.5638" stroke="black" stroke-width="2.61" stroke-linecap="round"/>
</svg>
