<svg width="920" height="393" viewBox="0 0 920 393" fill="none" xmlns="http://www.w3.org/2000/svg">
<g clip-path="url(#clip0_7426_39562)">
<rect width="919.177" height="392.752" fill="black"/>
<path d="M308.722 180.702C307.396 181.221 300.801 180.166 299.508 179.864C295.013 178.815 288.444 179.878 283.882 180.561C273.452 182.122 261.712 181.861 251.15 182.217C240.195 182.586 228.902 183.502 218.119 185.116C213.896 185.748 207.421 184.65 203.653 186.156C199.564 187.79 191.357 188.227 186.847 188.466C167.792 189.475 148.882 195.731 130.318 199.471C115.381 202.481 101.389 207.605 87.887 214.935C82.0861 218.084 75.7904 220.612 72.2391 226.349C70.2102 229.626 70.8825 229.882 74.5228 229.759C78.3517 229.63 82.12 228.172 85.8464 228.208C88.2529 228.231 92.8534 227.479 95.1678 226.554C97.2806 225.71 101.386 227.197 103.802 227.22C110.85 227.289 117.202 229.709 123.979 230.325C130.782 230.944 136.631 232.136 142.603 234.652C147.2 236.589 142.218 237.997 139.616 239.409C136.577 241.059 133.586 241.709 130.563 243.35C127.417 245.058 124.271 246.766 121.125 248.474C118.223 250.049 116.278 252.834 113.746 255.399C109.593 259.605 108.708 261.196 106.004 263.549C102.023 267.012 108.245 266.551 109.992 266.412C116.552 265.892 123.203 264.842 129.318 262.572C134.086 260.802 139.936 262.855 144.845 262.091C149.208 261.413 153.739 261.761 157.913 260.566C160.825 259.733 165.325 259.334 167.805 258.171C169.516 257.368 177.039 255.105 172.004 257.838C168.77 259.594 166.155 260.752 164.085 263.867C161.608 267.594 160.078 271.931 157.292 275.557C152.224 282.151 146.938 287.617 142.356 294.511C139.034 299.51 135.23 304.711 131.584 310.72C129.761 313.724 128.095 318.508 128.425 319.991C129.302 323.931 135.986 318.038 137.151 316.444C141.542 310.436 217.232 256.428 323.152 223.421" stroke="white" stroke-width="5.5123" stroke-linecap="round"/>
<path d="M144.287 197.337L205.031 186.235L267.502 179.377L280.661 180.292L304.503 229.514L243.938 252.607L158.576 298.944L130.757 319.801L131.012 313.907L157.573 275.889L168.307 258.55L132.41 261.344L104.947 265.891L118.907 250.255L143.194 238.798L143.728 234.479L97.9228 225.383L71.7938 229.206L79.6059 219.209L113.064 204.5L144.287 197.337Z" fill="white"/>
<path d="M253.567 144.01C257.072 140.866 264.378 138.242 278.998 130.607C288.959 125.405 300.508 117.863 312.087 112.484C322.397 107.694 334.026 103.173 351.244 96.5221C369.781 89.3613 385.454 83.1867 394.775 80.556C404.323 77.8609 413.075 74.9862 422.977 72.4695C431.563 70.287 441.703 68.1873 450.185 66.9881C460.736 65.4963 470.943 61.4793 478.515 60.145C486.295 58.7742 493.899 55.6799 502.407 54.1807C515.844 51.813 535.198 53.818 549.328 54.3868C558.491 54.7556 567.221 53.6727 576 52.5176C578.485 52.1905 581.555 52.1176 600.968 54.6855C620.38 57.2535 656.051 62.5474 675.275 65.7041C702.894 70.2396 715.744 74.4627 722.602 77.9386C729.971 81.6733 738.095 85.1448 744.953 88.6207C746.674 89.4929 748.37 90.3522 750.091 91.2244C751.812 92.0966 753.507 92.9558 756.788 95.91" stroke="white" stroke-width="5.5123" stroke-linecap="round"/>
<path d="M282.541 246.699C285.954 254.513 286.234 274.657 290.409 274.949C378.971 281.128 447.338 279.749 576.148 236.34C613.849 223.635 622.66 216.734 678.703 178.461C706.953 159.168 749.444 112.888 755.186 97.1544C739.491 87.9845 728.654 80.2449 713.155 75.1052C672.177 61.5166 631.62 60.8709 630.276 60.7698C621.995 60.3437 614.073 57.5466 605.665 56.6986C597.704 55.8591 589.362 54.863 582.927 54.0239C577.556 53.3236 564.562 56.4546 557.725 55.4245C553.076 54.7242 548.543 52.1852 516.329 54.0239C508.938 54.4458 506.933 54.5351 504.854 54.8677C500.475 55.568 495.323 55.5536 491.067 56.6986C485.861 58.0993 480.882 59.1568 476.022 59.6476L475.664 59.6838C471.577 60.0961 467.687 60.4887 462.374 61.4786C456.329 62.605 451.343 64.0031 447.338 64.8537C443.385 65.6932 438.268 66.0113 433.977 67.385C430.459 68.5114 427.092 69.6337 423.713 70.7601C420.333 71.8865 416.874 72.7608 413.587 74.1352C410.208 75.5485 406.719 77.031 403.462 79.202C400.083 81.4549 397.172 79.9093 393.441 81.3065C390.062 82.5722 386.705 82.7146 383.105 84.0627C379.726 85.3283 376.635 87.1692 373.459 88.8859C370.08 90.7127 366.112 92.9613 361.056 93.6854C356.137 94.3899 352.722 97.0563 349.343 98.1827C345.963 99.3091 341.811 101.1 337.629 102.667C334.25 103.932 331.164 105.85 326.604 107.49C323.086 108.756 318.608 109.883 314.891 111.122C311.511 112.248 308.117 118.287 304.741 119.699C301.361 121.112 297.998 122.798 294.615 124.766C291.236 126.732 288.11 128.866 284.49 130.529C281.111 132.081 277.964 134.243 274.365 135.591C270.986 136.857 267.839 138.462 264.24 139.81C260.86 141.076 254.631 140.898 254.545 144.89C254.414 150.931 255.268 157.093 255.675 162.326C256.101 167.807 256.393 171.321 257.646 175.962C258.633 179.619 258.929 184.18 260.038 188.196C261.164 192.276 262.202 196.235 263.413 199.866C264.539 203.245 265.891 207.088 267.492 211.539C268.758 215.058 269.433 218.628 271.15 221.804C272.977 225.183 275.032 229.504 276.774 233.617C278.326 237.283 280.119 241.155 282.541 246.699Z" fill="white"/>
<path d="M757.898 97.7096C756.177 101.118 748.952 108.608 742.027 115.884C733.03 125.336 723.977 136.203 717.025 143.779C707.568 154.085 698.96 160.109 678.925 175.511C653.326 195.19 642.263 198.978 630.065 206.668C621.058 212.347 611.242 217.684 602.925 221.992C593.258 226.999 583.523 230.768 574.098 234.285C565.642 237.441 557.963 241.704 550.078 245.147C542.725 248.357 534.649 249.918 525.36 252.526C517.363 254.771 509.448 258.441 497.033 261.514C487.521 263.869 478.928 265.585 471.014 267.172C460.456 269.29 450.568 270.582 442.698 271.872C433.674 273.352 426.078 274.313 418.505 275.647C410.933 276.981 403.389 278.31 394.544 277.928C386.657 277.586 369.831 277.639 350.359 276.277C306.907 270.749 301.235 271.749 297.463 272.413C295.563 272.748 293.691 273.078 291.762 273.418" stroke="white" stroke-width="5.5123" stroke-linecap="round"/>
<path d="M292.841 287.329C290.383 283.3 286.352 257.671 282 249.651C277.971 242.226 276.337 234.09 271.812 221.156C267.993 210.238 264.668 201.057 262.424 193.35C260.105 185.384 258.256 178.01 255.427 170.216C253.786 162.598 252.787 156.926 252.122 153.154C251.787 151.254 252.462 136.291 252.122 134.362" stroke="black" stroke-width="5.5123" stroke-linecap="round"/>
<path fill-rule="evenodd" clip-rule="evenodd" d="M470.402 179.353C468.522 180.895 468.247 183.668 469.788 185.548C474.296 191.048 479.365 195.473 486.191 198.613C491.291 200.958 497.259 199.982 502.009 198.038C506.834 196.063 511.488 192.662 514.181 188.633C516.754 184.782 519.011 179.786 519.802 174.612C520.596 169.421 519.957 163.592 516.056 158.833C514.515 156.953 511.741 156.678 509.861 158.219C507.981 159.76 507.706 162.534 509.247 164.414C511.065 166.632 511.654 169.652 511.1 173.282C510.542 176.929 508.875 180.727 506.861 183.742C505.364 185.981 502.289 188.411 498.674 189.89C494.984 191.401 491.802 191.503 489.87 190.615C484.524 188.156 480.467 184.689 476.597 179.968C475.056 178.087 472.283 177.812 470.402 179.353Z" fill="black"/>
<path fill-rule="evenodd" clip-rule="evenodd" d="M507.519 143.774C505.536 144.709 503.122 144.038 501.923 142.136C500.627 140.08 501.244 137.362 503.301 136.066C503.41 135.997 503.494 135.936 503.684 135.797L503.699 135.787C503.704 135.783 503.711 135.778 503.72 135.771C503.847 135.677 504.349 135.304 504.939 135.041C505.806 134.654 507.179 134.343 508.697 134.936C509.894 135.404 510.609 136.235 510.893 136.582C512.434 138.462 512.16 141.236 510.28 142.777C509.469 143.441 508.492 143.768 507.519 143.774ZM508.999 142.819C509 142.819 508.99 142.825 508.968 142.84C508.988 142.828 508.999 142.82 508.999 142.819Z" fill="black"/>
<path fill-rule="evenodd" clip-rule="evenodd" d="M461.371 167.394C459.388 168.329 456.973 167.658 455.775 165.756C454.479 163.7 455.096 160.982 457.152 159.686C457.262 159.617 457.345 159.556 457.536 159.418L457.55 159.407C457.555 159.403 457.563 159.398 457.572 159.391C457.699 159.297 458.201 158.924 458.791 158.661C459.657 158.274 461.03 157.963 462.549 158.557C463.745 159.024 464.461 159.856 464.745 160.203C466.286 162.083 466.011 164.856 464.131 166.397C463.32 167.061 462.343 167.388 461.371 167.394ZM462.851 166.439C462.851 166.439 462.841 166.445 462.819 166.461C462.839 166.448 462.85 166.44 462.851 166.439Z" fill="black"/>
<path fill-rule="evenodd" clip-rule="evenodd" d="M489.425 174.98C487.442 175.915 485.028 175.244 483.83 173.342C482.534 171.286 483.15 168.568 485.207 167.272C485.317 167.203 485.4 167.142 485.591 167.003L485.605 166.993C485.61 166.989 485.617 166.984 485.627 166.977C485.753 166.883 486.256 166.51 486.846 166.247C487.712 165.86 489.085 165.549 490.603 166.142C491.8 166.61 492.515 167.441 492.8 167.788C494.341 169.668 494.066 172.442 492.186 173.983C491.375 174.647 490.398 174.974 489.425 174.98ZM490.905 174.025C490.906 174.025 490.896 174.031 490.874 174.046C490.894 174.034 490.905 174.026 490.905 174.025Z" fill="black"/>
<circle cx="520.224" cy="150.9" r="72.349" fill="white"/>
<mask id="mask0_7426_39562" style="mask-type:alpha" maskUnits="userSpaceOnUse" x="447" y="78" width="146" height="146">
<circle cx="520.224" cy="150.9" r="72.349" fill="#D9D9D9"/>
</mask>
<g mask="url(#mask0_7426_39562)">
<path d="M491.324 190.07C491.324 189.003 468.29 183.729 466.415 183.193C466.01 183.077 469.525 179.24 471.478 177.939C476.034 174.359 474.389 175.55 477.072 174.034C480.246 172.621 483.347 172.027 484.568 170.458C485.075 169.806 485.326 169.447 484.198 169.554C481.696 169.792 479.612 169.818 477.072 169.328C470.877 168.133 463.83 168.791 458.015 166.207C456.928 165.724 462.26 161.913 462.451 161.771C465.982 159.134 469.37 156.474 472.493 153.351C472.803 153.04 472.99 152.894 473.084 152.831C472.949 152.874 472.657 152.886 472.369 152.468C470.052 149.097 468.8 144.587 467.626 140.742C466.383 136.674 465.662 132.461 463.744 128.626C463.404 127.946 463.02 126.404 462.409 125.915C462.079 125.65 464.274 126.695 464.853 126.839C469.327 127.958 473.91 128.502 478.345 129.755C481.133 130.543 484.002 131.566 486.642 132.754C487.033 132.93 488.201 133.63 488.388 132.897C489.277 129.407 489.566 125.615 490.318 122.075C491.663 115.739 492.905 109.621 492.905 103.161V101.005C492.905 101.759 493.26 102.699 493.85 103.182C496.418 105.283 500.35 105.903 503.379 107.063C505.72 107.96 507.648 109.125 509.683 110.534C510.125 110.84 510.649 111.434 510.649 110.554C510.649 108.08 512.712 105.437 513.975 103.51C517.246 98.5209 521.444 93.9732 524.12 88.6218C524.405 88.0514 525.065 86.3207 525.065 86.9583C525.065 93.1993 530.87 98.3145 533.834 103.408C535.064 105.523 536.322 109.157 538.167 110.739C538.734 111.225 543.115 108.059 543.958 107.638C544.697 107.269 559.612 100.936 559.791 101.744C560.842 106.473 558.64 112.331 557.964 116.92C557.608 119.33 556.855 122.201 556.855 124.621C556.855 125.922 562.736 125.083 563.714 124.97C567.542 124.531 571.333 123.491 574.967 122.219C575.697 121.963 577.978 120.887 578.828 121.13C580.885 121.718 571.588 135.818 571.065 136.676C570.38 137.801 565.785 144.262 567.985 145.363C570.736 146.738 573.015 149.295 575.44 151.154C579.547 154.303 583.381 157.822 587.392 161.093C588.112 161.681 589.89 162.51 588.028 162.51C585.187 162.51 582.362 162.488 579.526 162.716C574.696 163.104 569.843 163.454 565.028 163.989C564.607 164.036 561.702 164.36 561.968 164.626L562.063 164.72C567.065 169.723 571.96 174.617 575.85 180.603C576.04 180.894 577.573 182.726 577.493 183.005C577.29 183.717 574.286 182.393 573.817 182.286C570.017 181.423 565.625 182.327 561.783 182.451C558.943 182.542 556.184 182.964 553.363 183.19C552.807 183.235 546.016 183.475 548.278 184.122C550.526 184.764 552.577 185.402 554.787 186.4C558.7 188.167 560.027 187.529 564.145 188.352C566.403 188.804 569.31 189.746 571.546 190.305C572.245 190.48 578.491 190.837 579.021 191.425C580.112 192.637 570.636 197.236 570.082 197.79C567.364 200.508 564.235 200.173 562.551 203.541C561.558 205.526 570.128 211.549 571.546 212.824C574.587 215.557 577.372 218.669 580.581 221.202C581.563 221.977 586.641 227.568 585.839 227.568C585.186 227.568 584.775 227.248 584.196 227.034C582.682 226.477 580.597 226.619 579.021 226.542C575.36 226.361 571.678 226.459 568.013 226.459C567.381 226.459 563.996 225.932 563.454 226.542C563.145 226.89 563.973 231.794 564.145 232.091C565.297 234.081 565.33 236.448 565.623 238.745C566.265 243.766 567.289 244.496 567.726 249.542C568.093 253.779 569.154 258.05 568.917 262.315C568.864 263.273 567.715 262.181 567.438 262.028C565.528 260.966 563.484 260.566 561.36 260.097C557.508 259.247 553.52 258.941 549.654 258.085C546.82 257.457 543.818 256.875 540.906 256.771C538.972 256.702 540.812 278.952 539.633 282.933C538.921 285.336 539.464 285.649 537.209 283.467C534.841 281.175 533.094 280.515 530.137 278.667C527.18 276.818 524.593 274.97 522.005 272.752C519.048 269.056 518.016 267.235 516.83 267.947C512.719 270.413 510.176 273.492 505.371 277.558C503.031 278.988 500.985 280.966 498.766 282.569C497.746 283.306 496.923 284.393 495.809 284.951C493.191 286.26 493.96 281.806 493.96 280.433C493.96 272.159 494.813 268.786 496.096 260.631C496.408 258.649 496.466 256.716 496.466 254.717C496.466 254.377 496.12 255.36 495.809 255.497C493.262 256.618 490.816 257.851 488.375 259.194C483.803 261.708 477.852 265.727 472.439 266.012C472.175 266.026 471.303 266.161 471.166 265.848C470.225 263.698 470.946 259.845 471.042 257.592C471.211 253.663 471.66 249.722 471.987 245.804C472.01 245.526 472.462 241.237 472.069 241.04C471.931 240.971 469.503 241.245 469.379 241.245C466.854 241.245 464.326 241.212 461.801 241.245C457.46 241.303 453.289 242.665 448.946 242.724C448.062 242.736 445.849 243.125 445.167 242.272C444.707 241.698 447.643 238.479 447.796 238.288C453.248 231.461 459.123 224.847 464.224 217.752C464.762 217.005 465.397 216.319 465.929 215.575C466.106 215.327 464.214 215.251 464.019 215.206C460.864 214.468 458.03 211.715 455.435 209.907C453.116 208.292 450.397 206.828 448.863 204.363L448.846 204.335C448.601 203.942 447.16 201.63 447.385 201.406C447.71 201.08 449.388 201.323 449.705 201.323H460.322H477.408C478.858 201.323 465.912 191.579 467.297 191.425L491.324 190.07Z" fill="black" stroke="black" stroke-width="4.13423" stroke-linecap="round"/>
<path fill-rule="evenodd" clip-rule="evenodd" d="M511.913 142.045C511.39 142.167 511 142.637 511 143.197C511 143.321 510.994 143.451 510.986 143.616C510.984 143.674 510.981 143.737 510.978 143.805C510.967 144.045 510.958 144.336 510.975 144.635C511.008 145.205 511.145 146.021 511.779 146.653C512.3 147.171 513.045 147.479 513.705 147.622C514.359 147.764 515.185 147.798 515.894 147.501C516.47 147.259 516.95 146.833 517.286 146.354C517.622 145.875 517.87 145.261 517.87 144.596C517.87 143.635 517.425 142.951 517.005 142.469C516.827 142.265 516.632 142.072 516.473 141.915C516.453 141.895 516.434 141.876 516.415 141.858C516.233 141.677 516.095 141.537 515.983 141.397C515.733 141.085 515.405 140.974 515.289 140.937C515.128 140.887 514.969 140.861 514.84 140.847C514.577 140.817 514.288 140.818 514.024 140.835C513.76 140.852 513.472 140.888 513.214 140.95C513.087 140.981 512.936 141.024 512.788 141.089C512.672 141.14 512.405 141.266 512.196 141.534C512.067 141.7 511.977 141.876 511.913 142.045Z" fill="white" stroke="black" stroke-width="1.37808" stroke-linecap="round"/>
<path fill-rule="evenodd" clip-rule="evenodd" d="M530.07 142.045C529.546 142.167 529.156 142.637 529.156 143.197C529.156 143.321 529.15 143.451 529.142 143.616C529.14 143.674 529.137 143.737 529.134 143.805C529.124 144.045 529.115 144.336 529.132 144.635C529.164 145.205 529.301 146.021 529.935 146.653C530.456 147.171 531.201 147.479 531.861 147.622C532.516 147.764 533.341 147.798 534.05 147.501C534.626 147.259 535.106 146.833 535.442 146.354C535.778 145.875 536.027 145.261 536.027 144.596C536.027 143.635 535.581 142.951 535.161 142.469C534.984 142.265 534.788 142.072 534.629 141.915C534.609 141.895 534.59 141.876 534.571 141.858C534.389 141.677 534.252 141.537 534.14 141.397C533.889 141.085 533.561 140.974 533.445 140.937C533.284 140.887 533.125 140.861 532.996 140.847C532.733 140.817 532.444 140.818 532.18 140.835C531.916 140.852 531.629 140.888 531.37 140.95C531.243 140.981 531.093 141.024 530.944 141.089C530.829 141.14 530.562 141.266 530.352 141.534C530.223 141.7 530.133 141.876 530.07 142.045Z" fill="white" stroke="black" stroke-width="1.37808" stroke-linecap="round"/>
<path fill-rule="evenodd" clip-rule="evenodd" d="M521.803 147.233C521.436 147.434 521.187 147.824 521.187 148.272C521.187 148.32 521.185 148.366 521.181 148.441C521.18 148.472 521.178 148.508 521.176 148.551C521.171 148.674 521.165 148.844 521.176 149.025C521.195 149.359 521.278 149.948 521.751 150.419C522.119 150.786 522.611 150.977 523.006 151.063C523.396 151.147 523.945 151.183 524.454 150.97C524.86 150.799 525.184 150.507 525.406 150.19C525.628 149.874 525.805 149.45 525.805 148.971C525.805 148.29 525.484 147.814 525.227 147.52C525.123 147.399 525.008 147.286 524.93 147.209C524.92 147.199 524.911 147.19 524.902 147.182C524.811 147.091 524.764 147.042 524.732 147.002C524.493 146.704 524.187 146.605 524.102 146.578C523.971 146.537 523.85 146.518 523.764 146.509C523.589 146.489 523.408 146.491 523.253 146.501C523.097 146.511 522.918 146.533 522.748 146.573C522.665 146.593 522.553 146.625 522.436 146.676C522.351 146.713 522.107 146.825 521.91 147.077C521.87 147.128 521.834 147.181 521.803 147.233Z" fill="white" stroke="black" stroke-width="1.37808" stroke-linecap="round"/>
<path d="M512.993 199.403C512.279 202.269 512.184 205.923 512.184 208.859C511.879 208.247 510.29 207.683 509.606 207.371C506.627 206.013 502.648 206.418 499.925 204.68C497.642 203.222 499.784 206.978 500.045 207.371C501.902 210.165 504.006 213.079 506.234 215.595C506.898 216.344 507.623 216.986 508.467 217.519C508.767 217.708 510.011 217.79 509.321 217.79C504.791 217.79 500.259 217.519 495.744 217.519C495.498 217.519 494.497 217.462 494.59 217.579C495.364 218.549 496.009 219.354 497.093 220.09C499.274 221.57 501.582 222.839 503.821 224.224C504.816 224.839 506.193 225.905 507.463 225.622C507.751 225.558 508.445 224.899 508.078 225.637C507.474 226.847 506.408 228.087 505.575 229.14C504.546 230.44 503.432 231.865 502.952 233.485C502.662 234.463 501.857 235.324 501.678 236.311C501.339 238.183 503.581 236.415 504.376 236.056C506.453 235.118 508.375 234.487 510.161 233.094C510.51 232.821 511.988 231.08 512.319 231.08C513.525 231.08 513.802 236.927 513.802 237.529C513.802 238.84 513.698 242.713 514.057 241.453C514.725 239.107 516.138 236.888 517.442 234.841L517.444 234.838C518.739 232.804 520.665 231.025 520.816 228.614C520.819 228.567 523.946 231.721 524.322 232.192C524.617 232.561 527.001 236.241 527.02 235.921C527.145 233.792 526.509 231.338 526.271 229.215C526.048 227.228 526.56 223.297 525.072 221.638C524.63 221.146 524.926 221.167 525.311 221.308C527.95 222.27 530.768 223.03 533.494 223.683C535.156 224.081 538.952 225.091 540.642 224.149C541.377 223.739 540.012 223.354 539.698 223.142C537.775 221.838 535.606 220.894 533.659 219.549C531.457 218.027 529.422 216.259 527.08 214.933C526.237 214.456 525.786 214.698 526.615 213.866C527.29 213.189 528.026 212.659 528.758 212.047C531.804 209.5 534.77 206.907 538.005 204.59C539.003 203.874 540.118 203.176 540.987 202.305C541.216 202.074 541.436 201.748 541.706 201.568C542.752 200.868 539.26 202.163 538.02 202.365C534.044 203.012 530.152 203.991 526.241 204.935C524.863 205.268 523.178 205.618 522.164 206.694C521.594 207.3 521.567 207.239 521.212 206.425L521.205 206.409C520.581 204.978 519.879 203.587 519.257 202.154C518.091 199.468 514.881 196.513 514.881 193.495C514.881 192.637 514.47 192.522 514.072 194.517C513.603 196.873 513.574 197.073 512.993 199.403Z" fill="white" stroke="black" stroke-width="4.13423" stroke-linecap="round"/>
<path fill-rule="evenodd" clip-rule="evenodd" d="M514.388 149.487C513.443 149.609 512.764 150.38 512.871 151.208C513.185 153.631 513.912 155.836 515.489 157.972C516.667 159.568 518.836 160.336 520.81 160.602C522.815 160.873 525.067 160.692 526.807 159.978C528.47 159.296 530.273 158.219 531.631 156.83C532.994 155.437 534.021 153.602 533.749 151.505C533.642 150.677 532.789 150.105 531.844 150.227C530.898 150.35 530.219 151.121 530.327 151.949C530.453 152.926 530.006 153.923 529.053 154.897C528.096 155.876 526.741 156.703 525.439 157.237C524.472 157.634 522.946 157.807 521.443 157.605C519.91 157.398 518.842 156.865 518.396 156.26C517.161 154.587 516.563 152.845 516.294 150.765C516.186 149.936 515.333 149.364 514.388 149.487Z" fill="white"/>
<path fill-rule="evenodd" clip-rule="evenodd" d="M516.662 150.716C516.531 149.71 515.494 149.014 514.346 149.163C513.197 149.312 512.372 150.249 512.503 151.255C512.822 153.715 513.562 155.97 515.176 158.156C516.433 159.858 518.721 160.651 520.741 160.924C522.801 161.202 525.13 161.02 526.954 160.272C528.656 159.574 530.507 158.471 531.908 157.038C533.315 155.6 534.405 153.674 534.117 151.457C533.987 150.45 532.95 149.755 531.801 149.904C530.653 150.053 529.828 150.989 529.958 151.996C530.069 152.853 529.683 153.76 528.775 154.688C527.861 155.623 526.555 156.423 525.292 156.942C524.408 157.304 522.959 157.477 521.511 157.281C520.026 157.081 519.076 156.574 518.708 156.075C517.51 154.452 516.927 152.76 516.662 150.716ZM514.43 149.809C515.171 149.713 515.841 150.162 515.925 150.812C516.2 152.929 516.811 154.721 518.083 156.444C518.608 157.154 519.793 157.713 521.375 157.926C522.931 158.136 524.536 157.962 525.586 157.531C526.927 156.981 528.33 156.127 529.33 155.104C530.328 154.084 530.837 152.997 530.695 151.9C530.61 151.25 531.143 150.645 531.885 150.549C532.627 150.453 533.296 150.902 533.381 151.552C533.637 153.528 532.672 155.273 531.353 156.622C530.038 157.966 528.284 159.016 526.659 159.682C525.002 160.362 522.829 160.542 520.878 160.279C518.951 160.019 516.901 159.276 515.801 157.787C514.261 155.701 513.548 153.546 513.239 151.16C513.155 150.51 513.688 149.905 514.43 149.809Z" fill="black"/>
</g>
<path d="M301.799 97.1543C301.799 99.9598 307.201 137.388 310.524 150.507C314.01 164.265 319.779 175.14 322.293 180.647C325.619 187.934 326.369 192.105 327.946 195.875C329.745 200.178 332.018 205.907 333.595 210.779C335.023 215.192 337.987 220.029 340.025 224.119C341.821 227.724 343.937 233.51 345.989 238.241C347.696 242.175 349.906 245.768 352.575 252.038C354.869 257.427 356.816 260.831 359.009 264.602C361.212 268.372 362.465 271.197 363.561 273.075C364.037 274.021 366.685 282.418 367.946 285.262" stroke="black" stroke-width="5.5123" stroke-linecap="round"/>
<path d="M389.306 291.463C388.996 289.59 386.642 272.167 385.229 268.396C383.09 262.685 378.489 256.162 376.601 252.236C374.203 247.249 370.957 243.302 369.225 239.211C367.117 234.234 364.047 228.86 361.072 222.59C358.687 217.563 356.835 213.797 355.258 209.715C353.28 204.596 352.749 200.616 351.492 196.064C350.366 191.985 348.042 188.377 346.785 183.825C345.659 179.746 343.335 176.138 341.296 172.368C339.381 168.824 338.006 164.841 336.429 161.07C334.896 157.404 333.92 153.543 332.663 149.773C331.281 145.625 329.213 141.304 327.956 136.752C326.858 132.775 325.447 129.065 324.19 124.358C322.933 119.331 321.992 115.876 321.521 113.842C321.361 112.741 322.462 94.3009 321.52 93.0205" stroke="black" stroke-width="5.5123" stroke-linecap="round"/>
<path d="M632.019 105.156C631.007 105.656 628.983 108.006 627.048 110.201C625.21 112.286 623.9 114.24 622.879 116.264C621.886 118.232 621.255 120.303 620.542 124.416C619.079 132.853 621.852 135.289 624.086 137.567C626.404 139.932 628.959 141.19 631.4 142.456C633.611 143.602 641.502 143.555 646.637 142.633C649.617 142.098 652.522 139.018 654.463 136.994C656.361 135.016 658.02 132.449 659.946 130.426C661.73 128.551 661.884 122.718 660.771 118.805C660.156 116.639 658.032 114.766 656.304 112.742C654.433 110.552 651.535 109.208 649.094 107.688C646.653 106.172 644.221 104.823 638.744 104.734C637.51 104.818 636.907 104.984 636.285 105.156" stroke="black" stroke-width="5.5123" stroke-linecap="round"/>
<path d="M462.612 193.5C463.006 194.689 464.989 197.466 466.787 200.062C468.425 202.426 470.366 204.444 472.262 206.535C474.178 208.646 476.937 209.821 479.33 211.416C481.722 213.011 484.106 214.6 486.498 215.6C488.889 216.6 491.275 217.79 493.667 218.587C496.06 219.385 498.443 220.179 500.836 220.977C503.228 221.774 505.612 222.569 508.996 222.871C514.745 223.383 523.534 223.764 529.397 223.868C532.735 223.928 535.482 222.975 537.874 222.178C540.267 221.38 542.65 220.586 545.043 219.292C547.358 218.041 549.819 217.001 552.212 215.114C554.428 213.364 557.382 212.031 559.978 210.729C562.596 209.415 564.754 207.049 567.147 204.958C569.33 203.05 571.72 201.075 573.82 198.984C575.82 196.992 577.502 194.707 579.495 192.314C581.154 190.321 581.684 187.143 583.181 184.548C584.457 182.334 584.48 179.377 585.074 176.782C585.637 174.323 586.667 172.006 587.464 169.613C588.262 167.22 589.056 164.837 589.854 162.444C590.634 160.104 590.848 157.668 591.547 155.177C592.332 152.378 592.246 149.508 592.742 146.025C593.712 139.211 591.852 136.759 591.054 134.268C590.14 131.412 589.462 128.993 588.07 126.601C586.567 124.017 584.289 121.824 582.595 119.432C580.831 116.94 577.933 113.473 574.934 109.978C570.48 104.788 568.159 102.708 566.466 100.315C564.629 97.7201 562.783 95.539 561.089 93.245C559.396 90.9515 556.414 90.3536 554.022 89.0602C551.773 87.8448 549.246 87.3666 546.853 86.0733C544.605 84.8578 542.077 84.7739 539.487 84.1795C534.611 83.0602 528.934 83.1849 526.443 82.8832C521.396 82.2719 514.597 81.9901 510.717 81.6884C505.253 81.2636 497.272 81.5838 494.781 82.3814C491.925 83.2959 489.506 84.3677 487.114 85.9627C484.808 87.4998 482.338 88.5495 479.945 89.6487C477.382 90.8261 472.803 95.4912 469.192 98.6066C465.839 101.499 462.026 105.671 459.732 108.063C457.702 110.18 456.841 112.84 455.547 115.232C454.332 117.481 453.854 120.008 453.056 122.401C452.259 124.793 451.464 127.177 450.171 130.065C449.087 132.485 448.477 134.943 448.175 138.327C447.698 143.685 448.071 151.67 448.77 154.26C449.663 157.568 450.461 160.034 451.258 162.426C452.056 164.819 452.85 167.202 453.648 169.595C454.445 171.988 454.845 174.371 455.341 176.862C455.909 179.713 456.434 182.137 456.835 184.53C457.276 187.168 458.824 189.306 461.306 192.096C462.008 192.699 462.6 193.094 463.2 193.592C463.8 194.091 464.392 194.683 465.001 195.292" stroke="black" stroke-width="5.5123" stroke-linecap="round"/>
<path d="M404.899 163.725C404.48 163.725 402.376 163.725 398.782 164.459C392.212 165.801 391.564 171.759 389.123 174.731C386.671 177.716 387.318 180.874 387.312 189.222C387.309 193.435 390.064 196.128 391.65 198.569C393.303 201.113 396.624 202.065 400.329 202.602C405.276 203.319 411.243 202.713 413.788 201.232C416.337 199.75 419.709 197.222 422.477 194.771C424.469 193.008 424.387 189.798 425.131 185.889C426.896 176.609 423.764 173.907 422.595 171.362C421.386 168.731 419.951 166.28 417.621 164.367C415.076 162.88 411.491 162.454 407.68 162.663C406.177 162.873 405.548 163.293 404.264 164.361" stroke="black" stroke-width="5.5123" stroke-linecap="round"/>
<path d="M288.501 123.053C288.292 121.788 287.027 118.832 283.544 114.389C276.273 105.115 273.043 103.997 270.609 101.979C267.459 99.3677 264.361 97.4247 261.815 95.7277C259.27 94.0306 256.734 92.3398 254.188 91.1703C251.461 89.9175 249.106 88.3101 246.561 87.4615C244.071 86.6316 241.479 86.4032 238.933 86.0822C238.291 86.0013 237.665 85.7676 230 85.6596C222.334 85.5515 207.652 85.5515 199.773 85.6564C191.895 85.7613 191.266 85.971 191.256 86.2888C191.169 89.1985 196.325 90.4203 198.871 91.9013C201.515 93.4398 203.952 95.2891 206.498 97.4089C209.206 99.6636 212.851 102.281 216.029 104.61C219.214 106.945 221.749 108.637 224.295 110.229C226.669 111.714 229.377 112.667 231.922 114.043C234.386 115.374 237.004 116.9 239.55 118.597C242.338 120.456 245.267 122.62 247.813 123.79C250.54 125.043 252.894 127.07 255.44 128.872C257.776 131.309 259.886 133.426 261.799 135.755C262.225 136.394 262.645 137.023 263.077 137.672" stroke="white" stroke-width="5.5123" stroke-linecap="round"/>
<path d="M344.435 276.235C344.435 281.905 344.016 294.223 343.695 297.833C343.405 301.09 342.109 303.973 339.678 308.845C338.212 311.783 337.024 314.359 335.543 316.905C334.005 319.549 331.736 322.406 329.19 325.8C326.82 328.96 324.324 331.94 321.776 335.016C318.185 339.35 315.21 341.055 312.664 342.968C310.077 344.912 306.527 347.195 303.766 348.797C301.261 350.249 298.684 351.441 296.138 352.505C293.663 353.541 291.057 354.199 288.511 355.048C287.872 355.261 287.243 355.47 287.024 355.264C285.419 353.752 288.921 350.614 290.297 348.069C291.59 345.676 292.938 342.987 294.428 340.337C296.26 337.08 298.239 334.724 299.831 332.178C301.316 329.804 302.269 327.097 304.172 322.968C305.454 320.189 306.082 317.563 306.403 315.017C306.754 312.233 307.354 309.3 307.675 306.649C308.05 303.55 308.625 301.037 308.946 295.853C309.051 294.674 309.26 294.045 309.369 290.679C309.477 287.314 309.477 281.231 309.477 274.964" stroke="white" stroke-width="5.5123" stroke-linecap="round"/>
<path d="M90.8752 101.984C86.2434 98.1108 82.3821 104.488 82.7995 109.165C83.3972 115.863 91.533 109.125 91.6191 105.148C91.7794 97.743 84.4027 107.096 83.7251 108.621C81.2437 114.206 93.8835 109.583 87.3761 104.142" stroke="white" stroke-width="4.13423" stroke-linecap="round"/>
<path d="M788.182 27.5676C783.55 23.6948 779.689 30.072 780.106 34.7489C780.704 41.4473 788.84 34.7086 788.926 30.7315C789.086 23.327 781.709 32.6797 781.032 34.2048C778.55 39.79 791.19 35.1668 784.683 29.7258" stroke="white" stroke-width="4.13423" stroke-linecap="round"/>
<path d="M105.643 42.5333C101.098 39.6071 99.2765 54.2009 104.302 48.1906C109.751 41.6741 98.5485 43.3799 104.302 48.1906" stroke="white" stroke-width="4.13423" stroke-linecap="round"/>
<path d="M842.755 188.626C840.226 193.384 852.423 191.885 847.472 188.621C842.104 185.083 843.345 194.883 847.472 188.621" stroke="white" stroke-width="4.13423" stroke-linecap="round"/>
<path d="M211.119 339.683C209.179 328.416 198.783 346.636 206.569 345.762C215.01 344.814 204.787 329.903 206.569 345.762" stroke="white" stroke-width="4.13423" stroke-linecap="round"/>
<path d="M81.6201 60.6719C79.1995 59.0914 75.5588 59.0415 72.7738 58.2482C69.2583 57.2468 65.9365 55.8314 62.4514 54.7824C59.794 53.9826 57.2802 52.9887 54.7207 51.9109C53.2714 51.3006 51.8583 50.6782 50.3429 50.2092C48.3134 49.5812 46.1616 50.1149 44.1228 49.6179C43.5626 49.4813 37.9118 48.1719 37.9845 48.0605" stroke="white" stroke-width="4.13423" stroke-linecap="round"/>
<path d="M72.9596 37.7275C71.141 40.513 69.3224 43.2985 67.5037 46.084C65.5895 49.0158 63.0576 51.4097 61.1082 54.2582C60.3178 55.413 59.5761 56.6047 58.8109 57.7767C57.8317 59.2764 58.4256 61.4412 57.7968 63.1131C57.2693 64.5156 57.351 66.0932 56.7054 67.5169C56.2023 68.6263 55.6786 69.6 55.0007 70.6382C53.7249 72.5922 52.2408 74.3249 50.9575 76.2904" stroke="white" stroke-width="4.13423" stroke-linecap="round"/>
<path d="M54.9266 37.2458C56.2201 38.0903 56.5351 39.7547 57.1357 41.1581C58.3457 43.9854 59.4599 46.7581 60.4179 49.6721C61.8095 53.9047 62.1325 58.5273 63.2847 62.8155C63.7061 64.384 65.0046 66.0023 65.8546 67.3162C67.0204 69.1185 67.1523 71.0195 67.9708 72.9322" stroke="white" stroke-width="4.13423" stroke-linecap="round"/>
<path d="M564.199 291.196C561.147 292.163 558.48 295.026 555.816 296.759C552.453 298.947 548.887 300.73 545.506 302.864C542.929 304.492 540.294 305.888 537.557 307.269C536.007 308.051 534.474 308.797 532.993 309.718C531.01 310.95 529.9 312.984 528.019 314.303C527.502 314.666 522.344 318.364 522.305 318.239" stroke="white" stroke-width="4.13423" stroke-linecap="round"/>
<path d="M538.979 284.177C539.971 287.311 540.963 290.444 541.955 293.577C542.999 296.875 543.153 300.338 544.103 303.614C544.488 304.942 544.939 306.254 545.356 307.572C545.89 309.259 548.109 310.099 549.038 311.612C549.817 312.881 551.181 313.772 551.893 315.147C552.447 316.22 552.875 317.226 553.244 318.394C553.94 320.592 554.303 322.821 555.003 325.032" stroke="white" stroke-width="4.13423" stroke-linecap="round"/>
<path d="M525.575 298.219C527.206 297.703 528.81 298.461 530.403 298.834C533.614 299.585 536.71 300.38 539.811 301.384C544.315 302.843 548.37 305.387 552.747 307.069C554.348 307.685 556.623 307.633 558.322 307.754C560.653 307.919 562.32 308.966 564.492 309.475" stroke="white" stroke-width="4.13423" stroke-linecap="round"/>
<path d="M853.334 304.147C851.933 305.294 848.264 307.152 836.454 310.947C830.204 312.955 825.561 313.917 819.665 314.882C810.621 316.363 807.182 318.083 801.809 319.325C794.157 321.095 785.03 323.792 779.769 324.55C776.013 325.091 772.58 325.386 768.868 326.281C765.303 327.14 761.18 328.598 757.82 330.361C754.804 331.944 751.266 332.067 747.775 332.539C743.988 333.051 739.158 333.564 735.236 333.28C731.855 333.035 726.953 333.666 722.282 333.529C719.009 333.433 714.093 334.495 703.176 337.829C698.365 338.717 695.791 338.992 694.135 339.07C693.327 339.057 692.588 338.938 691.825 338.815" stroke="white" stroke-width="5.5123" stroke-linecap="round"/>
<path d="M685.173 315.897C689.895 306.861 700.965 287.729 703.757 284.983C706.49 282.296 708.941 279.195 711.406 276.292C713.513 273.811 715.199 270.849 717.993 266.789C721.293 261.995 722.613 257.704 724.988 252.384C735.205 229.505 738.87 228.135 740.523 225.754C742.596 223.593 744.24 221.487 745.026 219.472C745.263 218.506 745.173 217.657 745.412 216.146" stroke="white" stroke-width="5.5123" stroke-linecap="round"/>
<path d="M840.447 288.503C834.352 285.317 820.347 276.928 817.274 273.965C814.808 271.586 811.049 269.362 808.452 267.595C805.831 265.813 803.226 263.653 801.176 261.366C798.994 258.931 797.253 256.48 795.204 254.194C793.021 251.759 791.281 249.308 789.231 247.022C787.049 244.587 785.308 242.136 782.309 239.621C776.425 234.685 772.941 233.776 770.508 231.698C769.979 231.151 769.459 230.611 768.931 230.064C768.403 229.517 767.883 228.977 766.407 227.12" stroke="white" stroke-width="5.5123" stroke-linecap="round"/>
<path d="M650.498 336.712C651.816 337.478 653.686 338.517 655.12 339.054C653.994 339.09 653.68 340.22 652.808 340.578C651.909 340.946 650.94 342.208 650.221 342.835C649.729 343.265 649.018 343.561 648.487 343.979C648.112 344.274 647.752 344.625 647.296 344.834C647.231 344.864 646.519 345.127 646.624 345.166C647.228 345.392 648.638 345.308 649.284 345.339C650.198 345.383 651.238 345.446 652.121 345.339C653.213 345.208 654.652 344.959 655.764 345.083C656.45 345.16 657.358 345.287 658.014 345.103C658.029 345.099 657.906 345.807 657.937 346.083C658 346.63 657.767 347.353 657.748 347.924C657.681 349.938 657.314 352.086 658.037 354.126C658.465 355.333 658.898 356.867 659.574 355.06C660.872 351.592 661.905 348.06 663.204 344.59C663.378 344.125 663.993 345.239 664.153 345.543C664.848 346.854 666.332 348.291 667.464 349.387L667.504 349.426C668.776 350.658 670.46 352.468 672.119 353.291C672.378 353.42 673.751 354.08 673.48 353.575C671.686 350.243 671.068 346.548 668.771 343.328C668.202 342.53 670.415 341.936 671.133 341.584C671.877 341.219 672.644 340.69 673.381 340.275C674.169 339.831 675.077 339.43 675.781 338.903C676.581 338.304 677.574 337.685 678.193 336.939C678.628 336.414 679.175 336.541 678.231 336.236C676.485 335.672 674.125 336.127 672.301 335.795C669.889 335.356 670.211 335.266 669.968 333.5C669.773 332.086 669.269 330.582 669.327 329.184C669.342 328.823 668.872 325.139 668.152 325.346C667.322 325.584 666.405 326.739 666.153 327.412C665.703 328.615 664.587 329.902 663.917 331.102C663.671 331.544 663.809 332.181 663.199 331.816C662.81 331.583 662.536 331.256 662.14 330.981C660.291 329.699 658.866 327.985 657.224 326.458C656.356 325.652 655.258 324.568 654.109 324.097C653.289 323.761 653.555 324.229 653.509 324.709C653.371 326.167 654.893 327.598 655.729 328.899C656.369 329.894 658.465 332.353 658.36 333.456C658.318 333.899 657.328 333.607 656.945 333.576C655.669 333.473 654.411 332.973 653.124 332.757C650.83 332.37 648.826 332.305 646.491 332.344C645.404 332.363 645.124 332.293 645.929 332.984C646.407 333.394 646.813 333.874 647.348 334.232C648.467 334.98 649.279 336.004 650.498 336.712Z" fill="white" stroke="white" stroke-width="4.13423" stroke-linecap="square"/>
<path d="M854.461 292.628C854.56 291.699 856.077 288.949 857.393 286.227C859.134 282.624 860.017 280.49 860.949 278.462C861.965 276.25 863.001 273.917 864.075 272.236C864.642 271.349 865.124 270.41 865.872 270.018C868.559 268.607 869.267 278.297 870.504 280.474C871.433 282.109 872.42 283.701 873.38 285.318C874.465 287.145 875.05 289.51 875.806 291.928C876.005 292.498 876.242 292.898 876.483 293.303C876.724 293.709 876.961 294.109 877.3 294.956" stroke="white" stroke-width="5.5123" stroke-linecap="round"/>
<path d="M858.645 286.704C858.932 286.642 862.239 285.923 867.33 284.891C869.866 284.566 870.921 284.491 871.82 284.446C872.289 284.495 872.782 284.688 873.291 284.888" stroke="white" stroke-width="5.5123" stroke-linecap="round"/>
<path d="M754.638 186.047C754.636 186.227 754.634 186.408 754.581 190.826C754.529 195.244 754.425 203.895 753.82 212.801" stroke="white" stroke-width="5.5123" stroke-linecap="round"/>
<path d="M754.093 189.862C754.422 189.867 756.076 189.891 758.812 190.47C763.285 191.418 762.684 195.442 762.839 196.534C763.146 198.709 759.639 200.67 757.453 202.015C756.964 202.316 756.448 202.634 755.943 202.903C755.438 203.172 754.941 203.345 756.251 203.456C764.731 204.178 767.719 205.166 769.88 206.016C770.965 206.443 771.866 207.229 772.774 207.786C773.747 208.383 774.004 209.805 773.994 210.805C773.972 213.227 769.82 212.482 766.483 213.342C764.982 213.506 763.476 213.665 761.153 213.905C759.656 213.976 757.513 213.946 754.312 213.354" stroke="white" stroke-width="5.5123" stroke-linecap="round"/>
<path d="M843.458 120.994C844.843 123.907 846.693 128.036 847.474 131.162C847.985 128.775 854.043 121.811 855.247 120.01C856.488 118.155 859.949 116.281 861.758 114.847C862.997 113.865 863.989 112.397 865.213 111.331C866.079 110.577 867.075 109.864 867.759 108.926C867.857 108.792 868.769 107.317 868.826 107.546C869.155 108.864 868.419 111.848 868.254 113.225C868.02 115.176 867.785 117.394 867.192 119.256C866.46 121.556 864.676 127.504 864.566 129.887C864.498 131.357 864.468 133.305 863.771 134.671C863.755 134.702 865.541 134.545 866.206 134.653C867.525 134.868 869.387 134.478 870.795 134.523C876.355 134.699 878.64 137.753 883.378 139.593C886.18 140.681 889.783 141.826 885.094 142.997C876.096 145.243 875.228 148.532 866.223 150.78C863.632 151.494 862.461 154.006 864.025 155.044C867.018 156.733 867.333 158.535 869.609 161.114C872.156 163.999 874.654 165.75 876.053 169.397C876.272 169.967 877.377 172.983 876.24 172.331C868.733 168.027 857.531 168.212 850.489 162.854C848.743 161.526 846.669 165.256 845.537 166.73C844.363 168.257 842.777 169.808 841.481 171.313C840.096 172.921 838.773 174.792 837.215 176.21C835.445 177.823 833.553 179.842 831.489 181.047C830.04 181.893 830.145 183.074 829.75 181.022C829.019 177.23 831.02 172.28 830.889 168.356C830.714 163.164 832.524 162.675 828.281 161.898C824.881 161.275 821.379 159.981 817.928 159.897C817.035 159.875 808.169 158.332 808.945 156.832C809.842 155.103 813.019 153.326 814.766 152.89C817.888 152.11 821.464 149.929 824.661 148.683C825.838 148.225 827.349 148.613 826.681 147.261C826.256 146.402 825.556 145.772 825.03 144.889C822.574 140.769 818.902 137.487 815.77 133.77C814.116 131.807 811.866 129.314 811.142 126.802C810.624 125.009 811.673 125.643 812.868 125.617C816.498 125.539 819.441 128.985 822.321 130.955C824.523 132.462 829.774 137.281 832.52 137.221C833.625 137.197 833.279 135.049 833.346 134.23C833.571 131.504 832.815 128.756 832.765 125.989C832.676 121.056 833.266 116.788 834.238 111.831C834.69 109.523 834.623 108.918 836.017 110.731C836.845 111.808 837.872 112.741 838.55 113.932C839.967 116.421 842.177 118.298 843.458 120.994Z" fill="white"/>
<path fill-rule="evenodd" clip-rule="evenodd" d="M838.645 146.981C837.782 147.201 837.261 148.079 837.482 148.942C838.126 151.465 839.123 153.718 840.902 155.817C842.231 157.384 844.363 157.985 846.24 158.075C848.147 158.167 850.218 157.759 851.735 156.838C853.185 155.959 854.708 154.651 855.772 153.056C856.839 151.456 857.529 149.423 856.971 147.24C856.751 146.377 855.873 145.857 855.011 146.077C854.148 146.297 853.628 147.175 853.848 148.038C854.108 149.055 853.836 150.149 853.09 151.267C852.34 152.391 851.199 153.393 850.064 154.082C849.22 154.593 847.824 154.923 846.395 154.855C844.937 154.785 843.865 154.326 843.361 153.732C841.968 152.088 841.158 150.31 840.605 148.144C840.385 147.281 839.507 146.761 838.645 146.981Z" fill="black"/>
<path fill-rule="evenodd" clip-rule="evenodd" d="M856.47 140.921C855.667 140.924 854.97 140.328 854.866 139.511C854.755 138.628 855.38 137.822 856.263 137.71C856.31 137.704 856.347 137.697 856.432 137.68L856.439 137.679C856.441 137.679 856.444 137.678 856.448 137.677C856.505 137.665 856.729 137.619 856.966 137.623C857.313 137.629 857.817 137.739 858.229 138.171C858.554 138.511 858.662 138.898 858.703 139.057C858.923 139.919 858.403 140.797 857.54 141.017C857.168 141.112 856.793 141.07 856.47 140.921ZM857.109 140.833C857.109 140.833 857.105 140.834 857.095 140.835C857.104 140.834 857.108 140.833 857.109 140.833Z" fill="black"/>
<path fill-rule="evenodd" clip-rule="evenodd" d="M837.499 141.614C836.696 141.617 835.999 141.021 835.896 140.204C835.784 139.321 836.41 138.515 837.293 138.403C837.34 138.397 837.377 138.39 837.461 138.374L837.468 138.372C837.47 138.372 837.473 138.371 837.478 138.37C837.534 138.359 837.759 138.313 837.995 138.317C838.343 138.322 838.846 138.432 839.258 138.864C839.583 139.205 839.692 139.591 839.732 139.75C839.953 140.613 839.432 141.49 838.57 141.711C838.198 141.806 837.823 141.763 837.499 141.614ZM838.138 141.527C838.138 141.526 838.134 141.527 838.124 141.529C838.133 141.528 838.138 141.527 838.138 141.527Z" fill="black"/>
<path fill-rule="evenodd" clip-rule="evenodd" d="M845.635 148.475C844.832 148.478 844.135 147.881 844.031 147.065C843.92 146.182 844.545 145.375 845.428 145.264C845.475 145.258 845.512 145.251 845.597 145.234L845.604 145.233C845.606 145.232 845.609 145.232 845.613 145.231C845.67 145.219 845.894 145.173 846.131 145.177C846.478 145.183 846.982 145.292 847.394 145.724C847.719 146.065 847.827 146.451 847.868 146.611C848.088 147.473 847.568 148.351 846.705 148.571C846.333 148.666 845.958 148.623 845.635 148.475ZM846.274 148.387C846.274 148.387 846.27 148.387 846.26 148.389C846.269 148.388 846.274 148.387 846.274 148.387Z" fill="black"/>
</g>
<rect x="2.06711" y="2.06711" width="915.043" height="388.617" stroke="black" stroke-width="4.13423"/>
<defs>
<clipPath id="clip0_7426_39562">
<rect width="919.177" height="392.752" fill="white"/>
</clipPath>
</defs>
</svg>
